<svg xmlns="http://www.w3.org/2000/svg" xmlns:xlink="http://www.w3.org/1999/xlink" version="1.1" width="214.701pt" height="77.501pt" viewBox="0 0 214.701 77.501">
<text xml:space="preserve" transform="matrix(1 0 -0 1 -.00000047683718 77.501)" font-size="9.9626" font-family="CMR10"><tspan y="-28.62" x="6.155">4</tspan></text>
<text xml:space="preserve" transform="matrix(1 0 -0 1 -.00000047683718 77.501)" font-size="9.9626" font-family="CMMI10" font-style="italic"><tspan y="-28.62" x="11.136">k</tspan></text>
<text xml:space="preserve" transform="matrix(1 0 -0 1 -.00000047683718 77.501)" font-size="9.9626" font-family="CMR10"><tspan y="-28.62" x="17.786999 26.683602">+1</tspan></text>
<text xml:space="preserve" transform="matrix(1 0 -0 1 0 77.501)" font-size="9.9626" font-family="CMR10"><tspan y="-46.243" x="50.045">4</tspan></text>
<text xml:space="preserve" transform="matrix(1 0 -0 1 0 77.501)" font-size="9.9626" font-family="CMMI10" font-style="italic"><tspan y="-46.243" x="55.025999">k</tspan></text>
<text xml:space="preserve" transform="matrix(1 0 -0 1 0 77.501)" font-size="9.9626" font-family="CMR10"><tspan y="-46.243" x="61.676 70.5726">+2</tspan></text>
<text xml:space="preserve" transform="matrix(1 0 -0 1 .0000076293949 77.501)" font-size="9.9626" font-family="CMR10"><tspan y="-46.243" x="93.934">2</tspan></text>
<text xml:space="preserve" transform="matrix(1 0 -0 1 .0000076293949 77.501)" font-size="9.9626" font-family="CMMI10" font-style="italic"><tspan y="-46.243" x="98.916">k</tspan></text>
<text xml:space="preserve" transform="matrix(1 0 -0 1 .0000076293949 77.501)" font-size="9.9626" font-family="CMR10"><tspan y="-46.243" x="105.566 114.4626">+1</tspan></text>
<text xml:space="preserve" transform="matrix(1 0 -0 1 0 77.501)" font-size="9.9626" font-family="CMR10"><tspan y="-61.314" x="137.824">2</tspan></text>
<text xml:space="preserve" transform="matrix(1 0 -0 1 0 77.501)" font-size="9.9626" font-family="CMMI10" font-style="italic"><tspan y="-61.314" x="142.80501">k</tspan></text>
<text xml:space="preserve" transform="matrix(1 0 -0 1 0 77.501)" font-size="9.9626" font-family="CMR10"><tspan y="-61.314" x="149.455 158.35161">+2</tspan></text>
<text xml:space="preserve" transform="matrix(1 0 -0 1 0 77.501)" font-size="9.9626" font-family="CMMI10" font-style="italic"><tspan y="-61.314" x="183.065">k</tspan></text>
<text xml:space="preserve" transform="matrix(1 0 -0 1 0 77.501)" font-size="9.9626" font-family="CMR10"><tspan y="-61.314" x="190.854 200.8963">+1</tspan></text>
<text xml:space="preserve" transform="matrix(1 0 -0 1 0 77.501)" font-size="9.9626" font-family="CMR10"><tspan y="-31.171" x="145.339">2</tspan></text>
<text xml:space="preserve" transform="matrix(1 0 -0 1 0 77.501)" font-size="9.9626" font-family="CMMI10" font-style="italic"><tspan y="-31.171" x="150.32">k</tspan></text>
<text xml:space="preserve" transform="matrix(1 0 -0 1 -.000015258789 77.501)" font-size="9.9626" font-family="CMMI10" font-style="italic"><tspan y="-31.171" x="191.719">k</tspan></text>
<text xml:space="preserve" transform="matrix(1 0 -0 1 0 77.501)" font-size="9.9626" font-family="CMR10"><tspan y="-9.58" x="57.56">4</tspan></text>
<text xml:space="preserve" transform="matrix(1 0 -0 1 0 77.501)" font-size="9.9626" font-family="CMMI10" font-style="italic"><tspan y="-9.58" x="62.541">k</tspan></text>
<text xml:space="preserve" transform="matrix(1 0 -0 1 .0000076293949 77.501)" font-size="9.9626" font-family="CMR10"><tspan y="-9.58" x="101.449">2</tspan></text>
<text xml:space="preserve" transform="matrix(1 0 -0 1 .0000076293949 77.501)" font-size="9.9626" font-family="CMMI10" font-style="italic"><tspan y="-9.58" x="106.431">k</tspan></text>
<text xml:space="preserve" transform="matrix(1 0 -0 1 0 77.501)" font-size="9.9626" font-family="CMMI10" font-style="italic"><tspan y="-9.58" x="147.83">k</tspan></text>
<text fill="#ff0000" xml:space="preserve" transform="matrix(1 0 -0 1 -.000015258789 77.501)" font-size="9.9626" font-family="CMMI10" font-style="italic"><tspan y="-9.995" x="181.714">k</tspan></text>
<text fill="#ff0000" xml:space="preserve" transform="matrix(1 0 -0 1 -.000015258789 77.501)" font-size="9.9626" font-family="CMR10"><tspan y="-9.995" x="189.42801 199.39061">+1</tspan></text>
<path transform="matrix(1,0,0,-1,18.911,45.836999)" stroke-width=".3985" stroke-linecap="butt" stroke-miterlimit="10" stroke-linejoin="miter" fill="none" stroke="#ff0000" d="M121.89142-28.63034H192.75844V-8.787661H121.89142Z"/>
<path transform="matrix(1,0,0,-1,18.911,45.836999)" stroke-width=".3985" stroke-linecap="butt" stroke-miterlimit="10" stroke-linejoin="miter" fill="none" stroke="#ff0000" d="M161.5768-5.38573H189.92359V42.803739H161.5768Z"/>
<path transform="matrix(1,0,0,-1,18.911,45.836999)" stroke-width=".3985" stroke-linecap="butt" stroke-miterlimit="10" stroke-linejoin="miter" fill="none" stroke="#000000" d="M16.27579 6.53578 27.18912 10.92017"/>
<path transform="matrix(.9279,-.37274,-.37274,-.9279,46.10012,34.916849)" stroke-width=".31879" stroke-linecap="round" stroke-linejoin="round" fill="none" stroke="#000000" d="M-1.19551 1.59401C-1.09587 .99626 0 .09961 .29886 0 0-.09961-1.09587-.99626-1.19551-1.59401"/>
<path transform="matrix(1,0,0,-1,18.911,45.836999)" stroke-width=".3985" stroke-linecap="butt" stroke-miterlimit="10" stroke-linejoin="miter" fill="none" stroke="#000000" d="M60.16594 17.62329H71.0462"/>
<path transform="matrix(1,0,0,-1,89.9572,28.213709)" stroke-width=".31879" stroke-linecap="round" stroke-linejoin="round" fill="none" stroke="#000000" d="M-1.19551 1.59401C-1.09587 .99626 0 .09961 .29886 0 0-.09961-1.09587-.99626-1.19551-1.59401"/>
<path transform="matrix(1,0,0,-1,18.911,45.836999)" stroke-width=".3985" stroke-linecap="butt" stroke-miterlimit="10" stroke-linejoin="miter" fill="none" stroke="#000000" d="M104.05609 23.21263 114.96124 26.95955"/>
<path transform="matrix(.94572,-.32495,-.32495,-.94572,133.87223,18.877469)" stroke-width=".31879" stroke-linecap="round" stroke-linejoin="round" fill="none" stroke="#000000" d="M-1.19551 1.59401C-1.09587 .99626 0 .09961 .29886 0 0-.09961-1.09587-.99626-1.19551-1.59401"/>
<path transform="matrix(1,0,0,-1,18.911,45.836999)" stroke-width=".3985" stroke-linecap="butt" stroke-miterlimit="10" stroke-linejoin="miter" fill="none" stroke="#000000" d="M147.94625 32.69505H158.8265"/>
<path transform="matrix(1,0,0,-1,177.7375,13.141949)" stroke-width=".31879" stroke-linecap="round" stroke-linejoin="round" fill="none" stroke="#000000" d="M-1.19551 1.59401C-1.09587 .99626 0 .09961 .29886 0 0-.09961-1.09587-.99626-1.19551-1.59401"/>
<path transform="matrix(1,0,0,-1,18.911,45.836999)" stroke-width=".3985" stroke-linecap="butt" stroke-miterlimit="10" stroke-linejoin="miter" fill="none" stroke="#000000" d="M104.05609 12.1877 114.95999 8.5445"/>
<path transform="matrix(.94843,.31686,.31686,-.94843,133.87099,37.292497)" stroke-width=".31879" stroke-linecap="round" stroke-linejoin="round" fill="none" stroke="#000000" d="M-1.19551 1.59401C-1.09587 .99626 0 .09961 .29886 0 0-.09961-1.09587-.99626-1.19551-1.59401"/>
<path transform="matrix(1,0,0,-1,18.911,45.836999)" stroke-width=".3985" stroke-linecap="butt" stroke-miterlimit="10" stroke-linejoin="miter" fill="none" stroke="#000000" d="M147.94625 2.96666H158.8265"/>
<path transform="matrix(1,0,0,-1,177.7375,42.87034)" stroke-width=".31879" stroke-linecap="round" stroke-linejoin="round" fill="none" stroke="#000000" d="M-1.19551 1.59401C-1.09587 .99626 0 .09961 .29886 0 0-.09961-1.09587-.99626-1.19551-1.59401"/>
<path transform="matrix(1,0,0,-1,18.911,45.836999)" stroke-width=".3985" stroke-linecap="butt" stroke-miterlimit="10" stroke-linejoin="miter" fill="none" stroke="#000000" d="M16.27579-6.90707 27.19252-11.54225"/>
<path transform="matrix(.92046,.3908,.3908,-.92046,46.10352,57.37924)" stroke-width=".31879" stroke-linecap="round" stroke-linejoin="round" fill="none" stroke="#000000" d="M-1.19551 1.59401C-1.09587 .99626 0 .09961 .29886 0 0-.09961-1.09587-.99626-1.19551-1.59401"/>
<path transform="matrix(1,0,0,-1,18.911,45.836999)" stroke-width=".3985" stroke-linecap="butt" stroke-miterlimit="10" stroke-linejoin="miter" fill="none" stroke="#000000" d="M147.94625 2.96666H158.8265"/>
<path transform="matrix(1,0,0,-1,177.7375,42.87034)" stroke-width=".31879" stroke-linecap="round" stroke-linejoin="round" fill="none" stroke="#000000" d="M-1.19551 1.59401C-1.09587 .99626 0 .09961 .29886 0 0-.09961-1.09587-.99626-1.19551-1.59401"/>
<path transform="matrix(1,0,0,-1,18.911,45.836999)" stroke-width=".3985" stroke-linecap="butt" stroke-miterlimit="10" stroke-linejoin="miter" fill="none" stroke="#000000" d="M60.16594-18.62517H71.0462"/>
<path transform="matrix(1,0,0,-1,89.9572,64.462169)" stroke-width=".31879" stroke-linecap="round" stroke-linejoin="round" fill="none" stroke="#000000" d="M-1.19551 1.59401C-1.09587 .99626 0 .09961 .29886 0 0-.09961-1.09587-.99626-1.19551-1.59401"/>
<path transform="matrix(1,0,0,-1,18.911,45.836999)" stroke-width=".3985" stroke-linecap="butt" stroke-miterlimit="10" stroke-linejoin="miter" fill="none" stroke="#000000" d="M104.05609-18.62517H114.93636"/>
<path transform="matrix(1,0,0,-1,133.84737,64.462169)" stroke-width=".31879" stroke-linecap="round" stroke-linejoin="round" fill="none" stroke="#000000" d="M-1.19551 1.59401C-1.09587 .99626 0 .09961 .29886 0 0-.09961-1.09587-.99626-1.19551-1.59401"/>
<path transform="matrix(1,0,0,-1,18.911,45.836999)" stroke-width=".3985" stroke-linecap="butt" stroke-miterlimit="10" stroke-linejoin="miter" fill="none" stroke="#ff0000" d="M147.94625-18.62517H158.8265"/>
<path transform="matrix(1,0,0,-1,177.7375,64.462169)" stroke-width=".31879" stroke-linecap="round" stroke-linejoin="round" fill="none" stroke="#ff0000" d="M-1.19551 1.59401C-1.09587 .99626 0 .09961 .29886 0 0-.09961-1.09587-.99626-1.19551-1.59401"/>
</svg>
