<?xml version="1.0" encoding="UTF-8" standalone="no"?>
<!-- Created with Inkscape (http://www.inkscape.org/) -->

<svg
   version="1.1"
   id="svg182"
   width="768"
   height="288"
   viewBox="0 0 768 288"
   sodipodi:docname="fit+forecastRegionregion2.pdf"
   xmlns:inkscape="http://www.inkscape.org/namespaces/inkscape"
   xmlns:sodipodi="http://sodipodi.sourceforge.net/DTD/sodipodi-0.dtd"
   xmlns="http://www.w3.org/2000/svg"
   xmlns:svg="http://www.w3.org/2000/svg">
  <defs
     id="defs186">
    <clipPath
       clipPathUnits="userSpaceOnUse"
       id="clipPath200">
      <path
         d="M 59.04,30.24 H 545.76 V 185.76 H 59.04 Z"
         id="path198" />
    </clipPath>
    <clipPath
       clipPathUnits="userSpaceOnUse"
       id="clipPath272">
      <path
         d="M 59.04,30.24 H 545.76 V 185.76 H 59.04 Z"
         id="path270" />
    </clipPath>
  </defs>
  <sodipodi:namedview
     id="namedview184"
     pagecolor="#ffffff"
     bordercolor="#000000"
     borderopacity="0.25"
     inkscape:showpageshadow="2"
     inkscape:pageopacity="0.0"
     inkscape:pagecheckerboard="0"
     inkscape:deskcolor="#d1d1d1"
     showgrid="false" />
  <g
     id="g190"
     inkscape:groupmode="layer"
     inkscape:label="Page 1"
     transform="matrix(1.3333333,0,0,-1.3333333,0,288)">
    <g
       id="g194"
       style="stroke:#ffffff;stroke-opacity:1">
      <g
         id="g196"
         clip-path="url(#clipPath200)"
         style="stroke:#ffffff;stroke-opacity:1">
        <path
           d="m 77.07,121.59 1.01,-8.03 1.02,8.86 1.01,-15.65 1.02,11.35 1.01,-5.52 1.02,-3.31 1.01,-7.51 1.02,-6.12 1.01,-3.4 1.02,-0.17 1.01,17.47 1.02,15.36 1.01,-16.4 1.02,10.5 1.01,17.52 1.02,-12.19 1.01,-7.3 1.02,-5.36 1.01,4.78 1.02,-6.52 1.01,-6.14 1.02,-10.04 1.01,-0.2 1.02,17.51 1.01,-9.63 1.02,7.36 1.01,14.81 1.02,0.36 1.01,-0.16 1.02,-6.63 1.01,-20.81 1.02,4.77 1.01,-0.5 1.02,-5.29 1.01,13.07 1.02,-6.37 1.01,15.53 1.02,4.14 1.01,0.04 1.02,-10.13 1.01,1.16 1.02,-1.43 1.01,4.98 1.02,-11.29 1.01,-12.11 1.02,0.28 1.01,-3.95 1.02,15.52 1.01,-6.42 1.02,4.83 1.01,10.44 1.02,-4.12 1.01,-4.64 1.02,2.57 1.01,1.46 1.02,-10.36 1.01,-4.58 1.02,6.84 1.01,3.63 1.02,7.74 1.01,6.1 1.02,-4.65 1.01,11.75 1.02,-8.19 1.01,-1.51 1.02,6.28 1.01,-8.34 1.02,-13.39 1.01,5.58 1.02,-1.64 1.01,-1.72 1.02,8.67 1.01,6.37 1.02,2.45 1.01,-5.74 1.02,23.39 1.01,-7.17 1.02,-21.81 1.01,6.02 1.02,-18.38 1.01,-0.85 1.02,4.42 1.01,-1.5 1.02,13.05 1.01,8.6 1.02,-9.39 1.01,15 1.02,2.58 1.01,-5.82 1.02,7.85 1.01,-16.03 1.02,-6.16 1.01,-7.69 1.02,-12.58 1.01,19.08 1.02,6.26 1.01,0.82 1.02,9.7 1.01,14.51 1.02,-17.53 1.01,-2.9 1.02,0.14 1.01,-1.31 1.02,-19.55 1.01,-3.97 1.02,14.36 1.01,-9.02 1.02,2.52 1.01,13.67 1.02,8.66 1.01,-0.89 1.02,10.47 1.01,4.88 1.02,-14.87 1.01,-3.19 1.02,-20.11 1.01,4.82 1.02,-1.41 1.01,7.32 1.02,7.89 1.01,9.78 1.02,9.08 1.01,-5.43 1.02,-3.38 1.01,1.28 1.02,-12.84 1.01,-12.41 1.02,-5.85 1.01,-0.69 1.02,8.95 1.01,-0.39 1.02,4.06 1.01,7.92 1.02,-1.17 1.01,10.24 1.02,3.6 1.01,-8.03 1.02,-4.28 1.01,-15.06 1.02,-10.33 1.01,4.09 1.02,17.12 1.01,-10.15 1.02,4.87 1.01,11.21 1.02,6.2 1.01,-9.44 1.02,-10.36 1.01,5.09 1.02,7.5 1.01,-1.51 1.02,-15.99 1.01,1.27 1.02,-2.6 1.01,20.76 1.02,-12.43 1.01,-0.36 1.02,14.86 1.01,17.25 1.02,-18.47 1.01,10.86 1.02,-11.15 1.01,-10.22 1.02,-16.74 1.01,2.58 1.02,14.24 1.01,-4.16 1.02,7.5 1.01,13.31 1.02,12.65 1.01,-2.94 1.02,5.31 1.01,-16.07 1.02,-17.18 1.01,9.52 1.02,-12.33 1.01,-3.16 1.02,-4.95 1.01,11.77 1.02,5.22 1.01,0.5 1.02,8.48 1.01,0.45 1.02,-7.2 1.01,6.21 1.02,5.62 1.01,-15.85 1.02,-6.45 1.01,-17.5 1.02,8.72 1.01,-2.18 1.02,14.04 1.01,-0.41 1.02,2.73 1.01,23.42 1.02,-0.39 1.01,-11.07 1.02,-16.38 1.01,0.47 1.02,1.31 1.01,4.96 1.02,2.78 1.01,8.24 1.02,3.31 1.01,6.73 1.02,-0.06 1.01,-1.95 1.02,12.54 1.01,5.01 1.02,-14.67 1.01,-6.04 1.02,-2.2 1.01,1.07 1.02,-3.59 1.01,1.04 1.02,-5.25 1.01,-4.67 1.02,5.33 1.01,10.61 1.02,11.08 1.01,-8.41 1.02,-11.18 1.02,-15.2 1.01,1.85 1.02,-0.15 1.01,-9.53 1.02,7.44 1.01,2.65 1.02,-0.9 1.01,-4.53 1.02,25.17 1.01,-1.5 1.02,-3.25 1.01,-0.07 1.02,-10.5 1.01,-7.33 1.02,-2.39 1.01,2.79 1.02,11.43 1.01,-9 1.02,5.61 1.01,5.71 1.02,12.95 1.01,15.98 1.02,4.75 1.01,-14.16 1.02,-21.32 1.01,0.96 1.02,0.33 1.01,-3.26 1.02,3.88 1.01,10.3 1.02,-1.83 1.01,-0.89 1.02,-9.55 1.01,13.1 1.02,2.8 1.01,8.59 1.02,-0.75 1.01,-21.09 1.02,-8.3 1.01,0.93 1.02,-4.46 1.01,7.01 1.02,4.28 1.01,12.52 1.02,-7.28 1.01,15.25 1.02,8.53 1.01,-28.53 1.02,-19.69 1.01,5.83 1.02,-4.02 1.01,5.47 1.02,10.33 1.01,11.38 1.02,-10.73 1.01,18.55 1.02,-2.31 1.01,-16.36 1.02,4.33 1.01,0.02 1.02,2.51 1.01,-11.64 1.02,2.25 1.01,6.25 1.02,-9.75 1.01,12.71 1.02,14.24 1.01,4.81 1.02,-9.41 1.01,0.76 1.02,6.51 1.01,-5.37 1.02,-12.46 1.01,-6.49 1.02,-4.98 1.01,-1.99 1.02,-0.47 1.01,13.47 1.02,14.56 1.01,0.21 1.02,15.6 1.01,1.77 1.02,-11.72 1.01,-5.82 1.02,-14.53 1.01,-17.7 1.02,-4.65 1.01,7.8 1.02,2.41 1.01,7.73 1.02,24.58 1.01,2.31 1.02,2.24 1.01,-1.89 1.02,10.93 1.01,-12.64 1.02,-3.8 1.01,-14.88 1.02,-17.61 1.01,6.07 1.02,2.26"
           style="fill:none;stroke:#ffffff;stroke-width:0.75;stroke-linecap:round;stroke-linejoin:round;stroke-miterlimit:10;stroke-dasharray:none;stroke-opacity:1"
           id="path202" />
      </g>
    </g>
    <path
       d="m 162.33,30.24 h 365.4"
       style="fill:none;stroke:#ffffff;stroke-width:0.75;stroke-linecap:round;stroke-linejoin:round;stroke-miterlimit:10;stroke-dasharray:none;stroke-opacity:1"
       id="path212" />
    <path
       d="m 162.33,30.24 v -7.2"
       style="fill:none;stroke:#ffffff;stroke-width:0.75;stroke-linecap:round;stroke-linejoin:round;stroke-miterlimit:10;stroke-dasharray:none;stroke-opacity:1"
       id="path214" />
    <path
       d="m 284.13,30.24 v -7.2"
       style="fill:none;stroke:#ffffff;stroke-width:0.75;stroke-linecap:round;stroke-linejoin:round;stroke-miterlimit:10;stroke-dasharray:none;stroke-opacity:1"
       id="path216" />
    <path
       d="m 405.93,30.24 v -7.2"
       style="fill:none;stroke:#ffffff;stroke-width:0.75;stroke-linecap:round;stroke-linejoin:round;stroke-miterlimit:10;stroke-dasharray:none;stroke-opacity:1"
       id="path218" />
    <path
       d="m 527.73,30.24 v -7.2"
       style="fill:none;stroke:#ffffff;stroke-width:0.75;stroke-linecap:round;stroke-linejoin:round;stroke-miterlimit:10;stroke-dasharray:none;stroke-opacity:1"
       id="path220" />
    <text
       xml:space="preserve"
       transform="scale(1,-1)"
       style="font-variant:normal;font-weight:normal;font-size:12px;font-family:Helvetica;-inkscape-font-specification:Helvetica;writing-mode:lr-tb;fill:#ffffff;fill-opacity:1;fill-rule:nonzero;stroke:none"
       id="text224"
       x="148.98"
       y="-4.3200002"><tspan
         x="148.98 155.65199 162.32401 168.996"
         y="-4.3200002"
         sodipodi:role="line"
         id="tspan222">2000</tspan></text>
    <text
       xml:space="preserve"
       transform="scale(1,-1)"
       style="font-variant:normal;font-weight:normal;font-size:12px;font-family:Helvetica;-inkscape-font-specification:Helvetica;writing-mode:lr-tb;fill:#ffffff;fill-opacity:1;fill-rule:nonzero;stroke:none"
       id="text228"
       x="270.79001"
       y="-4.3200002"><tspan
         x="270.79001 277.46201 284.134 290.806"
         y="-4.3200002"
         sodipodi:role="line"
         id="tspan226">2010</tspan></text>
    <text
       xml:space="preserve"
       transform="scale(1,-1)"
       style="font-variant:normal;font-weight:normal;font-size:12px;font-family:Helvetica;-inkscape-font-specification:Helvetica;writing-mode:lr-tb;fill:#ffffff;fill-opacity:1;fill-rule:nonzero;stroke:none"
       id="text232"
       x="392.59"
       y="-4.3200002"><tspan
         x="392.59 399.26199 405.93399 412.60599"
         y="-4.3200002"
         sodipodi:role="line"
         id="tspan230">2020</tspan></text>
    <text
       xml:space="preserve"
       transform="scale(1,-1)"
       style="font-variant:normal;font-weight:normal;font-size:12px;font-family:Helvetica;-inkscape-font-specification:Helvetica;writing-mode:lr-tb;fill:#ffffff;fill-opacity:1;fill-rule:nonzero;stroke:none"
       id="text236"
       x="514.39001"
       y="-4.3200002"><tspan
         x="514.39001 521.06201 527.73401 534.40601"
         y="-4.3200002"
         sodipodi:role="line"
         id="tspan234">2030</tspan></text>
    <path
       d="M 59.04,41.52 V 150.04"
       style="fill:none;stroke:#ffffff;stroke-width:0.75;stroke-linecap:round;stroke-linejoin:round;stroke-miterlimit:10;stroke-dasharray:none;stroke-opacity:1"
       id="path238" />
    <path
       d="m 59.04,41.52 h -7.2"
       style="fill:none;stroke:#ffffff;stroke-width:0.75;stroke-linecap:round;stroke-linejoin:round;stroke-miterlimit:10;stroke-dasharray:none;stroke-opacity:1"
       id="path240" />
    <path
       d="m 59.04,77.7 h -7.2"
       style="fill:none;stroke:#ffffff;stroke-width:0.75;stroke-linecap:round;stroke-linejoin:round;stroke-miterlimit:10;stroke-dasharray:none;stroke-opacity:1"
       id="path242" />
    <path
       d="m 59.04,113.87 h -7.2"
       style="fill:none;stroke:#ffffff;stroke-width:0.75;stroke-linecap:round;stroke-linejoin:round;stroke-miterlimit:10;stroke-dasharray:none;stroke-opacity:1"
       id="path244" />
    <path
       d="m 59.04,150.04 h -7.2"
       style="fill:none;stroke:#ffffff;stroke-width:0.75;stroke-linecap:round;stroke-linejoin:round;stroke-miterlimit:10;stroke-dasharray:none;stroke-opacity:1"
       id="path246" />
    <text
       xml:space="preserve"
       transform="matrix(0,1,1,0,0,0)"
       style="font-variant:normal;font-weight:normal;font-size:12px;font-family:Helvetica;-inkscape-font-specification:Helvetica;writing-mode:lr-tb;fill:#ffffff;fill-opacity:1;fill-rule:nonzero;stroke:none"
       id="text250"
       x="29.68"
       y="41.759998"><tspan
         x="29.68 36.688 43.360001 46.695999"
         y="41.759998"
         sodipodi:role="line"
         id="tspan248">−0.2</tspan></text>
    <text
       xml:space="preserve"
       transform="matrix(0,1,1,0,0,0)"
       style="font-variant:normal;font-weight:normal;font-size:12px;font-family:Helvetica;-inkscape-font-specification:Helvetica;writing-mode:lr-tb;fill:#ffffff;fill-opacity:1;fill-rule:nonzero;stroke:none"
       id="text254"
       x="65.849998"
       y="41.759998"><tspan
         x="65.849998 72.858002 79.529999 82.865997"
         y="41.759998"
         sodipodi:role="line"
         id="tspan252">−0.1</tspan></text>
    <text
       xml:space="preserve"
       transform="matrix(0,1,1,0,0,0)"
       style="font-variant:normal;font-weight:normal;font-size:12px;font-family:Helvetica;-inkscape-font-specification:Helvetica;writing-mode:lr-tb;fill:#ffffff;fill-opacity:1;fill-rule:nonzero;stroke:none"
       id="text258"
       x="105.53"
       y="41.759998"><tspan
         x="105.53 112.202 115.538"
         y="41.759998"
         sodipodi:role="line"
         id="tspan256">0.0</tspan></text>
    <text
       xml:space="preserve"
       transform="matrix(0,1,1,0,0,0)"
       style="font-variant:normal;font-weight:normal;font-size:12px;font-family:Helvetica;-inkscape-font-specification:Helvetica;writing-mode:lr-tb;fill:#ffffff;fill-opacity:1;fill-rule:nonzero;stroke:none"
       id="text262"
       x="141.7"
       y="41.759998"><tspan
         x="141.7 148.37199 151.70801"
         y="41.759998"
         sodipodi:role="line"
         id="tspan260">0.1</tspan></text>
    <path
       d="M 59.04,30.24 H 545.76 V 185.76 H 59.04 V 30.24"
       style="fill:none;fill-opacity:0;stroke:#ffffff;stroke-width:0.75;stroke-linecap:round;stroke-linejoin:round;stroke-miterlimit:10;stroke-dasharray:none;stroke-opacity:1"
       id="path264" />
    <g
       id="g266">
      <g
         id="g268"
         clip-path="url(#clipPath272)">
        <path
           d="m 77.07,109.26 1.01,14.56 1.02,-1.69 1.01,5.13 1.02,-9.22 1.01,2.32 1.02,-6.85 1.01,-5.55 1.02,-6.38 1.01,-3.71 1.02,-0.22 1.01,3.15 1.02,12.99 1.01,11.87 1.02,-6 1.01,5.93 1.02,7.54 1.01,-9.56 1.02,-7.77 1.01,-6.57 1.02,-0.08 1.01,-3.94 1.02,-1.63 1.01,-1.86 1.02,4.03 1.01,12.69 1.02,-2.14 1.01,4.33 1.02,5.88 1.01,-3.04 1.02,-4.16 1.01,-7.2 1.02,-12.97 1.01,1.65 1.02,1.25 1.01,0.57 1.02,10.75 1.01,0.63 1.02,10.44 1.01,2.72 1.02,-1.47 1.01,-8.15 1.02,-3.61 1.01,-4.63 1.02,-0.02 1.01,-6.38 1.02,-4.57 1.01,3.37 1.02,2.27 1.01,11.53 1.02,-0.31 1.01,3.15 1.02,3.54 1.01,-5.14 1.02,-6.36 1.01,-2.83 1.02,-1.94 1.01,-5.82 1.02,-0.78 1.01,6.65 1.02,5.95 1.01,7.8 1.02,5.69 1.01,-1.61 1.02,4.35 1.01,-7.24 1.02,-4.88 1.01,-0.7 1.02,-6.81 1.01,-7.37 1.02,4.35 1.01,2.39 1.02,3.23 1.01,8.27 1.02,5.84 1.01,1.91 1.02,-4.16 1.01,8.54 1.02,-7.79 1.01,-14.79 1.02,0.35 1.01,-9.79 1.02,1.03 1.01,5.43 1.02,3.42 1.01,10.43 1.02,6.98 1.01,-3.81 1.02,5.84 1.01,-1.91 1.02,-7 1.01,0.32 1.02,-10.85 1.01,-3.72 1.02,-2.35 1.01,-2.75 1.02,13.42 1.01,7.07 1.02,3.09 1.01,5.53 1.02,6.01 1.01,-12.08 1.02,-5.53 1.01,-3.86 1.02,-3.21 1.01,-10.31 1.02,-0.46 1.01,10.36 1.02,-0.32 1.01,5.31 1.02,9.36 1.01,5.02 1.02,-1.82 1.01,2.02 1.02,-1.42 1.01,-11.51 1.02,-4.13 1.01,-10.66 1.02,3.85 1.01,2.57 1.02,7.85 1.01,7.94 1.02,7.64 1.01,5.35 1.02,-4.33 1.01,-4.88 1.02,-3.42 1.01,-10.25 1.02,-8.66 1.01,-3.54 1.02,1.11 1.01,7.7 1.02,3.98 1.01,6.01 1.02,6.66 1.01,0.28 1.02,3.57 1.01,-1.4 1.02,-8.04 1.01,-6 1.02,-9.92 1.01,-5.6 1.02,3.32 1.01,11.85 1.02,-0.96 1.01,6.43 1.02,8.27 1.01,3.84 1.02,-5.84 1.01,-7.83 1.02,-1.94 1.01,-0.47 1.02,-3.36 1.01,-8.48 1.02,2.09 1.01,2.04 1.02,14.67 1.01,-2.31 1.02,2.74 1.01,7.94 1.02,7.23 1.01,-12.31 1.02,1.21 1.01,-9.4 1.02,-7.64 1.01,-8.67 1.02,2.63 1.01,10.3 1.02,2.13 1.01,7.72 1.02,9.38 1.01,7.17 1.02,-2.99 1.01,-0.44 1.02,-12.15 1.01,-12.16 1.02,1.9 1.01,-6.72 1.02,-0.03 1.01,0.92 1.02,9.98 1.01,6.6 1.02,3.06 1.01,4.94 1.02,-1.12 1.01,-6.55 1.02,-1.21 1.01,-1.09 1.02,-10.46 1.01,-3.82 1.02,-6.81 1.01,7.4 1.02,3.27 1.01,10.8 1.02,2.7 1.01,2.23 1.02,9.92 1.01,-3.36 1.02,-9.51 1.01,-11.74 1.02,-2.55 1.01,-0.06 1.02,4.02 1.01,4.73 1.02,8.41 1.01,5.6 1.02,6.09 1.01,0.66 1.02,-2.37 1.01,3.15 1.02,-1.38 1.01,-11.35 1.02,-5.58 1.01,-1.63 1.02,2.21 1.01,1.44 1.02,4.68 1.01,1.28 1.02,0.51 1.01,3.43 1.02,3.79 1.01,2.37 1.02,-8.28 1.02,-9.39 1.01,-10.03 1.02,0.2 1.01,1.46 1.02,-1.32 1.01,7.86 1.02,5.38 1.01,2.46 1.02,-1.13 1.01,10.56 1.02,-3.89 1.01,-5.67 1.02,-3.94 1.01,-7.77 1.02,-4.24 1.01,0.35 1.02,4.69 1.01,9.9 1.02,-0.38 1.01,5.56 1.02,3.61 1.01,4.94 1.02,4.86 1.01,-1.54 1.02,-11.06 1.01,-13.26 1.02,-0.13 1.01,1.75 1.02,1.68 1.01,6.16 1.02,9.17 1.01,1.79 1.02,0.35 1.01,-5.91 1.02,3.13 1.01,-2.71 1.02,0.53 1.01,-2.84 1.02,-11.31 1.01,-2.58 1.02,3.79 1.01,2.05 1.02,7.49 1.01,4.9 1.02,6.95 1.01,-4.9 1.02,4.3 1.01,0.27 1.02,-18.06 1.01,-12.13 1.02,2.06 1.01,-0.44 1.02,5.99 1.01,9.34 1.02,9.7 1.01,-2.54 1.02,9.92 1.01,-2.52 1.02,-11.05 1.01,-2.06 1.02,-3.91 1.01,-1.38 1.02,-6.38 1.01,2.66 1.02,6.46 1.01,-0.63 1.02,10.32 1.01,9.87 1.02,3.15 1.01,-6.08 1.02,-2.78 1.01,-0.84 1.02,-6.52 1.01,-8.78 1.02,-3.83 1.01,-0.92 1.02,2.35 1.01,4.02 1.02,10.67 1.01,10.01 1.02,0.86 1.01,6.42 1.02,-2.26 1.01,-9.96 1.02,-6.75 1.01,-9.81 1.02,-9.3 1.01,-0.73 1.02,7.11 1.01,5.43 1.02,7.84 1.01,15.01 1.02,1.88 1.01,-0.29 1.02,-4.11 1.01,1.51 1.02,-10.23 1.01,-4.44 1.02,-8.07 1.01,-7.15 1.02,6.3 1.01,5.35 1.02,7.23 1.01,6.31 1.02,3.89 1.01,0.51 1.02,-2.92 1.01,-5.54 1.02,-6.62 1.01,-5.88 1.02,-3.55 1.01,-0.22 1.02,3.19 1.01,5.8 1.02,6.87 1.01,6.15 1.02,3.8 1.01,0.47 1.02,-2.95 1.01,-5.55 1.02,-6.62 1.01,-5.89 1.02,-3.55 1.01,-0.22 1.02,3.2 1.01,5.79 1.02,6.88 1.01,6.14 1.02,3.8 1.01,0.47 1.02,-2.95 1.01,-5.54 1.02,-6.62 1.01,-5.9 1.02,-3.54 1.01,-0.23 1.02,3.2 1.01,5.8 1.02,6.87 1.01,6.15 1.02,3.8 1.01,0.47 1.02,-2.95 1.01,-5.55 1.02,-6.62 1.01,-5.89 1.02,-3.55 1.01,-0.22 1.02,3.2 1.01,5.8 1.02,6.87 1.01,6.14 1.02,3.8 1.01,0.47 1.02,-2.94 1.01,-5.55 1.02,-6.62 1.01,-5.89 1.02,-3.55 1.01,-0.22 1.02,3.2 1.01,5.79 1.02,6.88 1.01,6.14 1.02,3.8 1.01,0.47 1.02,-2.95 1.01,-5.54 1.02,-6.62 1.01,-5.89 1.02,-3.55 1.01,-0.22 1.02,3.2 1.01,5.79 1.02,6.88 1.01,6.14 1.02,3.8 1.01,0.47 1.02,-2.95 1.01,-5.54 1.02,-6.63 1.01,-5.89 1.02,-3.54 1.01,-0.23 1.02,3.2 1.01,5.8 1.02,6.88 1.01,6.14 1.02,3.8 1.01,0.47 1.02,-2.95 1.01,-5.54 1.02,-6.63 1.01,-5.89 1.02,-3.54 1.01,-0.23 1.02,3.2 1.01,5.8 1.02,6.88 1.01,6.14 1.02,3.8 1.01,0.47 1.02,-2.95 1.01,-5.54 1.02,-6.63 1.01,-5.89 1.02,-3.54 1.01,-0.22 1.02,3.2 1.01,5.79 1.02,6.88 1.01,6.14 1.02,3.8 1.01,0.47 1.02,-2.95 1.01,-5.54 1.02,-6.62 1.01,-5.89 1.02,-3.55 1.01,-0.22 1.02,3.2 v -29.35 l -1.02,-3.11 -1.01,0.31 -1.02,3.62 -1.01,5.96 -1.02,6.68 -1.01,5.6 -1.02,3.02 -1.01,-0.39 -1.02,-3.7 -1.01,-6.04 -1.02,-6.76 -1.01,-5.69 -1.02,-3.11 -1.01,0.31 -1.02,3.62 -1.01,5.96 -1.02,6.68 -1.01,5.6 -1.02,3.02 -1.01,-0.39 -1.02,-3.7 -1.01,-6.04 -1.02,-6.76 -1.01,-5.69 -1.02,-3.11 -1.01,0.31 -1.02,3.62 -1.01,5.95 -1.02,6.69 -1.01,5.6 -1.02,3.02 -1.01,-0.39 -1.02,-3.7 -1.01,-6.04 -1.02,-6.76 -1.01,-5.69 -1.02,-3.11 -1.01,0.31 -1.02,3.62 -1.01,5.95 -1.02,6.68 -1.01,5.61 -1.02,3.02 -1.01,-0.39 -1.02,-3.7 -1.01,-6.04 -1.02,-6.77 -1.01,-5.69 -1.02,-3.1 -1.01,0.31 -1.02,3.62 -1.01,5.95 -1.02,6.68 -1.01,5.61 -1.02,3.02 -1.01,-0.39 -1.02,-3.71 -1.01,-6.03 -1.02,-6.77 -1.01,-5.69 -1.02,-3.1 -1.01,0.3 -1.02,3.62 -1.01,5.96 -1.02,6.68 -1.01,5.61 -1.02,3.01 -1.01,-0.39 -1.02,-3.7 -1.01,-6.04 -1.02,-6.76 -1.01,-5.69 -1.02,-3.11 -1.01,0.31 -1.02,3.62 -1.01,5.95 -1.02,6.68 -1.01,5.61 -1.02,3.02 -1.01,-0.39 -1.02,-3.7 -1.01,-6.04 -1.02,-6.77 -1.01,-5.69 -1.02,-3.1 -1.01,0.3 -1.02,3.62 -1.01,5.96 -1.02,6.68 -1.01,5.61 -1.02,3.01 -1.01,-0.39 -1.02,-3.7 -1.01,-6.04 -1.02,-6.76 -1.01,-5.69 -1.02,-3.11 -1.01,0.31 -1.02,3.62 -1.01,5.95 -1.02,6.68 -1.01,5.61 -1.02,3.02 -1.01,-0.39 -1.02,-3.71 -1.01,-6.04 -1.02,-6.76 -1.01,-5.69 -1.02,-3.11 -1.01,0.31 -1.02,3.61 -1.01,5.96 -1.02,6.67 -1.01,5.6 -1.02,3 -1.01,-0.44 -1.02,-3.79 -1.01,-6.21 -1.02,-7.12 -1.01,-5.25 -1.02,-6.28 -1.01,7.29 -1.02,7.98 -1.01,4.57 -1.02,10.1 -1.01,-1.15 -1.02,4.15 -1.01,0.36 -1.02,-1.87 -1.01,-14.81 -1.02,-7.76 -1.01,-5.32 -1.02,-7.19 -1.01,0.85 -1.02,9.55 -1.01,9.85 -1.02,6.81 -1.01,9.85 -1.02,2.37 -1.01,-6.18 -1.02,-0.81 -1.01,-9.86 -1.02,-10.63 -1.01,-3.87 -1.02,-2.24 -1.01,0.99 -1.02,3.9 -1.01,8.83 -1.02,6.58 -1.01,0.9 -1.02,2.84 -1.01,6.13 -1.02,-3.09 -1.01,-9.67 -1.02,-10.24 -1.01,0.69 -1.02,-6.31 -1.01,-2.59 -1.02,6.46 -1.01,1.37 -1.02,3.84 -1.01,1.84 -1.02,11.58 -1.01,2.63 -1.02,-9.95 -1.01,2.7 -1.02,-9.54 -1.01,-9.27 -1.02,-6 -1.01,0.52 -1.02,-2.44 -1.01,12.66 -1.02,18.02 h -1.01 l -1.02,-4.44 -1.01,5.18 -1.02,-6.93 -1.01,-4.76 -1.02,-7.4 -1.01,-1.89 -1.02,-3.7 -1.01,2.62 -1.02,10.92 -1.01,3.15 -1.02,-0.23 -1.01,2.71 -1.02,-3.47 -1.01,6.42 -1.02,-0.23 -1.01,-1.81 -1.02,-8.98 -1.01,-6.05 -1.02,-1.66 -1.01,-1.6 -1.02,0.21 -1.01,13.13 -1.02,10.76 -1.01,1.95 -1.02,-4.6 -1.01,-5.06 -1.02,-3.51 -1.01,-5.42 -1.02,0.61 -1.01,-9.8 -1.02,-4.65 -1.01,-0.3 -1.02,4.33 -1.01,7.89 -1.02,3.9 -1.01,5.74 -1.02,3.99 -1.01,-11.55 -1.02,1.91 -1.01,-2.06 -1.02,-5.2 -1.01,-7.87 -1.02,1.56 -1.01,-1.41 -1.02,-0.35 -1.01,10.3 -1.02,9.47 -1.02,8.26 -1.01,-2.24 -1.02,-3.87 -1.01,-3.31 -1.02,-0.28 -1.01,-1.45 -1.02,-4.71 -1.01,-1.56 -1.02,-1.89 -1.01,1.85 -1.02,5.66 -1.01,10.98 -1.02,1.84 -1.01,-2.9 -1.02,2.42 -1.01,-0.73 -1.02,-6.01 -1.01,-5.62 -1.02,-8.13 -1.01,-4.59 -1.02,-3.93 -1.01,-0.06 -1.02,2.22 -1.01,12.29 -1.02,9.66 -1.01,3.43 -1.02,-10.47 -1.01,-1.94 -1.02,-2.3 -1.01,-11.07 -1.02,-2.92 -1.01,-7.82 -1.02,7.51 -1.01,3.88 -1.02,10.51 -1.01,1.1 -1.02,0.83 -1.01,6.99 -1.02,1.29 -1.01,-4.93 -1.02,-2.86 -1.01,-6.51 -1.02,-10.07 -1.01,-0.73 -1.02,0.08 -1.01,6.8 -1.02,-2.29 -1.01,12.65 -1.02,11.99 -1.01,0.68 -1.02,2.79 -1.01,-6.84 -1.02,-9.24 -1.01,-7.66 -1.02,-2.1 -1.01,-10.4 -1.02,-2.95 -1.01,9.23 -1.02,7.74 -1.01,9.43 -1.02,-1.37 -1.01,12.41 -1.02,-7.02 -1.01,-8.27 -1.02,-2.31 -1.01,2.08 -1.02,-14.29 -1.01,-1.95 -1.02,-2.19 -1.01,8.66 -1.02,3.39 -1.01,-0.13 -1.02,1.19 -1.01,8.86 -1.02,6.38 -1.01,-3.78 -1.02,-8.26 -1.01,-6.34 -1.02,0.75 -1.01,-11.7 -1.02,-3.77 -1.01,5.94 -1.02,10.26 -1.01,6.02 -1.02,8.12 -1.01,1.43 -1.02,-3.73 -1.01,-0.02 -1.02,-6.62 -1.01,-5.95 -1.02,-4 -1.01,-7.74 -1.02,-1.23 -1.01,3.55 -1.02,8.89 -1.01,10.27 -1.02,3.5 -1.01,4.87 -1.02,3.91 -1.01,-5.11 -1.02,-7.48 -1.01,-7.83 -1.02,-7.77 -1.01,-2.59 -1.02,-3.97 -1.01,10.58 -1.02,4.29 -1.01,11.02 -1.02,1.92 -1.01,-1.97 -1.02,1.92 -1.01,-5.03 -1.02,-9.62 -1.01,-5.13 -1.02,0.27 -1.01,-10.45 -1.02,0.45 -1.01,10.38 -1.02,3.33 -1.01,3.77 -1.02,5.54 -1.01,11.71 -1.02,-5.53 -1.01,-5.54 -1.02,-3.14 -1.01,-7.09 -1.02,-13.87 -1.01,3.17 -1.02,2.25 -1.01,3.68 -1.02,10.3 -1.01,0.3 -1.02,6.97 -1.01,1.93 -1.02,-6.19 -1.01,4.05 -1.02,-6.97 -1.01,-10.46 -1.02,-3.45 -1.01,-5.52 -1.02,-1.16 -1.01,9.74 -1.02,-0.37 -1.01,14.62 -1.02,7.51 -1.01,-8.26 -1.02,4.39 -1.01,-1.99 -1.02,-5.89 -1.01,-8.28 -1.02,-3.42 -1.01,-2.54 -1.02,-4.21 -1.01,7.2 -1.02,6.71 -1.01,0.83 -1.02,4.82 -1.01,7.28 -1.02,-4.44 -1.01,1.54 -1.02,-5.78 -1.01,-7.81 -1.02,-6.02 -1.01,-6.7 -1.02,0.73 -1.01,5.74 -1.02,1.86 -1.01,2.41 -1.02,6.43 -1.01,5.33 -1.02,-3.95 -1.01,-3.11 -1.02,0.65 -1.01,-11.81 -1.02,-2.17 -1.01,-3.46 -1.02,4.41 -1.01,6.1 -1.02,0.3 -1.01,4.55 -1.02,3.44 -1.01,8.29 -1.02,1.35 -1.01,-2.84 -1.02,-10.39 -1.01,-0.99 -1.02,-10.58 -1.01,-0.75 -1.02,-1.27 -1.01,-1.79 -1.02,12.92 -1.01,7.15 -1.02,4.19 -1.01,3 -1.02,-5.96 -1.01,-4.44 -1.02,2.01 -1.01,-12.63 -1.02,-4.12 -1.01,1.53 -1.02,1.42 -1.01,3.84 -1.02,0.41 -1.01,6.53 -1.02,7.67 -1.01,8.92 -1.02,-6.98 -1.01,-5.96 -1.02,4.87 -1.01,-11.31 -1.02,-12.7 -1.01,-3.25 -1.02,0.12 -1.01,3.65 -1.02,6.32 -1.01,5.51 -1.02,6.82 -1.01,-2.55 -1.02,9.17 -1.01,-5.13 -1.02,0.87 -1.01,-13.85 z"
           style="fill:#bebebe;fill-opacity:0.502;fill-rule:nonzero;stroke:none"
           id="path274" />
        <path
           d="m 77.07,104 1.01,14.2 1.02,-1.28 1.01,5.13 1.02,-9.2 1.01,2.44 1.02,-6.83 1.01,-5.53 1.02,-6.35 1.01,-3.68 1.02,-0.17 1.01,3.19 1.02,12.85 1.01,11.59 1.02,-5.43 1.01,5.94 1.02,7.26 1.01,-9.24 1.02,-7.72 1.01,-6.55 1.02,-0.25 1.01,-3.88 1.02,-1.53 1.01,-1.7 1.02,4.08 1.01,12.66 1.02,-2.07 1.01,4.38 1.02,5.92 1.01,-3.02 1.02,-4.18 1.01,-7.17 1.02,-12.95 1.01,1.72 1.02,1.27 1.01,0.66 1.02,10.66 1.01,0.81 1.02,10.41 1.01,2.79 1.02,-1.42 1.01,-8.22 1.02,-3.52 1.01,-4.59 1.02,-0.16 1.01,-6.24 1.02,-4.49 1.01,3.42 1.02,2.22 1.01,11.67 1.02,-0.48 1.01,3.13 1.02,3.74 1.01,-5.24 1.02,-6.39 1.01,-2.62 1.02,-1.9 1.01,-5.78 1.02,-0.76 1.01,6.68 1.02,5.98 1.01,7.81 1.02,5.73 1.01,-1.57 1.02,4.39 1.01,-7.25 1.02,-4.85 1.01,-0.77 1.02,-6.76 1.01,-7.29 1.02,4.28 1.01,2.47 1.02,3.33 1.01,8.27 1.02,5.87 1.01,1.95 1.02,-4.28 1.01,8.4 1.02,-7.65 1.01,-14.7 1.02,0.36 1.01,-9.77 1.02,1.1 1.01,5.47 1.02,3.44 1.01,10.44 1.02,6.97 1.01,-3.92 1.02,6.01 1.01,-1.92 1.02,-6.98 1.01,0.01 1.02,-10.58 1.01,-3.7 1.02,-2.3 1.01,-2.96 1.02,13.64 1.01,7.08 1.02,3.12 1.01,5.54 1.02,5.76 1.01,-11.89 1.02,-5.53 1.01,-3.82 1.02,-3.27 1.01,-10.34 1.02,-0.46 1.01,10.41 1.02,-0.3 1.01,5.22 1.02,9.49 1.01,5.02 1.02,-1.86 1.01,1.99 1.02,-1.67 1.01,-11.27 1.02,-4.2 1.01,-10.62 1.02,3.9 1.01,2.59 1.02,7.8 1.01,7.89 1.02,7.56 1.01,5.23 1.02,-4.12 1.01,-4.87 1.02,-3.47 1.01,-10.25 1.02,-8.78 1.01,-3.55 1.02,1.18 1.01,7.72 1.02,3.98 1.01,5.99 1.02,6.63 1.01,0.16 1.02,3.65 1.01,-1.42 1.02,-8.08 1.01,-6.01 1.02,-10.09 1.01,-5.77 1.02,3.55 1.01,11.77 1.02,-0.86 1.01,6.39 1.02,8.27 1.01,3.81 1.02,-6.12 1.01,-8.34 1.02,-1.57 1.01,-0.16 1.02,-3.38 1.01,-8.57 1.02,2.14 1.01,2 1.02,14.47 1.01,-2.19 1.02,2.52 1.01,8.11 1.02,7.12 1.01,-12.35 1.02,1.29 1.01,-9.42 1.02,-7.69 1.01,-8.95 1.02,2.79 1.01,10.35 1.02,2.12 1.01,7.68 1.02,9.31 1.01,7.01 1.02,-2.89 1.01,-0.56 1.02,-12.07 1.01,-12.41 1.02,2.1 1.01,-6.76 1.02,-0.05 1.01,0.82 1.02,10.02 1.01,6.56 1.02,2.96 1.01,4.94 1.02,-1.21 1.01,-6.77 1.02,-1.02 1.01,-1.09 1.02,-10.49 1.01,-3.85 1.02,-7.16 1.01,7.61 1.02,3.09 1.01,10.94 1.02,2.5 1.01,2.09 1.02,10.19 1.01,-3.39 1.02,-9.59 1.01,-12.01 1.02,-2.39 h 1.01 l 1.02,3.98 1.01,4.66 1.02,8.26 1.01,5.61 1.02,6.05 1.01,0.7 1.02,-2.4 1.01,3.03 1.02,-1.61 1.01,-11.17 1.02,-5.61 1.01,-1.74 1.02,2.04 1.01,1.5 1.02,4.7 1.01,1.36 1.02,0.4 1.01,3.37 1.02,3.83 1.01,2.3 1.02,-8.26 1.02,-9.44 1.01,-10.16 1.02,0.27 1.01,1.44 1.02,-1.44 1.01,7.87 1.02,5.29 1.01,2.25 1.02,-1.51 1.01,11.05 1.02,-3.94 1.01,-5.71 1.02,-3.91 1.01,-7.84 1.02,-4.28 1.01,0.33 1.02,4.67 1.01,9.84 1.02,-0.49 1.01,5.49 1.02,3.56 1.01,5 1.02,4.73 1.01,-1.74 1.02,-10.91 1.01,-13.2 1.02,-0.17 1.01,1.68 1.02,1.66 1.01,6.11 1.02,9.08 1.01,1.79 1.02,0.3 1.01,-6.17 1.02,3.3 1.01,-2.71 1.02,0.38 1.01,-3 1.02,-11.11 1.01,-2.6 1.02,3.74 1.01,1.97 1.02,7.45 1.01,4.83 1.02,6.94 1.01,-5.04 1.02,4.37 1.01,0.13 1.02,-18.04 1.01,-12.39 1.02,2.25 1.01,-0.48 1.02,6 1.01,9.3 1.02,9.62 1.01,-2.62 1.02,9.93 1.01,-2.57 1.02,-11.31 1.01,-1.95 1.02,-3.88 1.01,-1.38 1.02,-6.42 1.01,2.63 1.02,6.38 1.01,-0.65 1.02,10.28 1.01,9.76 1.02,3.12 1.01,-6.1 1.02,-2.81 1.01,-0.87 1.02,-6.55 1.01,-8.81 1.02,-3.86 1.01,-0.96 1.02,2.3 1.01,3.94 1.02,10.66 1.01,9.93 1.02,0.83 1.01,6.31 1.02,-2.32 1.01,-9.91 1.02,-6.77 1.01,-9.83 1.02,-9.43 1.01,-0.79 1.02,7.15 1.01,5.38 1.02,7.8 1.01,14.9 1.02,1.88 1.01,-0.32 1.02,-4.13 1.01,1.32 1.02,-10.16 1.01,-4.5 1.02,-8.03 1.01,-7.22 1.02,6.29 1.01,5.3 1.02,7.17 1.01,6.27 1.02,3.84 1.01,0.47 1.02,-2.96 1.01,-5.57 1.02,-6.64 1.01,-5.92 1.02,-3.59 1.01,-0.26 1.02,3.15 1.01,5.74 1.02,6.82 1.01,6.09 1.02,3.76 1.01,0.43 1.02,-2.99 1.01,-5.57 1.02,-6.65 1.01,-5.93 1.02,-3.58 1.01,-0.26 1.02,3.15 1.01,5.74 1.02,6.82 1.01,6.09 1.02,3.75 1.01,0.43 1.02,-2.98 1.01,-5.58 1.02,-6.65 1.01,-5.92 1.02,-3.59 1.01,-0.26 1.02,3.15 1.01,5.75 1.02,6.82 1.01,6.09 1.02,3.75 1.01,0.43 1.02,-2.99 1.01,-5.57 1.02,-6.65 1.01,-5.93 1.02,-3.58 1.01,-0.26 1.02,3.15 1.01,5.74 1.02,6.82 1.01,6.09 1.02,3.75 1.01,0.43 1.02,-2.98 1.01,-5.58 1.02,-6.65 1.01,-5.92 1.02,-3.58 1.01,-0.27 1.02,3.15 1.01,5.75 1.02,6.82 1.01,6.09 1.02,3.75 1.01,0.43 1.02,-2.98 1.01,-5.58 1.02,-6.65 1.01,-5.92 1.02,-3.59 1.01,-0.26 1.02,3.15 1.01,5.74 1.02,6.82 1.01,6.09 1.02,3.75 1.01,0.44 1.02,-2.99 1.01,-5.57 1.02,-6.66 1.01,-5.92 1.02,-3.58 1.01,-0.27 1.02,3.16 1.01,5.74 1.02,6.82 1.01,6.09 1.02,3.75 1.01,0.43 1.02,-2.98 1.01,-5.58 1.02,-6.65 1.01,-5.92 1.02,-3.59 1.01,-0.26 1.02,3.15 1.01,5.74 1.02,6.82 1.01,6.09 1.02,3.76 1.01,0.43 1.02,-2.99 1.01,-5.57 1.02,-6.65 1.01,-5.93 1.02,-3.58 1.01,-0.26 1.02,3.15 1.01,5.74 1.02,6.82 1.01,6.09 1.02,3.75 1.01,0.43 1.02,-2.98 1.01,-5.58 1.02,-6.65 1.01,-5.92 1.02,-3.59 1.01,-0.26 1.02,3.15"
           style="fill:none;stroke:#ff0000;stroke-width:0.75;stroke-linecap:round;stroke-linejoin:round;stroke-miterlimit:10;stroke-dasharray:none;stroke-opacity:1"
           id="path276" />
        <path
           d="m 77.07,110.28 1.01,0.04 1.02,0.05 1.01,0.04 1.02,0.05 1.01,0.04 1.02,0.05 1.01,0.04 1.02,0.05 1.01,0.04 1.02,0.05 1.01,0.04 1.02,0.05 1.01,0.04 1.02,0.05 1.01,0.04 1.02,0.05 1.01,0.04 1.02,0.05 1.01,0.04 1.02,0.05 1.01,0.04 1.02,0.05 1.01,0.05 1.02,0.04 1.01,0.05 1.02,0.04 1.01,0.05 1.02,0.05 1.01,0.04 1.02,0.05 1.01,0.05 1.02,0.04 1.01,0.05 1.02,0.05 1.01,0.05 1.02,0.04 1.01,0.05 1.02,0.05 1.01,0.05 1.02,0.05 1.01,0.04 1.02,0.05 1.01,0.05 1.02,0.05 1.01,0.05 1.02,0.05 1.01,0.05 1.02,0.05 1.01,0.05 1.02,0.05 1.01,0.05 1.02,0.05 1.01,0.05 1.02,0.05 1.01,0.05 1.02,0.05 1.01,0.06 1.02,0.05 1.01,0.05 1.02,0.05 1.01,0.06 1.02,0.05 1.01,0.05 1.02,0.06 1.01,0.05 1.02,0.06 1.01,0.05 1.02,0.06 1.01,0.05 1.02,0.06 1.01,0.06 1.02,0.05 1.01,0.06 1.02,0.06 1.01,0.06 1.02,0.06 1.01,0.06 1.02,0.06 1.01,0.06 1.02,0.06 1.01,0.07 1.02,0.06 1.01,0.06 1.02,0.07 1.01,0.06 1.02,0.07 1.01,0.06 1.02,0.07 1.01,0.07 1.02,0.07 1.01,0.07 1.02,0.07 1.01,0.07 1.02,0.07 1.01,0.08 1.02,0.07 1.01,0.07 1.02,0.08 1.01,0.08 1.02,0.07 1.01,0.08 1.02,0.08 1.01,0.08 1.02,0.08 1.01,0.09 1.02,0.08 1.01,0.08 1.02,0.09 1.01,0.08 1.02,0.09 1.01,0.09 1.02,0.09 1.01,0.09 1.02,0.09 1.01,0.09 1.02,0.09 1.01,0.1 1.02,0.09 1.01,0.1 1.02,0.09 1.01,0.1 1.02,0.1 1.01,0.1 1.02,0.1 1.01,0.1 1.02,0.1 1.01,0.1 1.02,0.1 1.01,0.1 1.02,0.11 1.01,0.1 1.02,0.11 1.01,0.1 1.02,0.11 1.01,0.11 1.02,0.1 1.01,0.11 1.02,0.11 1.01,0.11 1.02,0.11 1.01,0.11 1.02,0.11 1.01,0.11 1.02,0.11 1.01,0.11 1.02,0.11 1.01,0.12 1.02,0.11 1.01,0.11 1.02,0.12 1.01,0.11 1.02,0.12 1.01,0.11 1.02,0.11 1.01,0.12 1.02,0.12 1.01,0.11 1.02,0.12 1.01,0.11 1.02,0.12 1.01,0.12 1.02,0.12 1.01,0.11 1.02,0.12 1.01,0.12 1.02,0.12 1.01,0.11 1.02,0.12 1.01,0.12 1.02,0.12 1.01,0.12 1.02,0.12 1.01,0.12 1.02,0.12 1.01,0.12 1.02,0.12 1.01,0.12 1.02,0.12 1.01,0.12 1.02,0.12 1.01,0.12 1.02,0.12 1.01,0.12 1.02,0.12 1.01,0.12 1.02,0.12 1.01,0.13 1.02,0.12 1.01,0.12 1.02,0.12 1.01,0.12 1.02,0.12 1.01,0.13 1.02,0.12 1.01,0.12 1.02,0.12 1.01,0.12 1.02,0.13 1.01,0.12 1.02,0.12 1.01,0.12 1.02,0.13 1.01,0.12 1.02,0.12 1.01,0.12 1.02,0.13 1.01,0.12 1.02,0.12 1.01,0.13 1.02,0.12 1.01,0.12 1.02,0.13 1.01,0.12 1.02,0.12 1.01,0.13 1.02,0.12 1.01,0.12 1.02,0.13 1.01,0.12 1.02,0.12 1.01,0.13 1.02,0.12 1.02,0.13 1.01,0.12 1.02,0.12 1.01,0.13 1.02,0.12 1.01,0.13 1.02,0.12 1.01,0.12 1.02,0.13 1.01,0.12 1.02,0.13 1.01,0.12 1.02,0.13 1.01,0.12 1.02,0.12 1.01,0.13 1.02,0.12 1.01,0.13 1.02,0.12 1.01,0.13 1.02,0.12 1.01,0.13 1.02,0.12 1.01,0.13 1.02,0.12 1.01,0.12 1.02,0.13 1.01,0.12 1.02,0.13 1.01,0.12 1.02,0.13 1.01,0.12 1.02,0.13 1.01,0.12 1.02,0.13 1.01,0.12 1.02,0.13 1.01,0.12 1.02,0.13 1.01,0.12 1.02,0.13 1.01,0.12 1.02,0.13 1.01,0.12 1.02,0.13 1.01,0.12 1.02,0.13 1.01,0.12 1.02,0.13 1.01,0.12 1.02,0.13 1.01,0.12 1.02,0.13 1.01,0.13 1.02,0.12 1.01,0.13 1.02,0.12 1.01,0.13 1.02,0.12 1.01,0.13 1.02,0.12 1.01,0.13 1.02,0.12 1.01,0.13 1.02,0.12 1.01,0.13 1.02,0.13 1.01,0.12 1.02,0.13 1.01,0.12 1.02,0.13 1.01,0.12 1.02,0.13 1.01,0.12 1.02,0.13 1.01,0.12 1.02,0.13 1.01,0.13 1.02,0.12 1.01,0.13 1.02,0.12 1.01,0.13 1.02,0.12 1.01,0.13 1.02,0.13 1.01,0.12 1.02,0.13 1.01,0.12 1.02,0.13 1.01,0.12 1.02,0.13 1.01,0.13 1.02,0.12 1.01,0.13 1.02,0.12 1.01,0.13 1.02,0.12 1.01,0.13 1.02,0.13 1.01,0.12 1.02,0.13 1.01,0.12 1.02,0.13 1.01,0.12 1.02,0.13 1.01,0.13 1.02,0.12 1.01,0.13 1.02,0.12 1.01,0.13 1.02,0.13 1.01,0.12 1.02,0.13 1.01,0.12 1.02,0.13 1.01,0.13 1.02,0.12 1.01,0.13 1.02,0.12 1.01,0.13 1.02,0.13 1.01,0.12 1.02,0.13 1.01,0.12 1.02,0.13 1.01,0.12 1.02,0.13 1.01,0.13 1.02,0.12 1.01,0.13 1.02,0.12 1.01,0.13 1.02,0.13 1.01,0.12 1.02,0.13 1.01,0.13 1.02,0.12 1.01,0.13 1.02,0.12 1.01,0.13 1.02,0.13 1.01,0.12 1.02,0.13 1.01,0.12 1.02,0.13 1.01,0.13 1.02,0.12 1.01,0.13 1.02,0.12 1.01,0.13 1.02,0.13 1.01,0.12 1.02,0.13 1.01,0.12 1.02,0.13 1.01,0.13 1.02,0.12 1.01,0.13 1.02,0.13 1.01,0.12 1.02,0.13 1.01,0.12 1.02,0.13 1.01,0.13 1.02,0.12 1.01,0.13 1.02,0.12 1.01,0.13 1.02,0.13 1.01,0.12 1.02,0.13 1.01,0.13 1.02,0.12 1.01,0.13 1.02,0.12 1.01,0.13 1.02,0.13 1.01,0.12 1.02,0.13 1.01,0.12 1.02,0.13 1.01,0.13 1.02,0.12 1.01,0.13 1.02,0.13 1.01,0.12 1.02,0.13 1.01,0.12 1.02,0.13 1.01,0.13 1.02,0.12 1.01,0.13 1.02,0.13 1.01,0.12 1.02,0.13 1.01,0.12 1.02,0.13 1.01,0.13 1.02,0.12 1.01,0.13 1.02,0.13 1.01,0.12 1.02,0.13 1.01,0.12 1.02,0.13 1.01,0.13 1.02,0.12 1.01,0.13 1.02,0.13 1.01,0.12 1.02,0.13 1.01,0.13 1.02,0.12 1.01,0.13 1.02,0.12 1.01,0.13 1.02,0.13 1.01,0.12 1.02,0.13 1.01,0.13 1.02,0.12 v -29.15 l -1.02,-0.04 -1.01,-0.04 -1.02,-0.04 -1.01,-0.04 -1.02,-0.05 -1.01,-0.04 -1.02,-0.04 -1.01,-0.04 -1.02,-0.04 -1.01,-0.04 -1.02,-0.04 -1.01,-0.04 -1.02,-0.05 -1.01,-0.04 -1.02,-0.04 -1.01,-0.04 -1.02,-0.04 -1.01,-0.04 -1.02,-0.04 -1.01,-0.04 -1.02,-0.05 -1.01,-0.04 -1.02,-0.04 -1.01,-0.04 -1.02,-0.04 -1.01,-0.04 -1.02,-0.04 -1.01,-0.05 -1.02,-0.04 -1.01,-0.04 -1.02,-0.04 -1.01,-0.04 -1.02,-0.04 -1.01,-0.04 -1.02,-0.04 -1.01,-0.05 -1.02,-0.04 -1.01,-0.04 -1.02,-0.04 -1.01,-0.04 -1.02,-0.04 -1.01,-0.04 -1.02,-0.05 -1.01,-0.04 -1.02,-0.04 -1.01,-0.04 -1.02,-0.04 -1.01,-0.04 -1.02,-0.04 -1.01,-0.05 -1.02,-0.04 -1.01,-0.04 -1.02,-0.04 -1.01,-0.04 -1.02,-0.04 -1.01,-0.04 -1.02,-0.05 -1.01,-0.04 -1.02,-0.04 -1.01,-0.04 -1.02,-0.04 -1.01,-0.04 -1.02,-0.04 -1.01,-0.05 -1.02,-0.04 -1.01,-0.04 -1.02,-0.04 -1.01,-0.04 -1.02,-0.04 -1.01,-0.04 -1.02,-0.05 -1.01,-0.04 -1.02,-0.04 -1.01,-0.04 -1.02,-0.04 -1.01,-0.04 -1.02,-0.05 -1.01,-0.04 -1.02,-0.04 -1.01,-0.04 -1.02,-0.04 -1.01,-0.04 -1.02,-0.04 -1.01,-0.05 -1.02,-0.04 -1.01,-0.04 -1.02,-0.04 -1.01,-0.04 -1.02,-0.04 -1.01,-0.05 -1.02,-0.04 -1.01,-0.04 -1.02,-0.04 -1.01,-0.04 -1.02,-0.04 -1.01,-0.05 -1.02,-0.04 -1.01,-0.04 -1.02,-0.04 -1.01,-0.04 -1.02,-0.04 -1.01,-0.05 -1.02,-0.04 -1.01,-0.04 -1.02,-0.04 -1.01,-0.04 -1.02,-0.04 -1.01,-0.05 -1.02,-0.04 -1.01,-0.04 -1.02,-0.04 -1.01,-0.04 -1.02,-0.04 -1.01,-0.05 -1.02,-0.04 -1.01,-0.04 -1.02,-0.04 -1.01,-0.04 -1.02,-0.04 -1.01,-0.05 -1.02,-0.04 -1.01,-0.04 -1.02,-0.04 -1.01,-0.04 -1.02,-0.05 -1.01,-0.04 -1.02,-0.04 -1.01,-0.04 -1.02,-0.04 -1.01,-0.04 -1.02,-0.05 -1.01,-0.04 -1.02,-0.04 -1.01,-0.04 -1.02,-0.04 -1.01,-0.05 -1.02,-0.04 -1.01,-0.04 -1.02,-0.04 -1.01,-0.04 -1.02,-0.05 -1.01,-0.04 -1.02,-0.04 -1.01,-0.04 -1.02,-0.04 -1.01,-0.05 -1.02,-0.04 -1.01,-0.04 -1.02,-0.04 -1.01,-0.04 -1.02,-0.05 -1.01,-0.04 -1.02,-0.04 -1.01,-0.04 -1.02,-0.04 -1.01,-0.05 -1.02,-0.04 -1.01,-0.04 -1.02,-0.04 -1.01,-0.05 -1.02,-0.04 -1.01,-0.04 -1.02,-0.04 -1.01,-0.04 -1.02,-0.05 -1.01,-0.04 -1.02,-0.04 -1.01,-0.04 -1.02,-0.05 -1.01,-0.04 -1.02,-0.04 -1.01,-0.04 -1.02,-0.05 -1.01,-0.04 -1.02,-0.04 -1.01,-0.04 -1.02,-0.05 -1.01,-0.04 -1.02,-0.04 -1.01,-0.04 -1.02,-0.05 -1.01,-0.04 -1.02,-0.04 -1.01,-0.04 -1.02,-0.05 -1.01,-0.04 -1.02,-0.04 -1.01,-0.04 -1.02,-0.05 -1.01,-0.04 -1.02,-0.04 -1.01,-0.05 -1.02,-0.04 -1.01,-0.04 -1.02,-0.04 -1.01,-0.05 -1.02,-0.04 -1.01,-0.04 -1.02,-0.05 -1.01,-0.04 -1.02,-0.04 -1.01,-0.04 -1.02,-0.05 -1.01,-0.04 -1.02,-0.04 -1.01,-0.05 -1.02,-0.04 -1.01,-0.04 -1.02,-0.05 -1.01,-0.04 -1.02,-0.04 -1.01,-0.05 -1.02,-0.04 -1.01,-0.04 -1.02,-0.05 -1.01,-0.04 -1.02,-0.04 -1.01,-0.05 -1.02,-0.04 -1.01,-0.05 -1.02,-0.04 -1.02,-0.04 -1.01,-0.05 -1.02,-0.04 -1.01,-0.04 -1.02,-0.05 -1.01,-0.04 -1.02,-0.05 -1.01,-0.04 -1.02,-0.04 -1.01,-0.05 -1.02,-0.04 -1.01,-0.05 -1.02,-0.04 -1.01,-0.05 -1.02,-0.04 -1.01,-0.05 -1.02,-0.04 -1.01,-0.05 -1.02,-0.04 -1.01,-0.04 -1.02,-0.05 -1.01,-0.04 -1.02,-0.05 -1.01,-0.05 -1.02,-0.04 -1.01,-0.05 -1.02,-0.04 -1.01,-0.05 -1.02,-0.04 -1.01,-0.05 -1.02,-0.04 -1.01,-0.05 -1.02,-0.05 -1.01,-0.04 -1.02,-0.05 -1.01,-0.04 -1.02,-0.05 -1.01,-0.05 -1.02,-0.04 -1.01,-0.05 -1.02,-0.05 -1.01,-0.04 -1.02,-0.05 -1.01,-0.05 -1.02,-0.05 -1.01,-0.04 -1.02,-0.05 -1.01,-0.05 -1.02,-0.05 -1.01,-0.05 -1.02,-0.04 -1.01,-0.05 -1.02,-0.05 -1.01,-0.05 -1.02,-0.05 -1.01,-0.05 -1.02,-0.05 -1.01,-0.05 -1.02,-0.05 -1.01,-0.05 -1.02,-0.05 -1.01,-0.05 -1.02,-0.05 -1.01,-0.05 -1.02,-0.05 -1.01,-0.05 -1.02,-0.06 -1.01,-0.05 -1.02,-0.05 -1.01,-0.05 -1.02,-0.06 -1.01,-0.05 -1.02,-0.05 -1.01,-0.06 -1.02,-0.05 -1.01,-0.06 -1.02,-0.05 -1.01,-0.06 -1.02,-0.06 -1.01,-0.05 -1.02,-0.06 -1.01,-0.06 -1.02,-0.06 -1.01,-0.05 -1.02,-0.06 -1.01,-0.06 -1.02,-0.06 -1.01,-0.06 -1.02,-0.07 -1.01,-0.06 -1.02,-0.06 -1.01,-0.06 -1.02,-0.07 -1.01,-0.06 -1.02,-0.07 -1.01,-0.06 -1.02,-0.07 -1.01,-0.07 -1.02,-0.07 -1.01,-0.06 -1.02,-0.07 -1.01,-0.07 -1.02,-0.08 -1.01,-0.07 -1.02,-0.07 -1.01,-0.08 -1.02,-0.07 -1.01,-0.08 -1.02,-0.07 -1.01,-0.08 -1.02,-0.08 -1.01,-0.08 -1.02,-0.08 -1.01,-0.08 -1.02,-0.08 -1.01,-0.09 -1.02,-0.08 -1.01,-0.09 -1.02,-0.08 -1.01,-0.09 -1.02,-0.09 -1.01,-0.09 -1.02,-0.09 -1.01,-0.09 -1.02,-0.09 -1.01,-0.09 -1.02,-0.1 -1.01,-0.09 -1.02,-0.1 -1.01,-0.09 -1.02,-0.1 -1.01,-0.1 -1.02,-0.1 -1.01,-0.1 -1.02,-0.1 -1.01,-0.1 -1.02,-0.1 -1.01,-0.1 -1.02,-0.11 -1.01,-0.1 -1.02,-0.1 -1.01,-0.11 -1.02,-0.11 -1.01,-0.1 -1.02,-0.11 -1.01,-0.11 -1.02,-0.1 -1.01,-0.11 -1.02,-0.11 -1.01,-0.11 -1.02,-0.11 -1.01,-0.11 -1.02,-0.11 -1.01,-0.11 -1.02,-0.12 -1.01,-0.11 -1.02,-0.11 -1.01,-0.11 -1.02,-0.12 -1.01,-0.11 -1.02,-0.12 -1.01,-0.11 -1.02,-0.12 -1.01,-0.11 -1.02,-0.12 -1.01,-0.11 -1.02,-0.12 -1.01,-0.11 -1.02,-0.12 -1.01,-0.12 -1.02,-0.11 -1.01,-0.12 -1.02,-0.12 -1.01,-0.12 -1.02,-0.11 -1.01,-0.12 -1.02,-0.12 -1.01,-0.12 -1.02,-0.12 -1.01,-0.12 -1.02,-0.12 -1.01,-0.12 -1.02,-0.12 -1.01,-0.11 -1.02,-0.12 -1.01,-0.12 -1.02,-0.12 -1.01,-0.12 -1.02,-0.13 -1.01,-0.12 -1.02,-0.12 -1.01,-0.12 -1.02,-0.12 -1.01,-0.12 -1.02,-0.12 -1.01,-0.12 -1.02,-0.12 -1.01,-0.12 -1.02,-0.13 -1.01,-0.12 -1.02,-0.12 -1.01,-0.12 -1.02,-0.12 -1.01,-0.12 -1.02,-0.13 -1.01,-0.12 -1.02,-0.12 -1.01,-0.12 -1.02,-0.13 -1.01,-0.12 -1.02,-0.12 -1.01,-0.12 -1.02,-0.13 -1.01,-0.12 -1.02,-0.12 -1.01,-0.13 -1.02,-0.12 -1.01,-0.12 -1.02,-0.12 -1.01,-0.13 -1.02,-0.12 -1.01,-0.12 z"
           style="fill:#bebebe;fill-opacity:0.302;fill-rule:nonzero;stroke:none"
           id="path278" />
        <path
           d="m 77.07,105.34 1.01,0.09 1.02,0.08 1.01,0.08 1.02,0.09 1.01,0.08 1.02,0.09 1.01,0.08 1.02,0.08 1.01,0.09 1.02,0.08 1.01,0.08 1.02,0.09 1.01,0.08 1.02,0.09 1.01,0.08 1.02,0.08 1.01,0.09 1.02,0.08 1.01,0.09 1.02,0.08 1.01,0.08 1.02,0.09 1.01,0.08 1.02,0.08 1.01,0.09 1.02,0.08 1.01,0.09 1.02,0.08 1.01,0.08 1.02,0.09 1.01,0.08 1.02,0.08 1.01,0.09 1.02,0.08 1.01,0.09 1.02,0.08 1.01,0.08 1.02,0.09 1.01,0.08 1.02,0.08 1.01,0.09 1.02,0.08 1.01,0.09 1.02,0.08 1.01,0.08 1.02,0.09 1.01,0.08 1.02,0.09 1.01,0.08 1.02,0.08 1.01,0.09 1.02,0.08 1.01,0.08 1.02,0.09 1.01,0.08 1.02,0.09 1.01,0.08 1.02,0.08 1.01,0.09 1.02,0.08 1.01,0.08 1.02,0.09 1.01,0.08 1.02,0.09 1.01,0.08 1.02,0.08 1.01,0.09 1.02,0.08 1.01,0.09 1.02,0.08 1.01,0.08 1.02,0.09 1.01,0.08 1.02,0.08 1.01,0.09 1.02,0.08 1.01,0.09 1.02,0.08 1.01,0.08 1.02,0.09 1.01,0.08 1.02,0.08 1.01,0.09 1.02,0.08 1.01,0.09 1.02,0.08 1.01,0.08 1.02,0.09 1.01,0.08 1.02,0.08 1.01,0.09 1.02,0.08 1.01,0.09 1.02,0.08 1.01,0.08 1.02,0.09 1.01,0.08 1.02,0.09 1.01,0.08 1.02,0.08 1.01,0.09 1.02,0.08 1.01,0.08 1.02,0.09 1.01,0.08 1.02,0.09 1.01,0.08 1.02,0.08 1.01,0.09 1.02,0.08 1.01,0.08 1.02,0.09 1.01,0.08 1.02,0.09 1.01,0.08 1.02,0.08 1.01,0.09 1.02,0.08 1.01,0.09 1.02,0.08 1.01,0.08 1.02,0.09 1.01,0.08 1.02,0.08 1.01,0.09 1.02,0.08 1.01,0.09 1.02,0.08 1.01,0.08 1.02,0.09 1.01,0.08 1.02,0.08 1.01,0.09 1.02,0.08 1.01,0.09 1.02,0.08 1.01,0.08 1.02,0.09 1.01,0.08 1.02,0.08 1.01,0.09 1.02,0.08 1.01,0.09 1.02,0.08 1.01,0.08 1.02,0.09 1.01,0.08 1.02,0.09 1.01,0.08 1.02,0.08 1.01,0.09 1.02,0.08 1.01,0.08 1.02,0.09 1.01,0.08 1.02,0.09 1.01,0.08 1.02,0.08 1.01,0.09 1.02,0.08 1.01,0.08 1.02,0.09 1.01,0.08 1.02,0.09 1.01,0.08 1.02,0.08 1.01,0.09 1.02,0.08 1.01,0.09 1.02,0.08 1.01,0.08 1.02,0.09 1.01,0.08 1.02,0.08 1.01,0.09 1.02,0.08 1.01,0.09 1.02,0.08 1.01,0.08 1.02,0.09 1.01,0.08 1.02,0.08 1.01,0.09 1.02,0.08 1.01,0.09 1.02,0.08 1.01,0.08 1.02,0.09 1.01,0.08 1.02,0.09 1.01,0.08 1.02,0.08 1.01,0.09 1.02,0.08 1.01,0.08 1.02,0.09 1.01,0.08 1.02,0.09 1.01,0.08 1.02,0.08 1.01,0.09 1.02,0.08 1.01,0.08 1.02,0.09 1.01,0.08 1.02,0.09 1.01,0.08 1.02,0.08 1.01,0.09 1.02,0.08 1.01,0.08 1.02,0.09 1.01,0.08 1.02,0.09 1.01,0.08 1.02,0.08 1.01,0.09 1.02,0.08 1.01,0.09 1.02,0.08 1.01,0.08 1.02,0.09 1.02,0.08 1.01,0.08 1.02,0.09 1.01,0.08 1.02,0.09 1.01,0.08 1.02,0.08 1.01,0.09 1.02,0.08 1.01,0.08 1.02,0.09 1.01,0.08 1.02,0.09 1.01,0.08 1.02,0.08 1.01,0.09 1.02,0.08 1.01,0.09 1.02,0.08 1.01,0.08 1.02,0.09 1.01,0.08 1.02,0.08 1.01,0.09 1.02,0.08 1.01,0.09 1.02,0.08 1.01,0.08 1.02,0.09 1.01,0.08 1.02,0.08 1.01,0.09 1.02,0.08 1.01,0.09 1.02,0.08 1.01,0.08 1.02,0.09 1.01,0.08 1.02,0.08 1.01,0.09 1.02,0.08 1.01,0.09 1.02,0.08 1.01,0.08 1.02,0.09 1.01,0.08 1.02,0.09 1.01,0.08 1.02,0.08 1.01,0.09 1.02,0.08 1.01,0.08 1.02,0.09 1.01,0.08 1.02,0.09 1.01,0.08 1.02,0.08 1.01,0.09 1.02,0.08 1.01,0.08 1.02,0.09 1.01,0.08 1.02,0.09 1.01,0.08 1.02,0.08 1.01,0.09 1.02,0.08 1.01,0.09 1.02,0.08 1.01,0.08 1.02,0.09 1.01,0.08 1.02,0.08 1.01,0.09 1.02,0.08 1.01,0.09 1.02,0.08 1.01,0.08 1.02,0.09 1.01,0.08 1.02,0.08 1.01,0.09 1.02,0.08 1.01,0.09 1.02,0.08 1.01,0.08 1.02,0.09 1.01,0.08 1.02,0.08 1.01,0.09 1.02,0.08 1.01,0.09 1.02,0.08 1.01,0.08 1.02,0.09 1.01,0.08 1.02,0.09 1.01,0.08 1.02,0.08 1.01,0.09 1.02,0.08 1.01,0.08 1.02,0.09 1.01,0.08 1.02,0.09 1.01,0.08 1.02,0.08 1.01,0.09 1.02,0.08 1.01,0.08 1.02,0.09 1.01,0.08 1.02,0.09 1.01,0.08 1.02,0.08 1.01,0.09 1.02,0.08 1.01,0.09 1.02,0.08 1.01,0.08 1.02,0.09 1.01,0.08 1.02,0.08 1.01,0.09 1.02,0.08 1.01,0.09 1.02,0.08 1.01,0.08 1.02,0.09 1.01,0.08 1.02,0.08 1.01,0.09 1.02,0.08 1.01,0.09 1.02,0.08 1.01,0.08 1.02,0.09 1.01,0.08 1.02,0.08 1.01,0.09 1.02,0.08 1.01,0.09 1.02,0.08 1.01,0.08 1.02,0.09 1.01,0.08 1.02,0.09 1.01,0.08 1.02,0.08 1.01,0.09 1.02,0.08 1.01,0.08 1.02,0.09 1.01,0.08 1.02,0.09 1.01,0.08 1.02,0.08 1.01,0.09 1.02,0.08 1.01,0.08 1.02,0.09 1.01,0.08 1.02,0.09 1.01,0.08 1.02,0.08 1.01,0.09 1.02,0.08 1.01,0.09 1.02,0.08 1.01,0.08 1.02,0.09 1.01,0.08 1.02,0.08 1.01,0.09 1.02,0.08 1.01,0.09 1.02,0.08 1.01,0.08 1.02,0.09 1.01,0.08 1.02,0.08 1.01,0.09 1.02,0.08 1.01,0.09 1.02,0.08 1.01,0.08 1.02,0.09 1.01,0.08 1.02,0.08 1.01,0.09 1.02,0.08 1.01,0.09 1.02,0.08 1.01,0.08 1.02,0.09 1.01,0.08 1.02,0.09 1.01,0.08 1.02,0.08 1.01,0.09 1.02,0.08 1.01,0.08 1.02,0.09 1.01,0.08 1.02,0.09 1.01,0.08 1.02,0.08 1.01,0.09 1.02,0.08 1.01,0.08 1.02,0.09 1.01,0.08 1.02,0.09 1.01,0.08 1.02,0.08 1.01,0.09 1.02,0.08 1.01,0.09 1.02,0.08 1.01,0.08 1.02,0.09"
           style="fill:none;stroke:#01ff00;stroke-width:0.75;stroke-linecap:round;stroke-linejoin:round;stroke-miterlimit:10;stroke-dasharray:none;stroke-opacity:1"
           id="path280" />
      </g>
    </g>
    <g
       id="g282"
       style="fill:#ffffff;fill-opacity:1">
      <text
         xml:space="preserve"
         transform="matrix(0,1,1,0,20.16,83.55)"
         style="font-variant:normal;font-weight:normal;font-size:11px;font-family:Helvetica;-inkscape-font-specification:Helvetica;writing-mode:lr-tb;fill:#ffffff;fill-opacity:1;fill-rule:nonzero;stroke:none"
         id="text286"><tspan
           x="0 8.5579996 15.895 22.011 29.348 32.405998 36.069 45.231998"
           y="0"
           sodipodi:role="line"
           id="tspan284">GSLA (m)</tspan></text>
    </g>
  </g>
</svg>
