<svg xmlns="http://www.w3.org/2000/svg" viewBox="0 0 29.61 29.61"><defs><style>.cls-1{fill:#00479b;}.cls-2{fill:#fff;}</style></defs><g id="图层_2" data-name="图层 2"><g id="图层_1-2" data-name="图层 1"><circle class="cls-1" cx="14.81" cy="14.81" r="14.81"/><polygon class="cls-2" points="16.95 18.11 10.13 18.11 14.87 4.65 16.28 5.15 12.23 16.63 16.95 16.63 16.95 18.11"/><path class="cls-2" d="M24,10.38l0,0a4.08,4.08,0,1,0-1.55,4.62l-1.19,3.53c-.78,2.31-1.78,3.72-3.15,4.41a6.33,6.33,0,0,1-6.17-.25,7.23,7.23,0,0,1-2.6-3.38l-1.4.49A8.59,8.59,0,0,0,11.09,24a7.11,7.11,0,0,0,4.09,1.2,8.14,8.14,0,0,0,3.61-.84c2.28-1.16,3.31-3.56,3.88-5.27l2.76-8.2Zm-3.9,3.91a2.6,2.6,0,1,1,2.59-2.59A2.59,2.59,0,0,1,20.12,14.29Z"/><polygon class="cls-2" points="4.75 14.36 4.19 12.99 8.84 11.07 4.45 8.61 5.18 7.31 12.25 11.28 4.75 14.36"/></g></g></svg>