<?xml version="1.0" encoding="UTF-8" standalone="no"?>
<svg
  width="18.918352mm"
  height="15.238515mm"
  viewBox="0 0 18.918352 15.238515"
  version="1.1"
  xml:space="preserve"
  xmlns:inkscape="http://www.inkscape.org/namespaces/inkscape"
  xmlns:sodipodi="http://sodipodi.sourceforge.net/DTD/sodipodi-0.dtd"
  xmlns="http://www.w3.org/2000/svg">
  <rect width="100%" height="100%" fill="#000000" rx="3" ry="3"/>
  <g transform="translate(1.8918352,1.8918352) scale(0.8)">
  <sodipodi:namedview
    showgrid="false"/><g
    transform="translate(-34.13665,-75.262883)"><path
      style="fill:#ffffff;stroke-width:0.123051"
      d="m 40.824598,90.394093 c -0.04798,-0.0776 0.07817,-0.31379 0.282799,-0.52943 0.356815,-0.376 0.409021,-0.48734 0.572044,-1.21987 l 0.07531,-0.33839 -3.601583,-0.002 c -2.053245,-10e-4 -3.680933,-0.052 -3.786159,-0.11851 -0.159261,-0.10063 -0.189258,-0.95493 -0.218717,-6.22863 -0.0299,-5.35267 -0.01043,-6.14818 0.15665,-6.40319 l 0.190792,-0.29119 h 9.100092 9.100092 l 0.190792,0.29119 c 0.167087,0.25501 0.186549,1.05052 0.15665,6.40319 -0.02946,5.2737 -0.05946,6.128 -0.218717,6.22863 -0.105026,0.0664 -1.709279,0.11743 -3.722289,0.1185 -3.415355,0.002 -3.537714,0.0101 -3.537714,0.23998 0,0.40854 0.245865,0.915 0.645154,1.32896 0.211176,0.21894 0.341711,0.44043 0.290075,0.49221 -0.16122,0.16165 -5.576168,0.18878 -5.675267,0.0284 z m 3.078851,-2.94905 c 0,-0.22552 -0.07404,-0.31814 -0.277414,-0.34702 -0.30235,-0.0429 -0.474073,0.22095 -0.351555,0.54023 0.04447,0.11589 0.185156,0.17744 0.351555,0.15381 0.20337,-0.0289 0.277414,-0.1215 0.277414,-0.34702 z m 8.305936,-6.5217 v -4.92203 h -8.675088 -8.675088 v 4.92203 4.92204 h 8.675088 8.675088 z m -9.474919,2.13527 c 0,-0.0438 0.252331,-0.94361 0.560735,-1.99957 0.308405,-1.05597 0.589002,-2.01684 0.623547,-2.13527 0.03625,-0.12428 0.182219,-0.21534 0.345181,-0.21534 0.281606,0 0.280669,0.006 -0.346682,2.21254 -0.575191,2.0231 -0.652758,2.21274 -0.905917,2.21491 -0.152275,10e-4 -0.276864,-0.0335 -0.276864,-0.0773 z m -2.122628,-0.93448 c -1.79052,-0.84562 -1.788345,-0.94746 0.03837,-1.79772 0.748643,-0.34847 1.416969,-0.63357 1.485169,-0.63357 0.0682,0 0.106306,0.11853 0.08468,0.2634 -0.02967,0.19875 -0.288107,0.37242 -1.052901,0.70754 -0.55747,0.24428 -1.019277,0.49723 -1.026241,0.56212 -0.007,0.0649 0.449148,0.31673 1.01358,0.55966 0.79404,0.34175 1.035138,0.50299 1.065562,0.71262 0.05468,0.37676 -0.08942,0.34325 -1.60822,-0.37405 z m 4.337544,0.39373 c 0,-0.19215 0.195385,-0.337 0.830594,-0.61578 0.456826,-0.2005 0.991487,-0.43701 1.188136,-0.52558 l 0.357543,-0.16105 -1.157374,-0.49687 c -0.894334,-0.38394 -1.166311,-0.55697 -1.196694,-0.76131 -0.02163,-0.14544 0.01648,-0.26443 0.08468,-0.26443 0.0682,0 0.736527,0.2851 1.485169,0.63357 1.840511,0.85668 1.839257,0.95474 -0.02315,1.81069 -0.761377,0.34992 -1.425852,0.63528 -1.476611,0.63412 -0.05076,-0.001 -0.09229,-0.11517 -0.09229,-0.25336 z"
      id="path179"
      /></g>
  </g>
</svg>
