<?xml version="1.0" encoding="UTF-8" standalone="no"?>
<!-- Created with Inkscape (http://www.inkscape.org/) -->

<svg
   width="132.01785mm"
   height="15.238515mm"
   viewBox="0 0 132.01785 15.238515"
   version="1.1"
   id="svg5"
   xml:space="preserve"
   xmlns:inkscape="http://www.inkscape.org/namespaces/inkscape"
   xmlns:sodipodi="http://sodipodi.sourceforge.net/DTD/sodipodi-0.dtd"
   xmlns="http://www.w3.org/2000/svg"
   xmlns:svg="http://www.w3.org/2000/svg"><sodipodi:namedview
     id="namedview7"
     pagecolor="#ffffff"
     bordercolor="#000000"
     borderopacity="0.25"
     inkscape:showpageshadow="2"
     inkscape:pageopacity="0.0"
     inkscape:pagecheckerboard="0"
     inkscape:deskcolor="#d1d1d1"
     inkscape:document-units="mm"
     showgrid="false" /><defs
     id="defs2" /><g
     inkscape:label="Layer 1"
     inkscape:groupmode="layer"
     id="layer1"
     transform="translate(-34.13665,-75.262883)"><path
       style="fill:#ffffff;stroke-width:0.123051"
       d="m 40.824598,90.394093 c -0.04798,-0.0776 0.07817,-0.31379 0.282799,-0.52943 0.356815,-0.376 0.409021,-0.48734 0.572044,-1.21987 l 0.07531,-0.33839 -3.601583,-0.002 c -2.053245,-10e-4 -3.680933,-0.052 -3.786159,-0.11851 -0.159261,-0.10063 -0.189258,-0.95493 -0.218717,-6.22863 -0.0299,-5.35267 -0.01043,-6.14818 0.15665,-6.40319 l 0.190792,-0.29119 h 9.100092 9.100092 l 0.190792,0.29119 c 0.167087,0.25501 0.186549,1.05052 0.15665,6.40319 -0.02946,5.2737 -0.05946,6.128 -0.218717,6.22863 -0.105026,0.0664 -1.709279,0.11743 -3.722289,0.1185 -3.415355,0.002 -3.537714,0.0101 -3.537714,0.23998 0,0.40854 0.245865,0.915 0.645154,1.32896 0.211176,0.21894 0.341711,0.44043 0.290075,0.49221 -0.16122,0.16165 -5.576168,0.18878 -5.675267,0.0284 z m 3.078851,-2.94905 c 0,-0.22552 -0.07404,-0.31814 -0.277414,-0.34702 -0.30235,-0.0429 -0.474073,0.22095 -0.351555,0.54023 0.04447,0.11589 0.185156,0.17744 0.351555,0.15381 0.20337,-0.0289 0.277414,-0.1215 0.277414,-0.34702 z m 8.305936,-6.5217 v -4.92203 h -8.675088 -8.675088 v 4.92203 4.92204 h 8.675088 8.675088 z m -9.474919,2.13527 c 0,-0.0438 0.252331,-0.94361 0.560735,-1.99957 0.308405,-1.05597 0.589002,-2.01684 0.623547,-2.13527 0.03625,-0.12428 0.182219,-0.21534 0.345181,-0.21534 0.281606,0 0.280669,0.006 -0.346682,2.21254 -0.575191,2.0231 -0.652758,2.21274 -0.905917,2.21491 -0.152275,10e-4 -0.276864,-0.0335 -0.276864,-0.0773 z m -2.122628,-0.93448 c -1.79052,-0.84562 -1.788345,-0.94746 0.03837,-1.79772 0.748643,-0.34847 1.416969,-0.63357 1.485169,-0.63357 0.0682,0 0.106306,0.11853 0.08468,0.2634 -0.02967,0.19875 -0.288107,0.37242 -1.052901,0.70754 -0.55747,0.24428 -1.019277,0.49723 -1.026241,0.56212 -0.007,0.0649 0.449148,0.31673 1.01358,0.55966 0.79404,0.34175 1.035138,0.50299 1.065562,0.71262 0.05468,0.37676 -0.08942,0.34325 -1.60822,-0.37405 z m 4.337544,0.39373 c 0,-0.19215 0.195385,-0.337 0.830594,-0.61578 0.456826,-0.2005 0.991487,-0.43701 1.188136,-0.52558 l 0.357543,-0.16105 -1.157374,-0.49687 c -0.894334,-0.38394 -1.166311,-0.55697 -1.196694,-0.76131 -0.02163,-0.14544 0.01648,-0.26443 0.08468,-0.26443 0.0682,0 0.736527,0.2851 1.485169,0.63357 1.840511,0.85668 1.839257,0.95474 -0.02315,1.81069 -0.761377,0.34992 -1.425852,0.63528 -1.476611,0.63412 -0.05076,-0.001 -0.09229,-0.11517 -0.09229,-0.25336 z m 76.353078,6.5896 c -0.66376,-0.23269 -1.4675,-1.12876 -1.6451,-1.8341 -0.21027,-0.83505 -0.17962,-8.48276 0.0364,-9.08815 0.23789,-0.66661 0.72537,-1.25335 1.26334,-1.52057 0.41786,-0.20756 0.82439,-0.23659 3.76872,-0.26911 l 3.30033,-0.0365 -0.0395,0.34409 -0.0395,0.34408 -3.19932,0.0615 c -3.45847,0.0665 -3.53022,0.0802 -4.02136,0.76881 l -0.28542,0.40017 v 4.5131 c 0,4.36627 0.008,4.52415 0.2537,4.8529 0.61884,0.82888 0.69196,0.84722 3.3763,0.84722 2.27546,0 2.46627,-0.0174 2.78278,-0.2537 0.81304,-0.60702 0.84722,-0.72993 0.84722,-3.0467 v -2.11384 l -1.66119,-0.0615 -1.66119,-0.0615 v -0.30762 -0.30763 l 2.05802,-0.0337 2.05801,-0.0337 0.0767,0.30543 c 0.0422,0.16798 0.0559,1.29062 0.0305,2.49474 -0.0414,1.9643 -0.0739,2.24184 -0.3161,2.70038 -0.3269,0.61889 -1.04594,1.23537 -1.63064,1.39807 -0.68471,0.19051 -4.76719,0.14312 -5.35272,-0.0621 z m 30.7012,0.0988 c -0.46633,-0.18592 -0.90935,-0.61039 -1.1191,-1.07226 -0.20061,-0.44174 -0.22939,-0.8372 -0.23175,-3.18468 -0.003,-2.92025 0.0484,-3.20317 0.68967,-3.8028 0.54445,-0.50905 0.91848,-0.59232 2.66068,-0.59232 1.94678,0 2.48781,0.18805 2.9858,1.0378 0.30149,0.51447 0.30589,0.56204 0.30589,3.31451 0,3.1437 -0.0501,3.3899 -0.8075,3.96817 -0.46178,0.35258 -0.47544,0.35475 -2.38178,0.37989 -1.05454,0.0139 -2.00039,-0.008 -2.10191,-0.0483 z m 4.19319,-1.01344 0.35969,-0.35968 v -2.85195 -2.85194 l -0.41837,-0.41837 -0.41837,-0.41837 h -1.74733 -1.74732 l -0.41837,0.41837 -0.41838,0.41837 v 2.72752 c 0,3.77806 -0.0633,3.68897 2.6243,3.693 l 1.82446,0.003 0.35969,-0.35968 z m -94.452077,0.74546 c -0.616508,-0.28008 -1.238266,-0.97631 -1.414097,-1.58348 -0.09025,-0.31165 -0.122303,-2.1766 -0.09784,-5.69314 l 0.03638,-5.22966 0.399916,-0.0386 0.399915,-0.0386 v 5.36662 c 0,5.8003 -0.01093,5.69762 0.67474,6.33881 0.328795,0.30746 0.330609,0.30766 3.426353,0.36915 l 3.097384,0.0615 0.03894,0.33839 0.03894,0.33839 -3.053683,-0.003 c -2.687366,-0.002 -3.112854,-0.0296 -3.546942,-0.22679 z m 8.672615,-0.0281 c -0.71567,-0.41518 -1.009586,-0.96741 -1.077414,-2.02431 -0.09677,-1.50796 0.430196,-2.44786 1.546205,-2.75781 0.25169,-0.0699 1.308108,-0.1274 2.347595,-0.12778 l 1.889976,-7.4e-4 -0.04658,-0.92245 c -0.04088,-0.80963 -0.08797,-0.9639 -0.385001,-1.26127 -0.337438,-0.33784 -0.344552,-0.339 -2.458648,-0.40034 l -2.120229,-0.0615 -0.03894,-0.33839 -0.03894,-0.33839 h 2.030502 c 2.163672,0 2.515858,0.0678 3.076849,0.59232 0.660288,0.61737 0.692387,0.82647 0.692387,4.51034 v 3.38785 l -2.49178,-0.003 c -2.284502,-0.003 -2.5279,-0.0238 -2.925988,-0.25472 z m 4.679463,-2.32651 v -1.84577 h -1.974925 c -2.188306,0 -2.551638,0.0925 -2.883502,0.73428 -0.241579,0.46716 -0.243193,1.75269 -0.0028,2.21758 0.357679,0.69168 0.539129,0.73967 2.796728,0.73967 h 2.06448 z m 3.937691,2.44582 c -0.16916,-0.0675 -0.437442,-0.2439 -0.596183,-0.39211 -0.600445,-0.56062 -0.634388,-0.75642 -0.634388,-3.65943 0,-3.10305 0.05752,-3.35252 0.90197,-3.91179 0.474794,-0.31446 0.571946,-0.32907 2.455343,-0.36923 1.187555,-0.0253 2.008995,0.006 2.082706,0.0799 0.06695,0.067 0.0848,0.23804 0.03968,0.38021 -0.07881,0.2483 -0.158947,0.25849 -2.033097,0.25849 h -1.951057 l -0.378619,0.37862 -0.378618,0.37861 v 2.7318 c 0,3.66858 -0.09341,3.54825 2.830171,3.6458 1.862161,0.0621 1.908219,0.0702 1.946609,0.34051 l 0.03932,0.27686 -2.008135,-0.008 c -1.104474,-0.004 -2.146539,-0.063 -2.3157,-0.13044 z m 6.182134,-6.22176 0.03187,-6.37576 0.293711,-0.0415 c 0.161541,-0.0228 0.340654,0.0325 0.398034,0.12305 0.0574,0.0905 0.10517,1.07823 0.1062,2.19492 l 0.002,2.03034 h 2.13221 2.13221 l 0.46525,0.35487 c 0.87368,0.66638 0.92491,0.92704 0.92797,4.72098 l 0.003,3.35313 h -0.36915 -0.36915 v -3.32848 c 0,-4.59044 0.10994,-4.42372 -2.91733,-4.42372 h -2.0012 l -0.0325,3.84534 -0.0325,3.84534 -0.401032,0.0386 -0.401027,0.0386 z m 8.460865,0.33051 v -6.02949 h 0.36915 0.36915 v 6.02949 6.02949 h -0.36915 -0.36915 z m 3.93762,5.942 c -0.90774,-0.34744 -1.34702,-1.1594 -1.35066,-2.49657 -0.003,-1.09187 0.20592,-1.58937 0.90048,-2.14465 l 0.4727,-0.3779 2.20366,-0.0427 2.203659,-0.0427 v -0.66878 c 0,-0.73507 -0.21016,-1.36023 -0.55309,-1.64528 -0.17103,-0.14216 -0.70561,-0.19872 -2.326259,-0.2461 l -2.10421,-0.0615 -0.0389,-0.33839 -0.0389,-0.33839 h 2.04342 c 2.243439,0 2.703369,0.11491 3.252069,0.81246 0.45022,0.57237 0.50981,1.12839 0.47559,4.43814 l -0.0329,3.17839 -2.46102,0.0223 c -1.353559,0.0123 -2.544079,-0.009 -2.645599,-0.0483 z m 4.429839,-2.49657 v -1.84577 h -2.104169 -2.10417 l -0.41838,0.41837 c -0.40777,0.40777 -0.41837,0.44395 -0.41837,1.4274 0,0.98344 0.0106,1.01962 0.41837,1.42739 l 0.41838,0.41837 h 2.10417 2.104169 z m 2.70712,-1.30013 c 0,-3.83782 0.039,-4.25888 0.41833,-4.51215 0.0745,-0.0497 1.14816,-0.0913 2.38598,-0.0923 1.96801,-0.002 2.3079,0.0274 2.70712,0.23112 0.56391,0.28781 0.82286,0.56734 1.0671,1.15187 0.15448,0.36973 0.18927,1.06429 0.18927,3.77931 v 3.32632 h -0.36916 -0.36915 l -4.9e-4,-3.35313 c -6.2e-4,-4.60828 0.13129,-4.4225 -3.10394,-4.37123 l -2.12523,0.0337 -0.0325,3.84534 -0.0325,3.84534 h -0.3674 -0.3674 z m 25.84068,-0.36923 v -4.25343 l 0.33839,0.0389 0.33839,0.0389 0.0324,4.21449 0.0324,4.21449 h -0.37077 -0.37077 z m 3.07628,-2.0837 v -6.33712 h 0.36915 0.36915 v 2.23953 c 0,1.74185 0.0328,2.20671 0.14766,2.09186 0.10253,-0.10253 0.74882,-0.14766 2.11454,-0.14766 2.27197,0 2.79818,0.1534 3.30121,0.96238 0.27203,0.43746 0.28151,0.54802 0.28151,3.28288 0,3.24618 -0.0502,3.43794 -1.03612,3.95931 -0.51461,0.27213 -0.66163,0.28594 -3.04391,0.28594 h -2.50319 z m 5.25174,5.40238 c 0.61036,-0.45366 0.65097,-0.6597 0.65243,-3.31051 0.001,-2.22169 -0.0219,-2.49915 -0.23771,-2.85308 -0.38081,-0.62455 -0.55252,-0.6629 -2.80302,-0.6261 l -2.06361,0.0337 -0.0327,3.54812 -0.0327,3.54812 2.08509,-0.0412 c 1.88785,-0.0373 2.11792,-0.0656 2.43216,-0.29913 z m 3.01487,0.65788 c 0.039,-0.27457 0.0603,-0.27738 2.5739,-0.33839 2.59723,-0.0631 2.72489,-0.0874 3.15653,-0.60197 0.0913,-0.1088 0.15381,-0.53723 0.15381,-1.05351 v -0.87013 l -2.71699,-0.97652 c -1.49434,-0.53709 -2.80945,-1.04416 -2.92246,-1.12683 -0.15886,-0.11621 -0.20396,-0.34295 -0.19882,-0.99963 0.008,-1.05334 0.27526,-1.56189 1.02947,-1.96073 0.50765,-0.26844 0.67554,-0.28594 2.74446,-0.28594 h 2.20373 l -0.0389,0.33839 -0.0389,0.33839 -2.24325,0.0615 c -2.22358,0.061 -2.2461,0.0644 -2.56751,0.38615 -0.26651,0.26682 -0.32424,0.43774 -0.32424,0.95995 0,0.34943 0.0202,0.65173 0.045,0.67178 0.0247,0.02 1.23548,0.46664 2.69055,0.99243 1.45508,0.52579 2.7425,1.04117 2.86094,1.1453 0.33045,0.29051 0.30727,2.15227 -0.0338,2.71163 -0.46881,0.76895 -0.95006,0.8792 -3.8509,0.88226 l -2.56186,0.003 0.0393,-0.27687 z m 17.45102,-3.72229 c 0,-3.83509 0.0101,-4.00925 0.2461,-4.24526 0.22841,-0.2284 0.41017,-0.2461 2.52745,-0.2461 1.99584,0 2.33848,0.0292 2.73788,0.23301 0.56392,0.28781 0.82288,0.56734 1.06711,1.15187 0.15448,0.36973 0.18926,1.06429 0.18926,3.77931 v 3.32632 h -0.36915 -0.36915 v -3.35313 c -0.001,-4.60828 0.13128,-4.4225 -3.10395,-4.37123 l -2.12572,0.0337 -0.0325,3.84534 -0.0325,3.84534 h -0.36739 -0.36741 z m -28.79391,-7.8219 c 0,-0.47328 0.0183,-0.49827 0.33839,-0.46145 0.29379,0.0338 0.34343,0.0998 0.37659,0.50038 0.0365,0.44102 0.0215,0.46144 -0.33839,0.46144 -0.35834,0 -0.37659,-0.0242 -0.37659,-0.50037 z"
       id="path179" /></g></svg>
