<?xml version="1.0" encoding="UTF-8" standalone="no"?>
<!-- Created with Inkscape (http://www.inkscape.org/) -->

<svg
   width="919.19995"
   height="381.19998"
   viewBox="0 0 919.19995 381.19998"
   version="1.1"
   id="svg1"
   xmlns="http://www.w3.org/2000/svg"
   xmlns:svg="http://www.w3.org/2000/svg">
  <defs
     id="defs1" />
  <g
     id="layer1"
     transform="translate(-140.39999,-209.39999)">
    <g
       id="g2"
       transform="translate(-12,-10.4)">
	<path
   d="m 574.4,229.5 c 3.7,0 6.7,3 6.7,6.7 v 59.2 c 0,3.7 -3,6.7 -6.7,6.7 H 409.2 c -3.7,0 -6.7,-3 -6.7,-6.7 v -59.2 c 0,-3.7 3,-6.7 6.7,-6.7 h 165.2 m 0,-9.7 H 409.2 c -9.1,0 -16.4,7.4 -16.4,16.4 v 59.2 c 0,9.1 7.4,16.4 16.4,16.4 h 165.2 c 9.1,0 16.4,-7.4 16.4,-16.4 v -59.2 c 0.1,-9.1 -7.3,-16.4 -16.4,-16.4 z"
   id="path1" />

</g>
    <g
       id="g3"
       transform="translate(-12,-10.4)">
	<circle
   cx="456.20001"
   cy="264.70001"
   r="9.3999996"
   id="circle1" />

	<circle
   cx="491.79999"
   cy="264.70001"
   r="9.3999996"
   id="circle2" />

	<circle
   cx="527.5"
   cy="264.70001"
   r="9.3999996"
   id="circle3" />

</g>
    <!-- dark filled rect (top-left) with punched-out circles -->
    <path
       fill-rule="evenodd"
       d="M 322.1,301.4 H 156.8 c -9.1,0 -16.4,-7.4 -16.4,-16.4 v -59.2 c 0,-9.1 7.4,-16.4 16.4,-16.4 H 322 c 9.1,0 16.4,7.4 16.4,16.4 V 285 c 0.1,9 -7.3,16.4 -16.3,16.4 z M 194.4,254.3 a 9.4,9.4 0 1,0 18.8,0 a 9.4,9.4 0 1,0 -18.8,0 Z M 230.0,254.3 a 9.4,9.4 0 1,0 18.8,0 a 9.4,9.4 0 1,0 -18.8,0 Z M 265.7,254.3 a 9.4,9.4 0 1,0 18.8,0 a 9.4,9.4 0 1,0 -18.8,0 Z"
       id="path3" />
    <g
       id="g7"
       transform="translate(-12,-10.4)">
	<path
   d="m 1055.2,229.5 c 3.7,0 6.7,3 6.7,6.7 v 59.2 c 0,3.7 -3,6.7 -6.7,6.7 H 890 c -3.7,0 -6.7,-3 -6.7,-6.7 v -59.2 c 0,-3.7 3,-6.7 6.7,-6.7 h 165.2 m 0,-9.7 H 890 c -9.1,0 -16.4,7.4 -16.4,16.4 v 59.2 c 0,9.1 7.4,16.4 16.4,16.4 h 165.2 c 9.1,0 16.4,-7.4 16.4,-16.4 v -59.2 c 0,-9.1 -7.3,-16.4 -16.4,-16.4 z"
   id="path6" />

</g>
    <g
       id="g9"
       transform="translate(-12,-10.4)">
	<circle
   cx="936.90002"
   cy="264.70001"
   r="9.3999996"
   id="circle7" />

	<circle
   cx="972.59998"
   cy="264.70001"
   r="9.3999996"
   id="circle8" />

	<circle
   cx="1008.2"
   cy="264.70001"
   r="9.3999996"
   id="circle9" />

</g>
    <!-- dark filled rect (top-right) with punched-out circles -->
    <path
       fill-rule="evenodd"
       d="M 802.8,301.4 H 637.6 c -9.1,0 -16.4,-7.4 -16.4,-16.4 v -59.2 c 0,-9.1 7.4,-16.4 16.4,-16.4 h 165.2 c 9.1,0 16.4,7.4 16.4,16.4 V 285 c 0.1,9 -7.3,16.4 -16.4,16.4 z M 675.1,254.3 a 9.4,9.4 0 1,0 18.8,0 a 9.4,9.4 0 1,0 -18.8,0 Z M 710.8,254.3 a 9.4,9.4 0 1,0 18.8,0 a 9.4,9.4 0 1,0 -18.8,0 Z M 746.5,254.3 a 9.4,9.4 0 1,0 18.8,0 a 9.4,9.4 0 1,0 -18.8,0 Z"
       id="path9" />
    <g
       id="g13"
       transform="translate(-12,-10.4)">
	<path
   d="m 334.1,374.1 c 3.7,0 6.7,3 6.7,6.7 V 440 c 0,3.7 -3,6.7 -6.7,6.7 H 168.8 c -3.7,0 -6.7,-3 -6.7,-6.7 v -59.2 c 0,-3.7 3,-6.7 6.7,-6.7 h 165.3 m 0,-9.7 H 168.8 c -9.1,0 -16.4,7.4 -16.4,16.4 V 440 c 0,9.1 7.4,16.4 16.4,16.4 H 334 c 9.1,0 16.4,-7.4 16.4,-16.4 v -59.2 c 0.1,-9.1 -7.3,-16.4 -16.3,-16.4 z"
   id="path12" />

</g>
    <g
       id="g15"
       transform="translate(-12,-10.4)">
	<circle
   cx="215.8"
   cy="409.29999"
   r="9.3999996"
   id="circle13" />

	<circle
   cx="251.39999"
   cy="409.29999"
   r="9.3999996"
   id="circle14" />

	<circle
   cx="287.10001"
   cy="409.29999"
   r="9.3999996"
   id="circle15" />

</g>
    <!-- dark filled rect (middle, col 2) with punched-out circles -->
    <path
       fill-rule="evenodd"
       d="M 562.4,446 H 397.2 c -9.1,0 -16.4,-7.4 -16.4,-16.4 v -59.2 c 0,-9.1 7.4,-16.4 16.4,-16.4 h 165.2 c 9.1,0 16.4,7.4 16.4,16.4 v 59.2 c 0.1,9.1 -7.3,16.4 -16.4,16.4 z M 434.8,398.9 a 9.4,9.4 0 1,0 18.8,0 a 9.4,9.4 0 1,0 -18.8,0 Z M 470.4,398.9 a 9.4,9.4 0 1,0 18.8,0 a 9.4,9.4 0 1,0 -18.8,0 Z M 506.1,398.9 a 9.4,9.4 0 1,0 18.8,0 a 9.4,9.4 0 1,0 -18.8,0 Z"
       id="path15" />
    <!-- dark filled rect (middle, col 3) with punched-out circles -->
    <path
       fill-rule="evenodd"
       d="M 802.8,446 H 637.6 c -9.1,0 -16.4,-7.4 -16.4,-16.4 v -59.2 c 0,-9.1 7.4,-16.4 16.4,-16.4 h 165.2 c 9.1,0 16.4,7.4 16.4,16.4 v 59.2 c 0.1,9.1 -7.3,16.4 -16.4,16.4 z M 675.1,398.9 a 9.4,9.4 0 1,0 18.8,0 a 9.4,9.4 0 1,0 -18.8,0 Z M 710.8,398.9 a 9.4,9.4 0 1,0 18.8,0 a 9.4,9.4 0 1,0 -18.8,0 Z M 746.5,398.9 a 9.4,9.4 0 1,0 18.8,0 a 9.4,9.4 0 1,0 -18.8,0 Z"
       id="path18" />
    <!-- dark filled rect (middle, col 4) with punched-out circles -->
    <path
       fill-rule="evenodd"
       d="M 1043.2,446 H 878 c -9.1,0 -16.4,-7.4 -16.4,-16.4 v -59.2 c 0,-9.1 7.4,-16.4 16.4,-16.4 h 165.2 c 9.1,0 16.4,7.4 16.4,16.4 v 59.2 c 0,9.1 -7.3,16.4 -16.4,16.4 z M 915.5,398.9 a 9.4,9.4 0 1,0 18.8,0 a 9.4,9.4 0 1,0 -18.8,0 Z M 951.2,398.9 a 9.4,9.4 0 1,0 18.8,0 a 9.4,9.4 0 1,0 -18.8,0 Z M 986.8,398.9 a 9.4,9.4 0 1,0 18.8,0 a 9.4,9.4 0 1,0 -18.8,0 Z"
       id="path21" />
    <g
       id="g25"
       transform="translate(-12,-10.4)">
	<path
   d="m 574.4,518.7 c 3.7,0 6.7,3 6.7,6.7 v 59.2 c 0,3.7 -3,6.7 -6.7,6.7 H 409.2 c -3.7,0 -6.7,-3 -6.7,-6.7 v -59.2 c 0,-3.7 3,-6.7 6.7,-6.7 h 165.2 m 0,-9.7 H 409.2 c -9.1,0 -16.4,7.4 -16.4,16.4 v 59.2 c 0,9.1 7.4,16.4 16.4,16.4 h 165.2 c 9.1,0 16.4,-7.4 16.4,-16.4 v -59.2 c 0.1,-9.1 -7.3,-16.4 -16.4,-16.4 z"
   id="path24" />

</g>
    <g
       id="g27"
       transform="translate(-12,-10.4)">
	<circle
   cx="456.20001"
   cy="553.90002"
   r="9.3999996"
   id="circle25" />

	<circle
   cx="491.79999"
   cy="553.90002"
   r="9.3999996"
   id="circle26" />

	<circle
   cx="527.5"
   cy="553.90002"
   r="9.3999996"
   id="circle27" />

</g>
    <!-- dark filled rect (bottom-left) with punched-out circles -->
    <path
       fill-rule="evenodd"
       d="M 322.1,590.6 H 156.8 c -9.1,0 -16.4,-7.4 -16.4,-16.4 V 515 c 0,-9.1 7.4,-16.4 16.4,-16.4 H 322 c 9.1,0 16.4,7.4 16.4,16.4 v 59.2 c 0.1,9.1 -7.3,16.4 -16.3,16.4 z M 194.4,543.5 a 9.4,9.4 0 1,0 18.8,0 a 9.4,9.4 0 1,0 -18.8,0 Z M 230.0,543.5 a 9.4,9.4 0 1,0 18.8,0 a 9.4,9.4 0 1,0 -18.8,0 Z M 265.7,543.5 a 9.4,9.4 0 1,0 18.8,0 a 9.4,9.4 0 1,0 -18.8,0 Z"
       id="path27" />
    <g
       id="g31"
       transform="translate(-12,-10.4)">
	<path
   d="m 1055.2,518.7 c 3.7,0 6.7,3 6.7,6.7 v 59.2 c 0,3.7 -3,6.7 -6.7,6.7 H 890 c -3.7,0 -6.7,-3 -6.7,-6.7 v -59.2 c 0,-3.7 3,-6.7 6.7,-6.7 h 165.2 m 0,-9.7 H 890 c -9.1,0 -16.4,7.4 -16.4,16.4 v 59.2 c 0,9.1 7.4,16.4 16.4,16.4 h 165.2 c 9.1,0 16.4,-7.4 16.4,-16.4 v -59.2 c 0,-9.1 -7.3,-16.4 -16.4,-16.4 z"
   id="path30" />

</g>
    <g
       id="g33"
       transform="translate(-12,-10.4)">
	<circle
   cx="936.90002"
   cy="553.90002"
   r="9.3999996"
   id="circle31" />

	<circle
   cx="972.59998"
   cy="553.90002"
   r="9.3999996"
   id="circle32" />

	<circle
   cx="1008.2"
   cy="553.90002"
   r="9.3999996"
   id="circle33" />

</g>
    <!-- dark filled rect (bottom-right) with punched-out circles -->
    <path
       fill-rule="evenodd"
       d="M 802.8,590.6 H 637.6 c -9.1,0 -16.4,-7.4 -16.4,-16.4 V 515 c 0,-9.1 7.4,-16.4 16.4,-16.4 h 165.2 c 9.1,0 16.4,7.4 16.4,16.4 v 59.2 c 0.1,9.1 -7.3,16.4 -16.4,16.4 z M 675.1,543.5 a 9.4,9.4 0 1,0 18.8,0 a 9.4,9.4 0 1,0 -18.8,0 Z M 710.8,543.5 a 9.4,9.4 0 1,0 18.8,0 a 9.4,9.4 0 1,0 -18.8,0 Z M 746.5,543.5 a 9.4,9.4 0 1,0 18.8,0 a 9.4,9.4 0 1,0 -18.8,0 Z"
       id="path33" />
  </g>
</svg>
