<?xml version="1.0" encoding="UTF-8" standalone="no"?>
<!-- Created with Inkscape (http://www.inkscape.org/) -->

<svg
   width="713.49329"
   height="439.2533"
   viewBox="0 0 713.49329 439.2533"
   version="1.1"
   id="svg1"
   xml:space="preserve"
   xmlns="http://www.w3.org/2000/svg"
   xmlns:svg="http://www.w3.org/2000/svg"><defs
     id="defs1" /><g
     id="g1"
     transform="translate(4.7807617e-5)"><path
       id="path3"
       d="m 6.6666,19.54665 c 0,-7.10667 5.7666,-12.88 12.88,-12.88 h 121.27996 c 7.10667,0 12.88,5.77333 12.88,12.88 v 51.52 c 0,7.10666 -5.77333,12.88 -12.88,12.88 H 19.5466 c -7.1134,0 -12.88,-5.77334 -12.88,-12.88 z"
       style="fill:#000000;fill-opacity:1;fill-rule:evenodd;stroke:#000000;stroke-width:13.3333;stroke-linecap:butt;stroke-linejoin:miter;stroke-miterlimit:10;stroke-dasharray:none;stroke-opacity:1" /><path
       id="path4"
       d="m 6.6666,135.70664 c 0,-7.10666 5.7666,-12.88 12.88,-12.88 h 121.27996 c 7.10667,0 12.88,5.77334 12.88,12.88 v 51.52 c 0,7.10667 -5.77333,12.88 -12.88,12.88 H 19.5466 c -7.1134,0 -12.88,-5.77333 -12.88,-12.88 z"
       style="fill:#000000;fill-opacity:1;fill-rule:evenodd;stroke:#000000;stroke-width:13.3333;stroke-linecap:butt;stroke-linejoin:miter;stroke-miterlimit:10;stroke-dasharray:none;stroke-opacity:1" /><path
       id="path5"
       d="m 6.6666,251.89331 c 0,-7.13334 5.7786,-12.90667 12.9066,-12.90667 h 121.2267 c 7.13333,0 12.90666,5.77333 12.90666,12.90667 v 51.62666 c 0,7.13334 -5.77333,12.90667 -12.90666,12.90667 H 19.5732 c -7.128,0 -12.9066,-5.77333 -12.9066,-12.90667 z"
       style="fill:#000000;fill-opacity:1;fill-rule:evenodd;stroke:#000000;stroke-width:13.3333;stroke-linecap:butt;stroke-linejoin:miter;stroke-miterlimit:10;stroke-dasharray:none;stroke-opacity:1" /><path
       id="path6"
       d="m 6.6666,368.18664 c 0,-7.10667 5.7666,-12.88 12.88,-12.88 h 121.27996 c 7.10667,0 12.88,5.77333 12.88,12.88 v 51.52 c 0,7.10666 -5.77333,12.88 -12.88,12.88 H 19.5466 c -7.1134,0 -12.88,-5.77334 -12.88,-12.88 z"
       style="fill:#000000;fill-opacity:1;fill-rule:evenodd;stroke:#000000;stroke-width:13.3333;stroke-linecap:butt;stroke-linejoin:miter;stroke-miterlimit:10;stroke-dasharray:none;stroke-opacity:1" /><path
       id="path8"
       d="m 191.14656,19.54665 c 0,-7.10667 5.77333,-12.88 12.88,-12.88 h 121.12 c 7.10666,0 12.88,5.77333 12.88,12.88 v 51.52 c 0,7.10666 -5.77334,12.88 -12.88,12.88 h -121.12 c -7.10667,0 -12.88,-5.77334 -12.88,-12.88 z"
       style="fill:#000000;fill-opacity:1;fill-rule:evenodd;stroke:#000000;stroke-width:13.3333;stroke-linecap:butt;stroke-linejoin:miter;stroke-miterlimit:10;stroke-dasharray:none;stroke-opacity:1" /><path
       id="path9"
       d="m 191.14656,135.70664 c 0,-7.12 5.77333,-12.88 12.88,-12.88 h 121.12 c 7.10666,0 12.88,5.76 12.88,12.88 v 51.52 c 0,7.10667 -5.77334,12.88 -12.88,12.88 h -121.12 c -7.10667,0 -12.88,-5.77333 -12.88,-12.88 z"
       style="fill:#ffffff;fill-opacity:0;fill-rule:evenodd;stroke:#000000;stroke-width:13.3333;stroke-linecap:butt;stroke-linejoin:miter;stroke-miterlimit:10;stroke-dasharray:none;stroke-opacity:1" /><path
       id="path10"
       d="m 191.14656,251.89331 c 0,-7.13334 5.77333,-12.90667 12.90667,-12.90667 h 121.06666 c 7.13333,0 12.90667,5.77333 12.90667,12.90667 v 51.62666 c 0,7.13334 -5.77334,12.90667 -12.90667,12.90667 H 204.05323 c -7.13334,0 -12.90667,-5.77333 -12.90667,-12.90667 z"
       style="fill:#000000;fill-opacity:1;fill-rule:evenodd;stroke:#000000;stroke-width:13.3333;stroke-linecap:butt;stroke-linejoin:miter;stroke-miterlimit:10;stroke-dasharray:none;stroke-opacity:1" /><path
       id="path11"
       d="m 191.14656,368.18664 c 0,-7.10667 5.77333,-12.88 12.88,-12.88 h 121.12 c 7.10666,0 12.88,5.77333 12.88,12.88 v 51.52 c 0,7.10666 -5.77334,12.88 -12.88,12.88 h -121.12 c -7.10667,0 -12.88,-5.77334 -12.88,-12.88 z"
       style="fill:#000000;fill-opacity:1;fill-rule:evenodd;stroke:#000000;stroke-width:13.3333;stroke-linecap:butt;stroke-linejoin:miter;stroke-miterlimit:10;stroke-dasharray:none;stroke-opacity:1" /><path
       id="path13"
       d="m 375.46656,19.54665 c 0,-7.10667 5.77333,-12.88 12.88,-12.88 h 121.27999 c 7.10667,0 12.88,5.77333 12.88,12.88 v 51.52 c 0,7.10666 -5.77333,12.88 -12.88,12.88 H 388.34656 c -7.10667,0 -12.88,-5.77334 -12.88,-12.88 z"
       style="fill:#000000;fill-opacity:1;fill-rule:evenodd;stroke:#000000;stroke-width:13.3333;stroke-linecap:butt;stroke-linejoin:miter;stroke-miterlimit:10;stroke-dasharray:none;stroke-opacity:1" /><path
       id="path14"
       d="m 375.46656,135.70664 c 0,-7.10666 5.77333,-12.88 12.88,-12.88 h 121.27999 c 7.10667,0 12.88,5.77334 12.88,12.88 v 51.52 c 0,7.10667 -5.77333,12.88 -12.88,12.88 H 388.34656 c -7.10667,0 -12.88,-5.77333 -12.88,-12.88 z"
       style="fill:#000000;fill-opacity:1;fill-rule:evenodd;stroke:#000000;stroke-width:13.3333;stroke-linecap:butt;stroke-linejoin:miter;stroke-miterlimit:10;stroke-dasharray:none;stroke-opacity:1" /><path
       id="path15"
       d="m 375.46656,251.89331 c 0,-7.13334 5.77333,-12.90667 12.90666,-12.90667 h 121.22667 c 7.13333,0 12.90666,5.77333 12.90666,12.90667 v 51.62666 c 0,7.13334 -5.77333,12.90667 -12.90666,12.90667 H 388.37322 c -7.13333,0 -12.90666,-5.77333 -12.90666,-12.90667 z"
       style="fill:#000000;fill-opacity:1;fill-rule:evenodd;stroke:#000000;stroke-width:13.3333;stroke-linecap:butt;stroke-linejoin:miter;stroke-miterlimit:10;stroke-dasharray:none;stroke-opacity:1" /><path
       id="path16"
       d="m 375.46656,368.18664 c 0,-7.10667 5.77333,-12.88 12.88,-12.88 h 121.27999 c 7.10667,0 12.88,5.77333 12.88,12.88 v 51.52 c 0,7.10666 -5.77333,12.88 -12.88,12.88 H 388.34656 c -7.10667,0 -12.88,-5.77334 -12.88,-12.88 z"
       style="fill:#000000;fill-opacity:1;fill-rule:evenodd;stroke:#000000;stroke-width:13.3333;stroke-linecap:butt;stroke-linejoin:miter;stroke-miterlimit:10;stroke-dasharray:none;stroke-opacity:1" /><path
       id="path18"
       d="m 559.78655,19.54665 c 0,-7.10667 5.77334,-12.88 12.88,-12.88 h 121.28 c 7.10666,0 12.88,5.77333 12.88,12.88 v 51.52 c 0,7.10666 -5.77334,12.88 -12.88,12.88 h -121.28 c -7.10666,0 -12.88,-5.77334 -12.88,-12.88 z"
       style="fill:#000000;fill-opacity:1;fill-rule:evenodd;stroke:#000000;stroke-width:13.3333;stroke-linecap:butt;stroke-linejoin:miter;stroke-miterlimit:10;stroke-dasharray:none;stroke-opacity:1" /><path
       id="path19"
       d="m 559.78655,135.70664 c 0,-7.10666 5.77334,-12.88 12.88,-12.88 h 121.28 c 7.10666,0 12.88,5.77334 12.88,12.88 v 51.52 c 0,7.10667 -5.77334,12.88 -12.88,12.88 h -121.28 c -7.10666,0 -12.88,-5.77333 -12.88,-12.88 z"
       style="fill:#000000;fill-opacity:1;fill-rule:evenodd;stroke:#000000;stroke-width:13.3333;stroke-linecap:butt;stroke-linejoin:miter;stroke-miterlimit:10;stroke-dasharray:none;stroke-opacity:1" /><path
       id="path20"
       d="m 559.78655,251.89331 c 0,-7.13334 5.77334,-12.90667 12.90667,-12.90667 h 121.22666 c 7.13333,0 12.90667,5.77333 12.90667,12.90667 v 51.62666 c 0,7.13334 -5.77334,12.90667 -12.90667,12.90667 H 572.69322 c -7.13333,0 -12.90667,-5.77333 -12.90667,-12.90667 z"
       style="fill:#000000;fill-opacity:1;fill-rule:evenodd;stroke:#000000;stroke-width:13.3333;stroke-linecap:butt;stroke-linejoin:miter;stroke-miterlimit:10;stroke-dasharray:none;stroke-opacity:1" /><path
       id="path21"
       d="m 559.78655,368.18664 c 0,-7.10667 5.77334,-12.88 12.88,-12.88 h 121.28 c 7.10666,0 12.88,5.77333 12.88,12.88 v 51.52 c 0,7.10666 -5.77334,12.88 -12.88,12.88 h -121.28 c -7.10666,0 -12.88,-5.77334 -12.88,-12.88 z"
       style="fill:#000000;fill-opacity:1;fill-rule:evenodd;stroke:#000000;stroke-width:13.3333;stroke-linecap:butt;stroke-linejoin:miter;stroke-miterlimit:10;stroke-dasharray:none;stroke-opacity:1" /></g></svg>
