<?xml version="1.0" encoding="UTF-8" standalone="no"?>
<!-- Created with Inkscape (http://www.inkscape.org/) -->

<svg
   width="897.81323"
   height="555.41327"
   viewBox="0 0 897.81323 555.41327"
   version="1.1"
   id="svg1"
   xml:space="preserve"
   xmlns="http://www.w3.org/2000/svg"
   xmlns:svg="http://www.w3.org/2000/svg"><defs
     id="defs1" /><g
     id="g1"
     transform="translate(1058.1085,-121.80033)"><path
       id="path3"
       d="m -1051.4419,141.34698 c 0,-7.10667 5.7666,-12.88 12.88,-12.88 h 121.27996 c 7.10667,0 12.88,5.77333 12.88,12.88 v 51.52 c 0,7.10666 -5.77333,12.88 -12.88,12.88 h -121.27996 c -7.1134,0 -12.88,-5.77334 -12.88,-12.88 z"
       style="fill:#000000;fill-opacity:1;fill-rule:evenodd;stroke:#000000;stroke-width:13.3333;stroke-linecap:butt;stroke-linejoin:miter;stroke-miterlimit:10;stroke-dasharray:none;stroke-opacity:1" /><path
       id="path4"
       d="m -1051.4419,257.50697 c 0,-7.10666 5.7666,-12.88 12.88,-12.88 h 121.27996 c 7.10667,0 12.88,5.77334 12.88,12.88 v 51.52 c 0,7.10667 -5.77333,12.88 -12.88,12.88 h -121.27996 c -7.1134,0 -12.88,-5.77333 -12.88,-12.88 z"
       style="fill:#000000;fill-opacity:1;fill-rule:evenodd;stroke:#000000;stroke-width:13.3333;stroke-linecap:butt;stroke-linejoin:miter;stroke-miterlimit:10;stroke-dasharray:none;stroke-opacity:1" /><path
       id="path5"
       d="m -1051.4419,373.69364 c 0,-7.13334 5.7786,-12.90667 12.9066,-12.90667 h 121.2267 c 7.13333,0 12.90666,5.77333 12.90666,12.90667 v 51.62666 c 0,7.13334 -5.77333,12.90667 -12.90666,12.90667 h -121.2267 c -7.128,0 -12.9066,-5.77333 -12.9066,-12.90667 z"
       style="fill:#000000;fill-opacity:1;fill-rule:evenodd;stroke:#000000;stroke-width:13.3333;stroke-linecap:butt;stroke-linejoin:miter;stroke-miterlimit:10;stroke-dasharray:none;stroke-opacity:1" /><path
       id="path6"
       d="m -1051.4419,489.98697 c 0,-7.10667 5.7666,-12.88 12.88,-12.88 h 121.27996 c 7.10667,0 12.88,5.77333 12.88,12.88 v 51.52 c 0,7.10666 -5.77333,12.88 -12.88,12.88 h -121.27996 c -7.1134,0 -12.88,-5.77334 -12.88,-12.88 z"
       style="fill:#000000;fill-opacity:1;fill-rule:evenodd;stroke:#000000;stroke-width:13.3333;stroke-linecap:butt;stroke-linejoin:miter;stroke-miterlimit:10;stroke-dasharray:none;stroke-opacity:1" /><path
       id="path7"
       d="m -1051.4419,606.14697 c 0,-7.10667 5.7666,-12.88 12.88,-12.88 h 121.27996 c 7.10667,0 12.88,5.77333 12.88,12.88 v 51.51999 c 0,7.11334 -5.77333,12.88 -12.88,12.88 h -121.27996 c -7.1134,0 -12.88,-5.76666 -12.88,-12.88 z"
       style="fill:#000000;fill-opacity:1;fill-rule:evenodd;stroke:#000000;stroke-width:13.3333;stroke-linecap:butt;stroke-linejoin:miter;stroke-miterlimit:10;stroke-dasharray:none;stroke-opacity:1" /><path
       id="path8"
       d="m -866.96194,141.34698 c 0,-7.10667 5.77333,-12.88 12.88,-12.88 h 121.12 c 7.10666,0 12.88,5.77333 12.88,12.88 v 51.52 c 0,7.10666 -5.77334,12.88 -12.88,12.88 h -121.12 c -7.10667,0 -12.88,-5.77334 -12.88,-12.88 z"
       style="fill:#000000;fill-opacity:1;fill-rule:evenodd;stroke:#000000;stroke-width:13.3333;stroke-linecap:butt;stroke-linejoin:miter;stroke-miterlimit:10;stroke-dasharray:none;stroke-opacity:1" /><path
       id="path9"
       d="m -866.96194,257.50697 c 0,-7.12 5.77333,-12.88 12.88,-12.88 h 121.12 c 7.10666,0 12.88,5.76 12.88,12.88 v 51.52 c 0,7.10667 -5.77334,12.88 -12.88,12.88 h -121.12 c -7.10667,0 -12.88,-5.77333 -12.88,-12.88 z"
       style="fill:#ffffff;fill-opacity:0;fill-rule:evenodd;stroke:#000000;stroke-width:13.3333;stroke-linecap:butt;stroke-linejoin:miter;stroke-miterlimit:10;stroke-dasharray:none;stroke-opacity:1" /><path
       id="path10"
       d="m -866.96194,373.69364 c 0,-7.13334 5.77333,-12.90667 12.90667,-12.90667 h 121.06666 c 7.13333,0 12.90667,5.77333 12.90667,12.90667 v 51.62666 c 0,7.13334 -5.77334,12.90667 -12.90667,12.90667 h -121.06666 c -7.13334,0 -12.90667,-5.77333 -12.90667,-12.90667 z"
       style="fill:#000000;fill-opacity:1;fill-rule:evenodd;stroke:#000000;stroke-width:13.3333;stroke-linecap:butt;stroke-linejoin:miter;stroke-miterlimit:10;stroke-dasharray:none;stroke-opacity:1" /><path
       id="path11"
       d="m -866.96194,489.98697 c 0,-7.10667 5.77333,-12.88 12.88,-12.88 h 121.12 c 7.10666,0 12.88,5.77333 12.88,12.88 v 51.52 c 0,7.10666 -5.77334,12.88 -12.88,12.88 h -121.12 c -7.10667,0 -12.88,-5.77334 -12.88,-12.88 z"
       style="fill:#000000;fill-opacity:1;fill-rule:evenodd;stroke:#000000;stroke-width:13.3333;stroke-linecap:butt;stroke-linejoin:miter;stroke-miterlimit:10;stroke-dasharray:none;stroke-opacity:1" /><path
       id="path12"
       d="m -866.96194,606.14697 c 0,-7.10667 5.77333,-12.88 12.88,-12.88 h 121.12 c 7.10666,0 12.88,5.77333 12.88,12.88 v 51.51999 c 0,7.11334 -5.77334,12.88 -12.88,12.88 h -121.12 c -7.10667,0 -12.88,-5.76666 -12.88,-12.88 z"
       style="fill:#000000;fill-opacity:1;fill-rule:evenodd;stroke:#000000;stroke-width:13.3333;stroke-linecap:butt;stroke-linejoin:miter;stroke-miterlimit:10;stroke-dasharray:none;stroke-opacity:1" /><path
       id="path13"
       d="m -682.64194,141.34698 c 0,-7.10667 5.77333,-12.88 12.88,-12.88 h 121.27999 c 7.10667,0 12.88,5.77333 12.88,12.88 v 51.52 c 0,7.10666 -5.77333,12.88 -12.88,12.88 h -121.27999 c -7.10667,0 -12.88,-5.77334 -12.88,-12.88 z"
       style="fill:#000000;fill-opacity:1;fill-rule:evenodd;stroke:#000000;stroke-width:13.3333;stroke-linecap:butt;stroke-linejoin:miter;stroke-miterlimit:10;stroke-dasharray:none;stroke-opacity:1" /><path
       id="path14"
       d="m -682.64194,257.50697 c 0,-7.10666 5.77333,-12.88 12.88,-12.88 h 121.27999 c 7.10667,0 12.88,5.77334 12.88,12.88 v 51.52 c 0,7.10667 -5.77333,12.88 -12.88,12.88 h -121.27999 c -7.10667,0 -12.88,-5.77333 -12.88,-12.88 z"
       style="fill:#000000;fill-opacity:1;fill-rule:evenodd;stroke:#000000;stroke-width:13.3333;stroke-linecap:butt;stroke-linejoin:miter;stroke-miterlimit:10;stroke-dasharray:none;stroke-opacity:1" /><path
       id="path15"
       d="m -682.64194,373.69364 c 0,-7.13334 5.77333,-12.90667 12.90666,-12.90667 h 121.22667 c 7.13333,0 12.90666,5.77333 12.90666,12.90667 v 51.62666 c 0,7.13334 -5.77333,12.90667 -12.90666,12.90667 h -121.22667 c -7.13333,0 -12.90666,-5.77333 -12.90666,-12.90667 z"
       style="fill:#000000;fill-opacity:1;fill-rule:evenodd;stroke:#000000;stroke-width:13.3333;stroke-linecap:butt;stroke-linejoin:miter;stroke-miterlimit:10;stroke-dasharray:none;stroke-opacity:1" /><path
       id="path16"
       d="m -682.64194,489.98697 c 0,-7.10667 5.77333,-12.88 12.88,-12.88 h 121.27999 c 7.10667,0 12.88,5.77333 12.88,12.88 v 51.52 c 0,7.10666 -5.77333,12.88 -12.88,12.88 h -121.27999 c -7.10667,0 -12.88,-5.77334 -12.88,-12.88 z"
       style="fill:#000000;fill-opacity:1;fill-rule:evenodd;stroke:#000000;stroke-width:13.3333;stroke-linecap:butt;stroke-linejoin:miter;stroke-miterlimit:10;stroke-dasharray:none;stroke-opacity:1" /><path
       id="path17"
       d="m -682.64194,606.14697 c 0,-7.10667 5.77333,-12.88 12.88,-12.88 h 121.27999 c 7.10667,0 12.88,5.77333 12.88,12.88 v 51.51999 c 0,7.11334 -5.77333,12.88 -12.88,12.88 h -121.27999 c -7.10667,0 -12.88,-5.76666 -12.88,-12.88 z"
       style="fill:#000000;fill-opacity:1;fill-rule:evenodd;stroke:#000000;stroke-width:13.3333;stroke-linecap:butt;stroke-linejoin:miter;stroke-miterlimit:10;stroke-dasharray:none;stroke-opacity:1" /><path
       id="path18"
       d="m -498.32195,141.34698 c 0,-7.10667 5.77334,-12.88 12.88,-12.88 h 121.28 c 7.10666,0 12.88,5.77333 12.88,12.88 v 51.52 c 0,7.10666 -5.77334,12.88 -12.88,12.88 h -121.28 c -7.10666,0 -12.88,-5.77334 -12.88,-12.88 z"
       style="fill:#000000;fill-opacity:1;fill-rule:evenodd;stroke:#000000;stroke-width:13.3333;stroke-linecap:butt;stroke-linejoin:miter;stroke-miterlimit:10;stroke-dasharray:none;stroke-opacity:1" /><path
       id="path19"
       d="m -498.32195,257.50697 c 0,-7.10666 5.77334,-12.88 12.88,-12.88 h 121.28 c 7.10666,0 12.88,5.77334 12.88,12.88 v 51.52 c 0,7.10667 -5.77334,12.88 -12.88,12.88 h -121.28 c -7.10666,0 -12.88,-5.77333 -12.88,-12.88 z"
       style="fill:#000000;fill-opacity:1;fill-rule:evenodd;stroke:#000000;stroke-width:13.3333;stroke-linecap:butt;stroke-linejoin:miter;stroke-miterlimit:10;stroke-dasharray:none;stroke-opacity:1" /><path
       id="path20"
       d="m -498.32195,373.69364 c 0,-7.13334 5.77334,-12.90667 12.90667,-12.90667 h 121.22666 c 7.13333,0 12.90667,5.77333 12.90667,12.90667 v 51.62666 c 0,7.13334 -5.77334,12.90667 -12.90667,12.90667 h -121.22666 c -7.13333,0 -12.90667,-5.77333 -12.90667,-12.90667 z"
       style="fill:#000000;fill-opacity:1;fill-rule:evenodd;stroke:#000000;stroke-width:13.3333;stroke-linecap:butt;stroke-linejoin:miter;stroke-miterlimit:10;stroke-dasharray:none;stroke-opacity:1" /><path
       id="path21"
       d="m -498.32195,489.98697 c 0,-7.10667 5.77334,-12.88 12.88,-12.88 h 121.28 c 7.10666,0 12.88,5.77333 12.88,12.88 v 51.52 c 0,7.10666 -5.77334,12.88 -12.88,12.88 h -121.28 c -7.10666,0 -12.88,-5.77334 -12.88,-12.88 z"
       style="fill:#000000;fill-opacity:1;fill-rule:evenodd;stroke:#000000;stroke-width:13.3333;stroke-linecap:butt;stroke-linejoin:miter;stroke-miterlimit:10;stroke-dasharray:none;stroke-opacity:1" /><path
       id="path22"
       d="m -498.32195,606.14697 c 0,-7.10667 5.77334,-12.88 12.88,-12.88 h 121.28 c 7.10666,0 12.88,5.77333 12.88,12.88 v 51.51999 c 0,7.11334 -5.77334,12.88 -12.88,12.88 h -121.28 c -7.10666,0 -12.88,-5.76666 -12.88,-12.88 z"
       style="fill:#000000;fill-opacity:1;fill-rule:evenodd;stroke:#000000;stroke-width:13.3333;stroke-linecap:butt;stroke-linejoin:miter;stroke-miterlimit:10;stroke-dasharray:none;stroke-opacity:1" /><path
       id="path23"
       d="m -313.84195,141.34698 c 0,-7.10667 5.76,-12.88 12.88,-12.88 h 121.11999 c 7.10667,0 12.88,5.77333 12.88,12.88 v 51.52 c 0,7.10666 -5.77333,12.88 -12.88,12.88 h -121.11999 c -7.12,0 -12.88,-5.77334 -12.88,-12.88 z"
       style="fill:#000000;fill-opacity:1;fill-rule:evenodd;stroke:#000000;stroke-width:13.3333;stroke-linecap:butt;stroke-linejoin:miter;stroke-miterlimit:10;stroke-dasharray:none;stroke-opacity:1" /><path
       id="path24"
       d="m -313.84195,257.50697 c 0,-7.12 5.76,-12.88 12.88,-12.88 h 121.11999 c 7.10667,0 12.88,5.76 12.88,12.88 v 51.52 c 0,7.10667 -5.77333,12.88 -12.88,12.88 h -121.11999 c -7.12,0 -12.88,-5.77333 -12.88,-12.88 z"
       style="fill:#000000;fill-opacity:1;fill-rule:evenodd;stroke:#000000;stroke-width:13.3333;stroke-linecap:butt;stroke-linejoin:miter;stroke-miterlimit:10;stroke-dasharray:none;stroke-opacity:1" /><path
       id="path25"
       d="m -313.84195,373.69364 c 0,-7.13334 5.77333,-12.90667 12.90666,-12.90667 h 121.06667 c 7.13333,0 12.90666,5.77333 12.90666,12.90667 v 51.62666 c 0,7.13334 -5.77333,12.90667 -12.90666,12.90667 h -121.06667 c -7.13333,0 -12.90666,-5.77333 -12.90666,-12.90667 z"
       style="fill:#000000;fill-opacity:1;fill-rule:evenodd;stroke:#000000;stroke-width:13.3333;stroke-linecap:butt;stroke-linejoin:miter;stroke-miterlimit:10;stroke-dasharray:none;stroke-opacity:1" /><path
       id="path26"
       d="m -313.84195,489.98697 c 0,-7.10667 5.76,-12.88 12.88,-12.88 h 121.11999 c 7.10667,0 12.88,5.77333 12.88,12.88 v 51.52 c 0,7.10666 -5.77333,12.88 -12.88,12.88 h -121.11999 c -7.12,0 -12.88,-5.77334 -12.88,-12.88 z"
       style="fill:#000000;fill-opacity:1;fill-rule:evenodd;stroke:#000000;stroke-width:13.3333;stroke-linecap:butt;stroke-linejoin:miter;stroke-miterlimit:10;stroke-dasharray:none;stroke-opacity:1" /><path
       id="path27"
       d="m -313.84195,606.14697 c 0,-7.10667 5.76,-12.88 12.88,-12.88 h 121.11999 c 7.10667,0 12.88,5.77333 12.88,12.88 v 51.51999 c 0,7.11334 -5.77333,12.88 -12.88,12.88 h -121.11999 c -7.12,0 -12.88,-5.76666 -12.88,-12.88 z"
       style="fill:#000000;fill-opacity:1;fill-rule:evenodd;stroke:#000000;stroke-width:13.3333;stroke-linecap:butt;stroke-linejoin:miter;stroke-miterlimit:10;stroke-dasharray:none;stroke-opacity:1" /></g></svg>
