<?xml version="1.0" encoding="UTF-8" standalone="no"?>
<!-- Created with Inkscape (http://www.inkscape.org/) -->

<svg
   width="506.6358"
   height="614.01221"
   viewBox="0 0 506.6358 614.01221"
   version="1.1"
   id="svg1"
   xml:space="preserve"
   xmlns="http://www.w3.org/2000/svg"
   xmlns:svg="http://www.w3.org/2000/svg"><defs
     id="defs1" /><g
     id="layer1"
     transform="translate(-342.22095,-104.23987)"><path
       style="fill:#000000"
       d="m 508.44762,717.16107 c -63.59069,-0.89556 -147.36544,-2.8707 -161,-3.79585 -8.66914,-0.58824 -7.66337,-0.70764 11.5,-1.36521 11.55,-0.39633 32.925,-0.96827 47.5,-1.27097 14.575,-0.3027 29.72509,-0.79373 33.66687,-1.09118 l 7.16687,-0.54081 1.67996,-7.67247 c 4.52374,-20.66017 22.01335,-45.48288 38.73528,-54.97635 5.40204,-3.06688 5.42527,-3.17074 3.25085,-14.53409 -0.82491,-4.31088 -1.49983,-10.44213 -1.49983,-13.625 0,-3.18287 -0.2796,-7.18504 -0.62134,-8.89372 l -0.62134,-3.1067 -2.62866,1.85619 c -5.70154,4.02605 -17.02312,8.96115 -24.62866,10.73567 -10.14582,2.36723 -28.09308,2.38005 -37.79614,0.027 -24.62827,-5.97248 -44.85431,-21.7461 -49.74336,-38.7932 l -0.76177,-2.65613 5.0049,3.11121 c 3.97995,2.47408 6.10464,3.11121 10.37513,3.11121 6.59406,0 10.33311,-2.43835 12.29688,-8.01916 2.79908,-7.95467 -3.06291,-14.62055 -13.03052,-14.81745 -5.07023,-0.10017 -5.04304,-1.43382 0.0821,-4.02425 7.06761,-3.57226 15.91453,-2.86673 22.90401,1.82657 5.5769,3.74477 8.74658,9.07069 9.63627,16.19151 l 0.66174,5.29639 5.18541,1.80545 c 3.88064,1.35117 8.20487,1.80633 17.1854,1.80892 11.83349,0.003 12.10655,-0.0485 19.67835,-3.74168 4.45832,-2.17456 9.81546,-5.82675 12.77443,-8.70887 l 5.09609,-4.96375 4.6245,2.45888 c 5.61638,2.98625 7.32663,3.08959 7.32663,0.44269 0,-1.31702 -1.12701,-2.50807 -3.25,-3.43467 -28.06655,-12.24995 -51.18268,-23.91561 -64.8545,-32.72913 l -4.6045,-2.96829 1.7607,-7.17586 c 1.77647,-7.24014 4.53368,-17.82855 9.42013,-36.17587 2.4029,-9.02223 5.37834,-18.34305 6.19487,-19.40594 0.17152,-0.22327 2.96012,1.67465 6.1969,4.21761 6.73927,5.29468 5.61029,5.74546 13.30307,-5.31167 2.48724,-3.575 6.20011,-8.90464 8.25082,-11.84364 2.05071,-2.939 3.56899,-5.50322 3.37394,-5.69826 -0.19504,-0.19504 -7.28073,2.54427 -15.74598,6.08735 -8.46524,3.54309 -15.54333,6.29 -15.72908,6.10425 -0.18575,-0.18575 0.35928,-2.31323 1.21117,-4.72775 8.12665,-23.0334 22.8553,-38.84149 47.067,-50.51648 l 9.09454,-4.38542 -2.28074,-10.76003 c -1.2544,-5.91801 -3.45959,-16.16002 -4.90042,-22.76002 -1.44082,-6.6 -3.91471,-18.075 -5.49752,-25.5 -1.58281,-7.425 -3.99469,-18.675 -5.35974,-25 -1.36505,-6.325 -3.23233,-15.1 -4.14952,-19.5 -5.47571,-26.26858 -6.98986,-31.73329 -9.00114,-32.48604 -1.1,-0.4117 -11,-1.50478 -22,-2.42908 -11,-0.9243 -24.40962,-2.19433 -29.79916,-2.82228 l -9.79916,-1.14172 -6.58301,-13.56044 c -3.62066,-7.45824 -9.26027,-18.96044 -12.53247,-25.56044 l -5.94944,-12 18.99803,19.07647 18.99802,19.07648 11.3336,-1.68766 c 13.4769,-2.00681 33.02568,-5.9679 34.08799,-6.90711 0.41492,-0.36684 -1.28241,-2.10265 -3.77184,-3.85737 l -4.52624,-3.19039 -9.23476,1.16638 c -38.73622,4.89248 -71.38375,-26.40895 -69.49355,-66.62826 1.40059,-29.80139 21.52412,-53.18229 50.89529,-59.13365 8.51469,-1.7253 17.2886,-1.20551 27.1267,1.60705 4.38452,1.25347 4.70362,2.22253 1.25,3.79611 -2.05304,0.93542 -2.5,0.87473 -2.5,-0.33949 0,-1.66484 -2.55125,-2.01368 -3.5,-0.47856 -0.33992,0.55 -2.34918,1 -4.46501,1 -3.66557,0 -3.91929,0.21221 -5.38029,4.5 -1.26199,3.70375 -1.2931,4.5 -0.17579,4.5 0.74663,0 2.04696,0.26456 2.8896,0.58792 1.16979,0.44889 1.48473,-0.0574 1.33179,-2.14079 -0.11016,-1.50079 0.2888,-2.90338 0.88658,-3.11688 0.63637,-0.22727 1.14187,1.0746 1.21955,3.14079 0.10543,2.80451 -0.24397,3.52896 -1.70202,3.52896 -2.63929,0 -7.10441,3.81129 -7.10441,6.06411 0,1.05542 -0.9,2.481 -2,3.16796 -2.07589,1.29642 -2.87246,6.76793 -0.9853,6.76793 0.9137,0 4.47959,-5.02462 5.30761,-7.47884 0.18164,-0.53836 1.57587,-0.16267 3.09829,0.83486 l 2.76804,1.81369 -0.71308,-2.33486 c -0.67513,-2.21057 -0.54707,-2.17851 2.40568,0.60224 l 3.11876,2.93709 v -3.18709 c 0,-2.21992 0.47311,-3.18709 1.55902,-3.18709 0.85746,0 1.2809,0.45 0.94098,1 -0.33992,0.55 -0.1718,1 0.3736,1 0.54539,0 1.27727,-0.9 1.6264,-2 0.34913,-1.1 1.08101,-2 1.62641,-2 0.54539,0 0.69598,0.47836 0.33465,1.06301 -0.36134,0.58466 0.0777,1.87488 0.97573,2.86715 1.54658,1.70895 1.43853,1.79795 -2.04824,1.68698 -2.13827,-0.068 -3.86416,0.40674 -4.11809,1.13286 -0.30411,0.86963 0.82774,1.25 3.71953,1.25 3.41835,0 4.09777,0.31084 3.82515,1.75 -0.22505,1.18795 -1.45299,1.85319 -3.82333,2.0713 -1.92049,0.17671 -3.89705,0.71695 -4.39234,1.20052 -0.51979,0.5075 -2.36828,0.26596 -4.37212,-0.57129 -6.69044,-2.79545 -11.47704,-1.15607 -14.01333,4.79947 -0.64413,1.5125 -1.63079,2.75 -2.19258,2.75 -0.58046,0 -1.02144,2.56097 -1.02144,5.93191 0,5.48548 0.23209,6.09716 3.08388,8.12782 2.62489,1.86908 3.89579,2.10049 8.53888,1.55479 5.34457,-0.62815 5.48963,-0.57758 7.16611,2.4982 0.94112,1.72663 2.70638,4.36458 3.9228,5.8621 1.71364,2.10966 2.0815,3.52486 1.63364,6.28473 -0.47825,2.94707 0.0708,4.61313 3.18047,9.6512 2.06717,3.34909 4.05852,6.08925 4.42523,6.08925 3.91751,0 8.28594,-11.64713 8.07107,-21.51914 -0.0889,-4.08515 0.50721,-7.44465 1.85531,-10.45574 2.17407,-4.85594 1.9952,-6.02512 -0.92178,-6.02512 -1.15511,0 -3.73363,-2.30212 -6.44036,-5.75 -5.93271,-7.55718 -5.84433,-9.09418 0.10723,-1.86488 2.54236,3.08818 4.98672,5.61488 5.4319,5.61488 1.03569,0 4.94562,-5.45849 4.94562,-6.90437 0,-0.6026 -1.29825,-1.09563 -2.88499,-1.09563 -1.95541,0 -3.40045,-0.78669 -4.48472,-2.4415 l -1.59974,-2.44151 5.85799,2.90645 c 4.47607,2.22081 6.60854,4.0761 9.03964,7.86464 4.35724,6.79016 8.08299,9.73833 4.98028,3.94088 -1.18132,-2.20732 -0.33483,-9.2105 1.01264,-8.37772 0.45102,0.27875 2.31028,4.11625 4.13167,8.52779 1.82139,4.41153 3.67964,8.02097 4.12943,8.02097 0.44979,0 0.84632,1.0125 0.88119,2.25 0.0632,2.24393 0.066,2.24355 1.02005,-0.14131 1.51584,-3.78907 0.0805,-13.129 -3.20559,-20.85869 -2.64732,-6.22719 -1.37724,-5.18225 2.11867,1.7431 8.1049,16.05572 7.92918,35.41432 -0.47208,52.0069 -3.96471,7.83034 -11.75002,17.27694 -17.81852,21.62078 -2.86326,2.04952 -5.60242,4.06728 -6.08702,4.48391 -0.48461,0.41663 3.45289,2.7828 8.75,5.25815 5.2971,2.47535 9.6311,4.94107 9.6311,5.47937 0,0.5383 1.72935,4.05651 3.84299,7.81826 2.11364,3.76174 6.10738,11.11453 8.87497,16.33953 6.16793,11.64459 11.3138,21.28382 16.28232,30.5 4.7412,8.79452 11.68387,21.93776 18.75221,35.5 11.18362,21.45837 16.58029,31.59404 18.63553,35 l 2.11198,3.5 0.5,-55.98083 0.5,-55.98084 28,-10.26204 c 15.4,-5.64412 30.13463,-11.04485 32.74361,-12.00161 3.28134,-1.20333 4.61995,-2.20738 4.34244,-3.25713 -0.22064,-0.83465 -2.01503,-7.36755 -3.98754,-14.51755 -10.93203,-39.62682 -16.58167,-60.60624 -16.59213,-61.61344 -0.004,-0.33739 2.80612,-1.86608 6.24362,-3.39709 3.4375,-1.53101 11.425,-5.24139 17.75,-8.24528 6.325,-3.00389 17.35,-8.16606 24.5,-11.4715 7.15,-3.30544 13.45,-6.35145 14,-6.7689 0.55,-0.41746 2.07608,-1.08959 3.39128,-1.49363 1.3152,-0.40404 6.9402,-2.89122 12.5,-5.52707 5.5598,-2.63585 11.85776,-5.5131 13.99548,-6.39389 l 3.88677,-1.60143 -0.56307,4.25611 c -0.30969,2.34087 -1.28016,11.45612 -2.1566,20.25612 -0.87644,8.8 -2.91363,28.80848 -4.52708,44.46328 -1.61346,15.6548 -2.74181,28.65502 -2.50746,28.88937 0.23435,0.23435 6.85088,-1.86475 14.70339,-4.66467 24.21109,-8.6328 56.02302,-20.1302 61.27729,-22.1467 7.16116,-2.74833 23.59989,-8.69512 26.25,-9.49605 l 2.25,-0.68001 v 236.34363 c 0,159.42721 0.34262,239.10135 1.05277,244.81738 3.67613,29.58935 14.30902,48.73693 31.6377,56.97282 7.30187,3.47039 11.87274,4.70455 23.89871,6.45274 7.65506,1.1128 -5.97133,1.31316 -96.69246,1.42178 l -105.60329,0.12643 -4.80177,-7.25 c -2.64098,-3.9875 -6.82462,-9.95 -9.29698,-13.25 -4.64175,-6.19561 -17.13113,-19.5 -18.30546,-19.5 -0.36543,0 -2.11406,3.59623 -3.88585,7.99163 -1.77178,4.3954 -3.63287,7.73735 -4.13575,7.42656 -2.72838,-1.68624 -10.71394,-22.62584 -11.67908,-30.6247 l -0.68854,-5.70652 -4.16147,1.86799 c -5.60174,2.51449 -11.99231,9.09917 -14.88002,15.332 l -2.37006,5.11551 9.22179,9.54877 c 12.0667,12.49455 18.29086,20.3573 25.56771,32.29876 l 2.28517,3.75 -22.33156,-0.16175 c -12.28236,-0.089 -46.85656,-0.50715 -76.83156,-0.92929 z m 50,-9.0331 c 0,-1.59486 -6.91708,-16.74348 -9.41242,-20.61348 l -2.08758,-3.23762 -11.80986,-0.0124 -11.80986,-0.0124 -5.37906,-5.08729 -5.37906,-5.08729 -2.62652,5.18317 c -3.31922,6.55019 -6.49564,18.84938 -6.49564,25.15137 v 4.84004 h 27.5 c 19.69122,0 27.5,-0.31921 27.5,-1.12414 z m -13,-44.6079 c 3.49957,-9.40568 12.12099,-18.25823 20.28909,-20.833 3.17722,-1.00153 5.59009,-2.29661 5.36193,-2.87796 -8.19393,-20.87805 -11.61417,-33.79019 -12.33227,-46.557 -0.40267,-7.15892 -0.14905,-10.59931 1.02917,-13.96095 0.85993,-2.45353 1.3473,-4.67716 1.08305,-4.94141 -0.26425,-0.26425 -2.87634,1.88567 -5.80465,4.7776 -6.91251,6.82666 -13.71688,18.36846 -17.79603,30.18628 -3.06124,8.86882 -3.26006,10.28346 -3.29408,23.43848 -0.0307,11.85286 0.3175,15.15025 2.27007,21.5 2.7151,8.82949 5.49015,15.99359 6.19372,15.98982 0.275,-10e-4 1.625,-3.02631 3,-6.72186 z m 93.76913,3.48204 c 10.52035,-8.57908 14.36783,-23.48743 10.81647,-41.91203 -3.34819,-17.37062 -10.30021,-30.63185 -22.51641,-42.95095 -7.23445,-7.29538 -10.04939,-9.35816 -18.07225,-13.24325 -10.49862,-5.08398 -16.85897,-6.64377 -27.09128,-6.64377 h -6.82135 l -2.50987,4.28277 c -3.34368,5.70555 -5.29414,11.43306 -5.72248,16.80397 l -0.35196,4.41326 8.44607,0.2475 c 13.98222,0.40972 25.12998,6.73917 33.92389,19.26125 5.40272,7.6932 8.35175,15.08401 6.29258,15.7704 -3.47254,1.15752 -9.82701,7.27112 -12.05249,11.59563 -4.25799,8.27408 -3.88724,20.97396 0.78057,26.73847 l 1.86451,2.30258 0.72387,-5.26317 c 2.03652,-14.80723 16.73018,-20.75422 26.46445,-10.711 4.50258,4.64547 5.45194,12.52815 2.17729,18.07827 -1.16641,1.97691 -2.12074,3.79367 -2.12074,4.03723 0,1.18718 2.15949,0.13641 5.76913,-2.80716 z m -60.44129,-137.5 c 1.24664,-32.62585 4.21318,-45.58237 12.69444,-55.44349 4.54698,-5.28676 13.399,-10.80651 17.33039,-10.80651 1.88766,0 2.75066,-0.62222 3.12066,-2.25 2.61017,-11.48322 2.63788,-11.96615 0.81083,-14.13352 -0.98129,-1.16406 -2.27004,-2.43346 -2.8639,-2.82089 -0.59385,-0.38742 -3.51885,-2.69127 -6.5,-5.11965 -14.27511,-11.62826 -37.60242,-24.54595 -55.92026,-30.96631 -13.64531,-4.78265 -33.98342,-8.72823 -44.82236,-8.69551 l -4.67764,0.0141 -9.24999,14.08139 c -5.08749,7.74476 -8.99844,14.48841 -8.69098,14.98588 0.30745,0.49747 2.35875,0.90449 4.55843,0.90449 12.18148,0 43.13371,7.70999 58.38254,14.5427 15.11064,6.77078 26.05456,12.25564 33.21402,16.64616 4.55729,2.79475 8.28598,5.23899 8.28598,5.43165 0,0.19267 -2.3625,-0.60281 -5.25,-1.76773 -25.22125,-10.17514 -57.08611,-16.90945 -86.4262,-18.26529 l -12.17621,-0.56267 -2.9932,9.73759 c -3.01802,9.81835 -8.94518,30.03489 -9.8913,33.73759 -0.28107,1.1 -1.80525,6.44602 -3.38706,11.88004 -1.58182,5.43403 -2.87603,10.61753 -2.87603,11.5189 0,1.36304 2.39809,1.92208 14.25,3.32193 30.94935,3.65548 63.39372,13.23671 94.25,27.8332 3.3,1.56106 6.49226,2.86251 7.09391,2.89211 0.72639,0.0357 1.30894,-5.57369 1.73393,-16.69618 z M 514.5993,499.25593 c -11.63274,-4.18481 -19.48336,-14.41494 -19.54556,-25.4698 -0.0323,-5.73559 2.84585,-20.14245 4.35945,-21.82182 0.74405,-0.82555 3.23257,2.57477 9.57582,13.08441 2.09023,3.46313 4.08585,6.47301 4.43471,6.68862 0.34887,0.21561 2.40946,-0.0239 4.5791,-0.53219 2.16964,-0.50832 10.9198,-1.86496 19.4448,-3.01475 8.525,-1.1498 17.71034,-2.50845 20.41186,-3.01923 2.70152,-0.51077 5.04436,-0.79617 5.20632,-0.63421 0.71881,0.71881 -4.64623,15.90687 -7.09495,20.08529 -8.04635,13.73006 -26.11633,20.12166 -41.37155,14.63368 z m 126.34985,42.99523 c 8.01987,-4.95655 14.42375,-18.25384 15.26205,-31.69076 0.86789,-13.91117 -2.4975,-25.25867 -10.36833,-34.96024 l -3.36845,-4.15194 2.42995,-15.34806 c 1.33647,-8.44143 3.37998,-21.42305 4.54114,-28.84805 1.16116,-7.425 2.76417,-17.53142 3.56224,-22.45871 1.16309,-7.18096 1.20188,-9.1879 0.19545,-10.11371 -4.39029,-4.03863 -17.1198,-13.32051 -17.74139,-12.93635 -0.41232,0.25483 -1.52424,4.41105 -2.47092,9.23605 -5.90053,30.07365 -7.67607,39.24723 -10.02058,51.77272 -4.67117,24.9557 -5.54922,28.91021 -6.79574,30.60602 -0.67482,0.91806 -2.40773,3.18227 -3.8509,5.03159 -9.64282,12.35655 -9.12411,38.89218 1.07082,54.7796 7.14312,11.13158 18.29232,14.80629 27.55466,9.08184 z M 471.78651,176.37627 c 0.58799,-5.29744 0.56799,-5.34986 -1.3711,-3.59501 -2.02273,1.83055 -2.40563,4.23396 -1.32022,8.28694 0.90467,3.37812 2.00935,1.45228 2.69132,-4.69193 z m 147.82356,-9.22841 c 2.66065,-1.70733 4.83755,-3.45725 4.83755,-3.88871 0,-0.89 -3.59454,-1.61533 -13,-2.62321 -6.28279,-0.67326 -6.45162,-0.63283 -5.05216,1.20982 2.20201,2.89937 7.38435,8.40635 7.91078,8.40635 0.25646,0 2.64318,-1.39691 5.30383,-3.10425 z m 39.16292,-17.89575 c 3.7614,-4.675 7.80707,-9.85 8.99039,-11.5 l 2.15148,-3 -2.98362,1.89413 c -1.64099,1.04178 -7.257,4.86678 -12.48003,8.5 -5.22302,3.63323 -11.41052,7.83346 -13.75,9.33385 -2.33947,1.50038 -4.25359,2.98181 -4.25359,3.29206 0,0.31025 3.48445,0.43266 7.74323,0.27202 l 7.74323,-0.29206 z m -228.31006,-24.25 c 0.0104,-0.84652 0.31561,-0.77517 0.94563,0.22104 1.35404,2.14104 2.38712,0.55188 1.62228,-2.49551 -0.62053,-2.47236 -3.08322,-3.05187 -3.08322,-0.72553 0,0.59583 -0.3375,1.42083 -0.75,1.83333 -1.06739,1.06739 -0.92781,2.41667 0.25,2.41667 0.55,0 1.00689,-0.5625 1.01531,-1.25 z m 58.61674,31.3958 c -1.02737,-2.88378 -1.65083,-5.46036 -1.38546,-5.72573 1.10655,-1.10654 3.84918,4.92097 3.56265,7.82968 -0.29441,2.98876 -0.39881,2.88787 -2.17719,-2.10395 z m -27.40181,-22.69709 c -2.62342,-1.83751 -5.02729,-5.72563 -3.00338,-4.85778 1.20242,0.51558 6.32589,6.40907 5.57171,6.40907 -0.19446,0 -1.3502,-0.69808 -2.56833,-1.55129 z"
       id="path1" /></g></svg>
