<?xml version="1.0" encoding="UTF-8" standalone="no"?>
<!-- Created with Inkscape (http://www.inkscape.org/) -->

<svg
   width="659.5"
   height="623.99927"
   viewBox="0 0 659.5 623.99927"
   version="1.1"
   id="svg1"
   xml:space="preserve"
   xmlns="http://www.w3.org/2000/svg"
   xmlns:svg="http://www.w3.org/2000/svg"><defs
     id="defs1" /><g
     id="layer1"
     transform="translate(-272.50679,-87.15308)"><path
       style="fill:#000000"
       d="m 455.50679,619.15308 v -92 h -91.5 -91.5 v -16.84951 -16.84952 l 20.75,-0.66059 c 11.4125,-0.36333 52.5875,-0.41735 91.5,-0.12005 l 70.75,0.54055 v -85.03044 -85.03044 h -91.5 -91.5 v -17 -17 h 91.5 91.5 v -101 -101 h 17.5 17.5 v 100.39301 c 0,86.1942 0.20252,100.47073 1.43192,100.94249 0.78755,0.30221 51.86255,0.58766 113.5,0.63432 l 112.06808,0.0848 V 188.18041 87.15308 h 17.99522 17.99521 l 0.25479,100.75 0.25478,100.75 88.76739,0.23403 88.76738,0.23403 0.23262,17.01676 0.23261,17.01676 -89.25,-7.9e-4 -89.25,-7.9e-4 v 85.02053 85.02053 l 89.25,-0.0548 89.25,-0.0547 v 17.02786 17.02786 l -89.25,0.006 -89.25,0.006 v 92 92 h -18 -18 v -92.00427 -92.00428 l -113.25,0.25428 -113.25,0.25427 -0.25523,91.75 -0.25524,91.75 h -17.49476 -17.49477 z m 262,-211.07004 v -84.93851 l -113.25,0.25428 -113.25,0.25427 -0.25825,83.5 c -0.14203,45.925 -0.0382,84.07675 0.23077,84.78166 0.39397,1.03258 22.45442,1.26273 113.50825,1.18424 l 113.01923,-0.0974 z m -167.26244,57.30834 c -5.90566,-5.92403 -10.73756,-11.2761 -10.73756,-11.89349 0,-0.6174 9.6995,-11.11666 21.55445,-23.33169 11.85494,-12.21504 21.41744,-22.81758 21.25,-23.5612 -0.16745,-0.74362 -9.88719,-11.08068 -21.59944,-22.97123 l -21.29498,-21.61919 7.95037,-8.68075 c 4.3727,-4.77441 9.27873,-9.94093 10.9023,-11.48114 l 2.95193,-2.80039 22.72356,22.55039 c 12.49796,12.40271 23.02467,22.56188 23.39269,22.57593 0.36801,0.014 10.68408,-10.22346 22.9246,-22.75 l 22.25547,-22.77554 10.98877,11.5 c 6.04383,6.325 10.87886,11.77902 10.74453,12.12003 -0.13434,0.34102 -9.80675,10.41462 -21.49425,22.38578 -11.6875,11.97116 -21.25,22.20761 -21.25,22.74766 0,0.54006 9.94799,11.01928 22.10664,23.28717 15.47923,15.61828 21.86504,22.70308 21.30072,23.6323 -0.44326,0.72988 -5.31718,5.94761 -10.83092,11.59496 l -10.02499,10.2679 -23.27572,-23.25992 -23.27573,-23.25992 -23.26244,23.24664 -23.26245,23.24665 z M 373.50679,673.07715 c -12.375,-12.50893 -22.73826,-22.78414 -23.02947,-22.83379 -0.2912,-0.0497 -10.4558,9.80972 -22.588,21.90972 -12.13219,12.1 -22.70197,22 -23.4884,22 -0.78643,0 -6.11219,-4.69831 -11.83503,-10.4407 l -10.40516,-10.44069 16.09331,-16.80931 c 8.85132,-9.24511 18.60419,-19.26893 21.67303,-22.27514 3.06885,-3.00621 5.57972,-5.89433 5.57972,-6.41804 0,-0.52371 -9.5625,-10.56534 -21.25,-22.31473 -11.6875,-11.74938 -21.36442,-21.69203 -21.50427,-22.09476 -0.13984,-0.40273 4.66964,-5.64086 10.68774,-11.6403 l 10.942,-10.90807 11.81226,11.07977 c 6.49675,6.09388 16.71604,16.07078 22.70953,22.17088 5.9935,6.1001 11.17234,11.09109 11.50853,11.09109 0.33619,0 10.50359,-9.9 22.59421,-22 12.09062,-12.1 22.46032,-22 23.04376,-22 1.05627,0 20.61902,20.42472 21.32913,22.26893 0.20509,0.53263 -9.4453,10.79423 -21.44531,22.80355 l -21.8182,21.83512 21.69531,22.00872 c 11.93242,12.1048 21.67382,22.36309 21.64756,22.79621 -0.0263,0.43311 -4.86376,5.77518 -10.75,11.87126 l -10.70225,11.0838 z m 175.4679,11.53069 c -5.75074,-6.02512 -10.3461,-11.46698 -10.2119,-12.09302 0.1342,-0.62605 9.469,-10.68822 20.744,-22.3604 11.275,-11.67217 20.6678,-21.67586 20.87289,-22.23041 0.20509,-0.55456 -9.35749,-10.74622 -21.25019,-22.64813 l -21.62308,-21.63986 10.58192,-11.24147 c 5.82006,-6.18281 11.10765,-11.24696 11.75019,-11.25368 0.64255,-0.007 10.88696,9.89329 22.76537,22 11.8784,12.10672 22.03097,22.01221 22.56125,22.01221 0.53029,0 10.71767,-9.9 22.63862,-22 11.92095,-12.1 22.02606,-22 22.4558,-22 0.42973,0 5.70442,4.9384 11.72152,10.97421 l 10.94019,10.97421 -21.70724,21.9109 c -11.93898,12.05099 -21.70724,22.36259 -21.70724,22.91465 0,0.55207 9.71989,11.01888 21.59975,23.25959 l 21.59975,22.25583 -11.13861,11.10531 -11.13861,11.1053 -22.60366,-22.80786 -22.60366,-22.80785 -22.41321,22.30785 c -12.32727,12.26932 -22.63028,22.5125 -22.89558,22.76262 -0.2653,0.25012 -5.18752,-4.47488 -10.93827,-10.5 z m 289.5321,-0.0175 c -3.575,-0.77206 -9.29707,-2.82078 -12.71572,-4.55271 -30.6305,-15.51782 -42.84227,-52.32349 -27.78502,-83.74268 4.94913,-10.32711 17.23957,-22.55419 27.69211,-27.54937 19.67435,-9.4022 41.06708,-8.49112 59.41339,2.53033 14.13728,8.49289 26.34654,27.37059 28.60134,44.22279 1.36773,10.22231 0.16009,21.9279 -3.18451,30.86713 -2.98269,7.97196 -10.71544,19.43766 -16.78736,24.89138 -13.69039,12.29651 -35.57383,17.57902 -55.23423,13.33313 z m 27.56038,-34.57063 c 9.28972,-4.36669 15.63168,-14.71305 15.82539,-25.81776 0.1567,-8.98386 -2.21098,-14.64768 -8.68143,-20.76716 -7.03793,-6.65618 -12.57979,-8.68106 -22.08888,-8.0708 -11.29499,0.72486 -19.66106,6.35716 -24.19542,16.2891 -3.17202,6.94792 -3.79011,11.40043 -2.46718,17.77293 3.87452,18.66346 24.25451,28.75056 41.60752,20.59369 z M 342.97095,466.16206 c -27.38713,-3.8154 -48.23258,-25.69704 -51.347,-53.89935 -2.18043,-19.74466 5.08572,-38.69676 20.24219,-52.79712 18.23263,-16.96218 46.70281,-20.06175 69.78033,-7.59706 12.73448,6.87819 23.92335,20.51072 28.38651,34.58617 3.34916,10.56221 3.52827,27.61724 0.38836,36.97993 -3.48146,10.38114 -8.04399,17.76034 -15.91455,25.73934 -7.85249,7.96068 -17.24163,13.4452 -27,15.77161 -6.77516,1.61521 -17.76321,2.16 -24.53584,1.21648 z M 365.52066,430.065 c 10.16064,-5.41556 15.3078,-13.78004 15.3298,-24.91192 0.01,-5.05907 -0.56173,-7.60841 -2.57902,-11.5 -9.88915,-19.07735 -33.32902,-22.78855 -47.11153,-7.45908 -14.32536,15.93325 -7.29902,40.86119 13.13921,46.61508 6.976,1.96393 14.12208,1.03989 21.22154,-2.74408 z m 478.48613,36.45251 c -19.6358,-3.01006 -37.50021,-15.68685 -45.79059,-32.49353 -13.02901,-26.41306 -6.52576,-57.24694 16.06448,-76.1666 11.76786,-9.85576 25.86944,-14.3309 42.00368,-13.32987 16.4578,1.0211 29.66023,7.09637 40.63594,18.69918 9.89653,10.46196 14.66464,20.55885 16.60922,35.17144 2.50035,18.78904 -5.17576,39.46864 -19.51508,52.57397 -10.43773,9.53949 -23.24487,14.77343 -38.0245,15.5396 -4.94073,0.25613 -10.33315,0.25874 -11.98315,0.006 z m 22.09107,-35.86518 c 10.68947,-5.22987 16.02295,-15.0299 15.19563,-27.92127 -0.995,-15.50425 -12.26659,-25.87058 -28.2867,-26.01491 -11.93785,-0.10756 -21.86726,6.3265 -26.83128,17.38612 -2.82987,6.30483 -2.85708,16.95366 -0.0589,23.06203 6.68042,14.58343 25.06532,20.78573 39.98129,13.48803 z M 296.86227,239.87317 c -3.26611,-3.42105 -8.03629,-8.49436 -10.60038,-11.27402 l -4.66199,-5.05394 21.95344,-22.80457 c 12.0744,-12.54252 21.95345,-23.22124 21.95345,-23.73049 0,-0.50926 -9.675,-10.7743 -21.5,-22.81121 -11.825,-12.03691 -21.5,-22.2634 -21.5,-22.72554 0,-1.16882 17.78703,-20.13598 19.98752,-21.31364 1.50492,-0.80541 5.47597,2.65659 24.65318,21.49287 12.57261,12.3491 23.09155,22.46361 23.37541,22.47668 0.28385,0.0131 10.61662,-10.10123 22.96169,-22.47623 12.34508,-12.375 22.75019,-22.5 23.12246,-22.5 1.00639,0 20.89974,21.60562 20.89974,22.69863 0,0.51615 -9.5625,10.75313 -21.25,22.74884 -11.6875,11.99572 -21.37023,22.11306 -21.51718,22.483 -0.14695,0.36993 9.52805,10.72396 21.5,23.00897 11.97195,12.285 21.88977,22.83681 22.03961,23.44846 0.14983,0.61166 -4.61623,5.98321 -10.59126,11.93679 l -10.86368,10.8247 -23.19264,-23.43766 -23.19263,-23.43766 -19.21611,19.45931 c -10.56886,10.70262 -21.28749,21.2025 -23.81917,23.33306 l -4.60306,3.87375 z m 298.40078,5.24656 c -30.75346,-4.78221 -51.68632,-29.42142 -51.74148,-60.90276 -0.0427,-24.39011 12.04504,-43.86312 34.1376,-54.99457 17.80245,-8.96985 42.59356,-7.74654 58.41902,2.88267 22.27319,14.95983 32.99604,39.33594 28.04722,63.75936 -5.8413,28.82802 -27.05038,47.52278 -56.33263,49.65446 -3.73229,0.2717 -9.37067,0.0921 -12.52973,-0.39916 z m 16.99691,-33.48599 c 6.92275,-2.05584 14.09663,-7.94978 17.71967,-14.5582 2.57627,-4.69912 2.9649,-6.42294 2.91327,-12.92246 -0.0479,-6.02685 -0.57008,-8.49978 -2.65862,-12.59002 -5.03568,-9.86197 -14.6888,-15.81836 -25.72749,-15.87496 -9.20338,-0.0472 -14.81613,2.38922 -20.94004,9.08975 -10.37267,11.34935 -10.7029,27.29804 -0.78797,38.05448 8.27078,8.97273 18.56024,12.04458 29.48118,8.80141 z m 266.75481,10.95113 -22.85583,-23.56822 -23.08389,23.06822 c -12.69614,12.68751 -23.52302,23.06821 -24.05975,23.06821 -0.53672,0 -5.80853,-4.81769 -11.71514,-10.70599 l -10.73929,-10.70599 7.66766,-8.04401 c 4.21722,-4.4242 14.42523,-14.9184 22.68447,-23.32044 l 15.01681,-15.27643 -14.96841,-15.22357 c -8.23263,-8.37296 -18.29353,-18.67532 -22.35757,-22.89412 l -7.38915,-7.67055 10.80441,-11.07945 c 5.94243,-6.0937 11.10918,-11.07945 11.48167,-11.07945 0.37248,0 10.89568,10.26581 23.38488,22.81292 l 22.70763,22.81291 13.20676,-13.56291 c 7.26372,-7.45961 17.60299,-17.82154 22.97617,-23.02652 l 9.76941,-9.46359 10.98059,10.94654 c 6.03932,6.0206 10.98059,11.32728 10.98059,11.79262 0,0.46534 -9.97587,10.93647 -22.16861,23.26918 l -22.16861,22.42309 18.30103,18.74788 c 10.06556,10.31133 20.32337,20.67251 22.79512,23.02483 l 4.4941,4.27695 -5.83952,6.22305 c -12.08879,12.88278 -15.86619,16.72305 -16.44925,16.72305 -0.33025,0 -10.88558,-10.6057 -23.45628,-23.56821 z"
       id="path1" /></g></svg>
