<?xml version="1.0" encoding="UTF-8" standalone="no"?>
<!-- Created with Inkscape (http://www.inkscape.org/) -->

<svg
   version="1.1"
   id="svg2397"
   width="432"
   height="384"
   viewBox="0 0 432 384"
   xmlns="http://www.w3.org/2000/svg"
   xmlns:svg="http://www.w3.org/2000/svg">
  <defs
     id="defs2401">
    <clipPath
       clipPathUnits="userSpaceOnUse"
       id="clipPath2497">
      <path
         d="M 40.5,36 H 291.6 V 253.44 H 40.5 Z"
         id="path2495" />
    </clipPath>
    <clipPath
       clipPathUnits="userSpaceOnUse"
       id="clipPath2509">
      <path
         d="M 40.5,36 H 291.6 V 253.44 H 40.5 Z"
         id="path2507" />
    </clipPath>
  </defs>
  <g
     id="g2405"
     transform="matrix(1.3333333,0,0,-1.3333333,0,384)">
    <path
       d="M 51.913636,36 V 32.5"
       style="fill:#000000;fill-opacity:1;fill-rule:nonzero;stroke:#ffffff;stroke-width:0.8;stroke-linecap:butt;stroke-linejoin:round;stroke-miterlimit:10;stroke-dasharray:none;stroke-opacity:1"
       id="path2411" />
    <text
       xml:space="preserve"
       transform="matrix(1,0,0,-1,43.960511,21.40625)"
       style="font-variant:normal;font-weight:normal;font-size:10px;font-family:DejaVuSans;-inkscape-font-specification:DejaVuSans;writing-mode:lr-tb;fill:#ececec;fill-opacity:1;fill-rule:nonzero;stroke:none"
       id="text2415"><tspan
         x="0 6.3600001 9.54"
         y="0"
         id="tspan2413">0.0</tspan></text>
    <path
       d="M 97.568182,36 V 32.5"
       style="fill:#000000;fill-opacity:1;fill-rule:nonzero;stroke:#fbfbfb;stroke-width:0.8;stroke-linecap:butt;stroke-linejoin:round;stroke-miterlimit:10;stroke-dasharray:none;stroke-opacity:1"
       id="path2417" />
    <text
       xml:space="preserve"
       transform="matrix(1,0,0,-1,89.615057,21.40625)"
       style="font-variant:normal;font-weight:normal;font-size:10px;font-family:DejaVuSans;-inkscape-font-specification:DejaVuSans;writing-mode:lr-tb;fill:#ececec;fill-opacity:1;fill-rule:nonzero;stroke:none"
       id="text2421"><tspan
         x="0 6.3600001 9.54"
         y="0"
         id="tspan2419">0.2</tspan></text>
    <path
       d="M 143.22273,36 V 32.5"
       style="fill:#000000;fill-opacity:1;fill-rule:nonzero;stroke:#fbfbfb;stroke-width:0.8;stroke-linecap:butt;stroke-linejoin:round;stroke-miterlimit:10;stroke-dasharray:none;stroke-opacity:1"
       id="path2423" />
    <text
       xml:space="preserve"
       transform="matrix(1,0,0,-1,135.2696,21.40625)"
       style="font-variant:normal;font-weight:normal;font-size:10px;font-family:DejaVuSans;-inkscape-font-specification:DejaVuSans;writing-mode:lr-tb;fill:#ececec;fill-opacity:1;fill-rule:nonzero;stroke:none"
       id="text2427"><tspan
         x="0 6.3600001 9.54"
         y="0"
         id="tspan2425">0.4</tspan></text>
    <path
       d="M 188.87727,36 V 32.5"
       style="fill:#000000;fill-opacity:1;fill-rule:nonzero;stroke:#fbfbfb;stroke-width:0.8;stroke-linecap:butt;stroke-linejoin:round;stroke-miterlimit:10;stroke-dasharray:none;stroke-opacity:1"
       id="path2429" />
    <text
       xml:space="preserve"
       transform="matrix(1,0,0,-1,180.92415,21.40625)"
       style="font-variant:normal;font-weight:normal;font-size:10px;font-family:DejaVuSans;-inkscape-font-specification:DejaVuSans;writing-mode:lr-tb;fill:#ececec;fill-opacity:1;fill-rule:nonzero;stroke:none"
       id="text2433"><tspan
         x="0 6.3600001 9.54"
         y="0"
         id="tspan2431">0.6</tspan></text>
    <path
       d="M 234.53182,36 V 32.5"
       style="fill:#000000;fill-opacity:1;fill-rule:nonzero;stroke:#fbfbfb;stroke-width:0.8;stroke-linecap:butt;stroke-linejoin:round;stroke-miterlimit:10;stroke-dasharray:none;stroke-opacity:1"
       id="path2435" />
    <text
       xml:space="preserve"
       transform="matrix(1,0,0,-1,226.57869,21.40625)"
       style="font-variant:normal;font-weight:normal;font-size:10px;font-family:DejaVuSans;-inkscape-font-specification:DejaVuSans;writing-mode:lr-tb;fill:#ececec;fill-opacity:1;fill-rule:nonzero;stroke:none"
       id="text2439"><tspan
         x="0 6.3600001 9.54"
         y="0"
         id="tspan2437">0.8</tspan></text>
    <path
       d="M 280.18636,36 V 32.5"
       style="fill:#000000;fill-opacity:1;fill-rule:nonzero;stroke:#fbfbfb;stroke-width:0.8;stroke-linecap:butt;stroke-linejoin:round;stroke-miterlimit:10;stroke-dasharray:none;stroke-opacity:1"
       id="path2441" />
    <text
       xml:space="preserve"
       transform="matrix(1,0,0,-1,272.23324,21.40625)"
       style="font-variant:normal;font-weight:normal;font-size:10px;font-family:DejaVuSans;-inkscape-font-specification:DejaVuSans;writing-mode:lr-tb;fill:#ececec;fill-opacity:1;fill-rule:nonzero;stroke:none"
       id="text2445"><tspan
         x="0 6.3600001 9.54"
         y="0"
         id="tspan2443">1.0</tspan></text>
    <text
       xml:space="preserve"
       transform="matrix(1,0,0,-1,91.885937,7.734375)"
       style="font-variant:normal;font-weight:normal;font-size:10px;font-family:DejaVuSans;-inkscape-font-specification:DejaVuSans;writing-mode:lr-tb;fill:#ececec;fill-opacity:1;fill-rule:nonzero;stroke:none"
       id="text2449"><tspan
         x="0 6.0300002 10.14 16.26 22.610001 28.73 32.84 36.759998 39.540001 45.66 52 55.18 61.299999 64.82 68 72.110001 78.260002 88 94.120003 100.04 106.19 112.54 115.72 121.64 127.77 130.55 136.89 143.03999"
         y="0"
         id="tspan2447">Proportion of removed values</tspan></text>
    <path
       d="M 40.5,36 H 37"
       style="fill:#000000;fill-opacity:1;fill-rule:nonzero;stroke:#ffffff;stroke-width:0.8;stroke-linecap:butt;stroke-linejoin:round;stroke-miterlimit:10;stroke-dasharray:none;stroke-opacity:1"
       id="path2451" />
    <text
       xml:space="preserve"
       transform="matrix(1,0,0,-1,17.59375,32.203125)"
       style="font-variant:normal;font-weight:normal;font-size:10px;font-family:DejaVuSans;-inkscape-font-specification:DejaVuSans;writing-mode:lr-tb;fill:#f1f1f1;fill-opacity:1;fill-rule:nonzero;stroke:none"
       id="text2455"><tspan
         x="0 6.3600001 9.54"
         y="0"
         id="tspan2453">0.5</tspan></text>
    <path
       d="M 40.5,79.488 H 37"
       style="fill:#000000;fill-opacity:1;fill-rule:nonzero;stroke:#ffffff;stroke-width:0.8;stroke-linecap:butt;stroke-linejoin:round;stroke-miterlimit:10;stroke-dasharray:none;stroke-opacity:1"
       id="path2457" />
    <text
       xml:space="preserve"
       transform="matrix(1,0,0,-1,17.59375,75.691125)"
       style="font-variant:normal;font-weight:normal;font-size:10px;font-family:DejaVuSans;-inkscape-font-specification:DejaVuSans;writing-mode:lr-tb;fill:#f1f1f1;fill-opacity:1;fill-rule:nonzero;stroke:none"
       id="text2461"><tspan
         x="0 6.3600001 9.54"
         y="0"
         id="tspan2459">0.6</tspan></text>
    <path
       d="M 40.5,122.976 H 37"
       style="fill:#000000;fill-opacity:1;fill-rule:nonzero;stroke:#ffffff;stroke-width:0.8;stroke-linecap:butt;stroke-linejoin:round;stroke-miterlimit:10;stroke-dasharray:none;stroke-opacity:1"
       id="path2463" />
    <text
       xml:space="preserve"
       transform="matrix(1,0,0,-1,17.59375,119.17913)"
       style="font-variant:normal;font-weight:normal;font-size:10px;font-family:DejaVuSans;-inkscape-font-specification:DejaVuSans;writing-mode:lr-tb;fill:#f1f1f1;fill-opacity:1;fill-rule:nonzero;stroke:none"
       id="text2467"><tspan
         x="0 6.3600001 9.54"
         y="0"
         id="tspan2465">0.7</tspan></text>
    <path
       d="M 40.5,166.464 H 37"
       style="fill:#000000;fill-opacity:1;fill-rule:nonzero;stroke:#ffffff;stroke-width:0.8;stroke-linecap:butt;stroke-linejoin:round;stroke-miterlimit:10;stroke-dasharray:none;stroke-opacity:1"
       id="path2469" />
    <text
       xml:space="preserve"
       transform="matrix(1,0,0,-1,17.59375,162.66712)"
       style="font-variant:normal;font-weight:normal;font-size:10px;font-family:DejaVuSans;-inkscape-font-specification:DejaVuSans;writing-mode:lr-tb;fill:#f1f1f1;fill-opacity:1;fill-rule:nonzero;stroke:none"
       id="text2473"><tspan
         x="0 6.3600001 9.54"
         y="0"
         id="tspan2471">0.8</tspan></text>
    <path
       d="M 40.5,209.952 H 37"
       style="fill:#000000;fill-opacity:1;fill-rule:nonzero;stroke:#ffffff;stroke-width:0.8;stroke-linecap:butt;stroke-linejoin:round;stroke-miterlimit:10;stroke-dasharray:none;stroke-opacity:1"
       id="path2475" />
    <text
       xml:space="preserve"
       transform="matrix(1,0,0,-1,17.59375,206.15512)"
       style="font-variant:normal;font-weight:normal;font-size:10px;font-family:DejaVuSans;-inkscape-font-specification:DejaVuSans;writing-mode:lr-tb;fill:#f1f1f1;fill-opacity:1;fill-rule:nonzero;stroke:none"
       id="text2479"><tspan
         x="0 6.3600001 9.54"
         y="0"
         id="tspan2477">0.9</tspan></text>
    <path
       d="M 40.5,253.44 H 37"
       style="fill:#000000;fill-opacity:1;fill-rule:nonzero;stroke:#ffffff;stroke-width:0.8;stroke-linecap:butt;stroke-linejoin:round;stroke-miterlimit:10;stroke-dasharray:none;stroke-opacity:1"
       id="path2481" />
    <text
       xml:space="preserve"
       transform="matrix(1,0,0,-1,17.59375,249.64312)"
       style="font-variant:normal;font-weight:normal;font-size:10px;font-family:DejaVuSans;-inkscape-font-specification:DejaVuSans;writing-mode:lr-tb;fill:#f1f1f1;fill-opacity:1;fill-rule:nonzero;stroke:none"
       id="text2485"><tspan
         x="0 6.3600001 9.54"
         y="0"
         id="tspan2483">1.0</tspan></text>
    <text
       xml:space="preserve"
       transform="matrix(0,1,1,0,11.515625,95.516875)"
       style="font-variant:normal;font-weight:normal;font-size:10px;font-family:DejaVuSans;-inkscape-font-specification:DejaVuSans;writing-mode:lr-tb;fill:#f1f1f1;fill-opacity:1;fill-rule:nonzero;stroke:none"
       id="text2489"><tspan
         x="0 6.0300002 10.14 16.290001 22.639999 25.42 30.92 34.84 37.619999 43.740002 50.080002 53.259998 59.389999 64.889999 70.389999 76.730003 80.839996 86.970001 92.470001"
         y="0"
         id="tspan2487">Prediction accuracy</tspan></text>
    <g
       id="g2491"
       style="fill:none;fill-opacity:1;stroke:#ffffff;stroke-opacity:1">
      <g
         id="g2493"
         clip-path="url(#clipPath2497)"
         style="fill:none;fill-opacity:1;stroke:#ffffff;stroke-opacity:1">
        <path
           d="M 51.913636,115.83697 H 280.18636"
           style="fill:none;fill-opacity:1;stroke:#ffffff;stroke-width:1.5;stroke-linecap:butt;stroke-linejoin:round;stroke-miterlimit:10;stroke-dasharray:5.55, 2.4;stroke-dashoffset:0;stroke-opacity:1"
           id="path2499" />
        <path
           d="M 51.913636,212.32945 H 280.18636"
           style="fill:none;fill-opacity:1;stroke:#ffffff;stroke-width:1.5;stroke-linecap:butt;stroke-linejoin:round;stroke-miterlimit:10;stroke-dasharray:5.55, 2.4;stroke-dashoffset:0;stroke-opacity:1"
           id="path2501" />
      </g>
    </g>
    <g
       id="g2503"
       style="stroke:#fa7b4c;stroke-opacity:1">
      <g
         id="g2505"
         clip-path="url(#clipPath2509)"
         style="stroke:#fa7b4c;stroke-opacity:1">
        <path
           d="m 51.913636,221.96538 8.902637,0.0843 0.456545,-0.0133 1.826182,0.0432 1.826182,0.026 0.913091,0.009 0.456545,0.004 4.108909,0.0364 6.619909,0.0779 0.456546,-0.004 2.054454,-0.0123 0.684819,0.0565 5.250272,9.9e-4 0.456546,0.0302 0.913091,-0.009 4.793727,0.0118 1.141364,-0.009 1.141363,0.0243 0.913091,0.0334 0.228273,-0.0474 0.456545,0.0725 1.141364,-0.0261 1.597909,-0.006 3.88064,-0.0361 0.45654,0.0317 6.84818,0.006 1.14137,-0.0851 0.22827,0.1047 0.68482,-0.0664 1.36963,0.0405 2.05446,-0.01 0.68482,0.002 0.91309,0.006 1.59791,-0.0627 0.68482,0.058 0.45654,-0.0231 1.36964,0.0234 0.45654,-0.06 0.68482,0.017 0.68482,0.0378 0.22827,-0.0821 0.45655,0.0268 1.82618,-0.005 0.22827,0.0329 0.22828,-0.0961 0.45654,0.0587 0.22827,-0.0624 0.45655,0.0499 1.36964,-0.0649 0.45654,0.0189 0.45654,0.008 3.65237,-0.0777 0.68482,2.3e-4 0.22827,-0.0644 0.22827,0.10002 1.59791,-0.11208 0.68482,0.0826 0.45654,-0.10618 0.68482,0.0248 0.45655,-0.0413 0.68482,0.0329 0.22827,0.0359 0.45654,-0.0634 0.45655,0.0246 1.14136,-0.12706 0.45655,0.10444 1.36964,-0.0501 0.45654,0.0325 0.91309,-0.0936 0.91309,0.0241 0.45655,-0.0727 1.36963,0.008 3.65237,-0.17644 0.45654,0.089 0.45655,-0.0521 0.68482,-0.0464 0.68482,0.0369 0.22827,-0.0993 0.45654,0.0774 1.14137,-0.0811 0.45654,0.0216 0.45655,-0.0157 0.45654,0.0437 0.45655,-0.10371 0.91309,-0.001 1.14136,-0.0462 1.59791,-0.0258 2.28273,-0.14821 0.22827,0.11182 0.45655,-0.13321 0.22827,0.0681 0.45655,-0.06 0.68481,-0.0248 1.14137,-0.005 0.22827,-0.12486 1.59791,0.0789 0.22827,-0.07 0.22828,-0.19908 0.68481,0.2384 1.59791,-0.18015 0.22828,0.10101 0.45654,-0.15952 0.45655,0.005 0.68481,0.028 0.68482,-0.0843 0.22828,0.0607 0.45654,-0.12117 0.22827,-0.0401 0.22828,0.13836 0.91309,-0.16688 0.68482,-0.005 0.68481,-0.0202 5.93509,-0.27574 0.22828,0.0926 0.22827,-0.18948 0.45655,0.002 0.45654,-0.0823 0.22827,0.0538 0.22828,-0.12116 0.22827,0.0813 1.14136,-0.11208 5.25028,-0.36201 0.22827,-0.0779 0.22827,0.14306 0.22827,-0.0924 0.22828,0.0415 0.22827,-0.18655 0.45654,0.0248 0.45655,-0.12608 0.22827,0.14083 0.45655,-0.10568 0.68482,-0.0985 0.22827,0.20177 0.45654,-0.29345 0.22828,0.16615 0.22827,-0.075 0.22827,0.0838 0.45655,-0.12558 0.45654,0.0405 0.68482,-0.14599 0.45655,-0.057 0.22827,-0.1519 0.22827,0.11452 0.68482,-0.1767 0.22827,0.20915 0.22828,-0.23691 0.45654,0.10124 0.22827,-0.11869 0.68482,0.0722 1.14137,-0.3013 0.45654,0.14549 0.22827,-0.15163 0.22828,0.0752 0.68482,-0.22831 0.45654,0.0917 0.22827,-0.008 0.22828,-0.13443 0.45654,0.0514 1.82618,-0.1492 0.22828,-0.11623 0.22827,0.15827 0.22827,-0.15902 0.22827,0.12535 1.14137,-0.31139 1.36963,-0.0583 0.22828,-0.27992 0.68482,0.21922 0.45654,-0.13466 0.22827,-0.15216 0.22828,0.16346 0.22827,-0.25732 0.22827,0.1047 0.68482,-0.10496 0.45655,-0.0145 0.22827,-0.20965 1.36963,-0.0388 0.9131,-0.22955 0.22827,0.0528 0.22827,-0.0949 0.22827,0.12779 0.22828,-0.20939 0.68481,0.0882 0.22828,-0.20229 0.22827,-0.0514 0.22827,0.16245 0.68482,-0.37137 0.91309,0.15877 0.22827,-0.18358 0.22828,0.015 0.68482,-0.34211 0.22827,0.24799 0.45654,-0.0612 0.45655,-0.22219 0.22827,0.13787 0.91309,-0.42002 0.22828,0.0787 0.68481,-0.24529 0.22828,0.14181 1.14136,-0.0865 0.45655,-0.39937 0.22827,0.0985 0.22827,-0.0796 0.45655,0.072 0.22827,-0.18898 0.68482,0.0327 0.22827,-0.41217 0.45655,0.23718 0.22827,-0.33451 0.22827,0.18139 0.22827,-0.3281 0.22828,0.2084 0.22827,-0.24184 0.45654,0.043 0.22828,-0.009 0.22827,-0.13738 0.22827,0.0725 0.22828,-0.30547 0.22827,0.22732 0.22827,-0.28927 0.45655,0.30057 0.22827,-0.48562 0.45654,0.13344 0.22828,-0.33081 0.22827,0.16836 0.45655,-0.31089 0.22827,0.17325 0.45654,-0.31753 0.45655,-0.0826 0.22827,-0.1654 0.22827,0.14795 0.45655,-0.16099 0.45655,-0.17989 0.45654,-0.0167 0.22827,-0.14182 0.22828,0.0364 0.68481,-0.42127 0.45655,-0.10272 0.22827,0.071 0.45655,-0.36276 0.22827,0.40037 0.45655,-0.66285 0.22827,0.0209 0.22827,0.22194 0.22827,-0.50852 0.22828,0.40922 0.22827,-0.47705 0.45655,-0.056 0.45654,-0.25685 0.22827,-0.17644 0.22828,0.22953 0.22827,-0.31579 0.22827,0.0317 0.22827,-0.29296 0.22828,0.0936 0.22827,-0.40725 0.45655,0.35613 0.22827,-0.58838 0.22827,0.043 0.68482,-0.24796 0.22827,-0.56161 0.22827,0.56479 0.22828,-0.13468 0.22827,-0.57583 0.22827,0.17154 0.22828,-0.36743 0.22827,0.33081 0.22827,-0.37653 0.22827,-0.0555 0.22828,-0.508 0.45654,0.34211 0.68482,-0.70585 0.45655,-0.21455 0.22827,-0.37801 0.45654,0.0243 0.22828,-0.59008 0.45654,0.53381 0.22827,-0.71251 0.45655,-0.0135 0.68482,-0.49081 0.22827,-0.1681 0.68482,-0.79211 0.22827,0.14795 0.22827,-0.5407 0.22828,-0.20105 0.22827,0.17499 0.22827,-0.60779 0.22828,0.26126 0.22827,-0.007 0.22827,-0.68151 0.22827,0.0145 0.45655,-0.87936 0.22827,0.0806 0.45655,-0.74665 0.22827,0.42199 0.22827,-0.49965 0.45655,-0.18531 0.22827,-0.59576 0.22827,0.20646 0.22828,-0.42715 0.22827,-1.03051 0.22827,0.12657 1.14137,-1.53657 0.22827,-0.25583 0.22827,0.27598 0.22827,-1.00519 0.22828,-0.27673 0.22827,0.20692 0.22827,-1.19344 0.22827,0.33129 0.22828,-0.67736 0.22827,-0.10247 0.22827,-0.38586 0.22828,-0.74543 0.22827,0.0206 0.22827,-0.97618 0.22827,0.22463 0.22828,-1.13053 0.22827,0.13515 0.22827,-0.86682 0.22827,-0.22095 0.45655,-1.01898 0.22827,0.0651 0.22828,-0.929 0.22827,-0.38342 0.45654,-1.42153 0.22828,-0.0661 0.22827,-0.96685 0.22827,-0.28707 0.45655,-1.40334 0.22827,-1.09367 0.22827,0.3013 0.22828,-1.70982 0.22827,-0.60707 0.22827,-0.27328 0.22827,-0.0713 0.45655,-2.11608 0.45654,-0.57264 0.22828,-1.54616 0.22827,-0.38438 0.22827,-1.44882 0.22828,-0.46867 0.22827,-1.34978 0.22827,-0.31605 0.22828,-0.55888 0.45654,-2.33459 0.22827,-1.02561 0.22827,-1.90643 0.22828,-0.42445 1.82618,-9.36705 0.22827,-2.48229 0.22827,-0.3652 0.45655,-4.25996 0.22827,-0.14622 0.22828,-2.17803 0.22827,-1.09736 0.22827,-2.27412 0.22827,-0.15508 0.22828,-1.80052 0.45654,-5.36295 0.22827,-0.30451 0.22828,-2.31614 0.22827,-1.12514 0.22827,-3.28597 0.22828,-1.13396 2.511,-27.47544 0.68481,-10.121584 0.91309,-14.882388 0.68482,-16.898203 v 0"
           style="fill:none;stroke:#fa7b4c;stroke-width:1.5;stroke-linecap:square;stroke-linejoin:round;stroke-miterlimit:10;stroke-dasharray:none;stroke-opacity:1"
           id="path2511" />
      </g>
    </g>
    <path
       d="M 40.5,36 V 253.44"
       style="fill:none;stroke:#ffffff;stroke-width:0.8;stroke-linecap:square;stroke-linejoin:miter;stroke-miterlimit:10;stroke-dasharray:none;stroke-opacity:1"
       id="path2515" />
    <path
       d="M 291.6,36 V 253.44"
       style="fill:none;stroke:#ffffff;stroke-width:0.8;stroke-linecap:square;stroke-linejoin:miter;stroke-miterlimit:10;stroke-dasharray:none;stroke-opacity:1"
       id="path2517" />
    <path
       d="M 40.5,36 H 291.6"
       style="fill:none;stroke:#ffffff;stroke-width:0.8;stroke-linecap:square;stroke-linejoin:miter;stroke-miterlimit:10;stroke-dasharray:none;stroke-opacity:1"
       id="path2519" />
    <path
       d="M 40.5,253.44 H 291.6"
       style="fill:none;stroke:#ffffff;stroke-width:0.8;stroke-linecap:square;stroke-linejoin:miter;stroke-miterlimit:10;stroke-dasharray:none;stroke-opacity:1"
       id="path2521" />
    <text
       xml:space="preserve"
       transform="scale(1,-1)"
       style="font-variant:normal;font-weight:normal;font-size:10px;font-family:DejaVuSans;-inkscape-font-specification:DejaVuSans;writing-mode:lr-tb;fill:#ffffff;fill-opacity:1;fill-rule:nonzero;stroke:none"
       id="text2525"
       x="51.913635"
       y="-102.79057"><tspan
         x="51.913635 57.943638 62.053635 68.203636 74.553635 77.333633 82.833633 86.753639 89.93364 99.673637 105.80363 108.58363 114.70364 118.81364 121.59364 125.51363 131.43364 134.61363 140.53365 146.65364 150.57364"
         y="-102.79057"
         id="tspan2523">Predict majority vote</tspan></text>
    <text
       xml:space="preserve"
       transform="scale(1,-1)"
       style="font-variant:normal;font-weight:normal;font-size:10px;font-family:DejaVuSans;-inkscape-font-specification:DejaVuSans;writing-mode:lr-tb;fill:#ffffff;fill-opacity:1;fill-rule:nonzero;stroke:none"
       id="text2529"
       x="51.913635"
       y="-199.28305"><tspan
         x="51.913635 57.943638 62.053635 68.203636 74.553635 77.333633 82.833633 86.753639 89.93364 96.283638 102.41364 106.52364 110.44363 116.36363 119.54363 125.46364 131.58363 135.50363"
         y="-199.28305"
         id="tspan2527">Predict party vote</tspan></text>
    <text
       xml:space="preserve"
       transform="scale(1,-1)"
       style="font-variant:normal;font-weight:normal;font-size:12px;font-family:DejaVuSans;-inkscape-font-specification:DejaVuSans;writing-mode:lr-tb;fill:#ffffff;fill-opacity:1;fill-rule:nonzero;stroke:none"
       id="text2533"
       x="142.18282"
       y="-259.44"><tspan
         x="142.18282 150.55881 157.90282 165.5108 170.21481 177.5948 185.2028"
         y="-259.44"
         id="tspan2531">Content</tspan></text>
  </g>
</svg>
