<?xml version="1.0" encoding="UTF-8" standalone="no"?>
<!-- Created with Inkscape (http://www.inkscape.org/) -->

<svg
   width="866.10938"
   height="606.33398"
   viewBox="0 0 866.10938 606.33398"
   version="1.1"
   id="svg1"
   xmlns="http://www.w3.org/2000/svg"
   xmlns:svg="http://www.w3.org/2000/svg">
  <defs
     id="defs1" />
  <g
     id="layer1"
     transform="translate(-163.47461,-96.833008)">
    <path
       id="rect11"
       style="fill:#000000;fill-opacity:1;stroke-width:0.377952"
       d="m 336.24023,96.833009 c -24.22195,0 -43.7207,19.498711 -43.7207,43.720701 v 471.56836 a 85.543411,85.543411 0 0 0 -53.41015,72.87305 c -2.47397,-0.005 -4.94792,-0.007 -7.42188,-0.0117 l -68.21289,18.18359 H 1029.584 L 961.37109,684.9834 c -1.00129,0.004 -2.0026,0.004 -3.0039,0.008 A 85.543411,85.543411 0 0 0 907.48047,613.25293 V 140.55371 c 0,-24.22199 -19.49875,-43.720702 -43.7207,-43.720701 z m 35.08399,31.671871 a 43.019444,43.019444 0 0 1 43.01953,43.01953 43.019444,43.019444 0 0 1 -43.01953,43.01953 43.019444,43.019444 0 0 1 -43.01953,-43.01953 43.019444,43.019444 0 0 1 43.01953,-43.01953 z m 114.33789,0 a 43.019444,43.019444 0 0 1 43.01953,43.01953 43.019444,43.019444 0 0 1 -43.01953,43.01953 43.019444,43.019444 0 0 1 -43.01953,-43.01953 43.019444,43.019444 0 0 1 43.01953,-43.01953 z m 114.33789,0 A 43.019444,43.019444 0 0 1 643.01953,171.52441 43.019444,43.019444 0 0 1 600,214.54394 43.019444,43.019444 0 0 1 556.98047,171.52441 43.019444,43.019444 0 0 1 600,128.50488 Z m 114.33789,0 a 43.019444,43.019444 0 0 1 43.01953,43.01953 43.019444,43.019444 0 0 1 -43.01953,43.01953 43.019444,43.019444 0 0 1 -43.01953,-43.01953 43.019444,43.019444 0 0 1 43.01953,-43.01953 z m 114.33789,0 a 43.019444,43.019444 0 0 1 43.01953,43.01953 43.019444,43.019444 0 0 1 -43.01953,43.01953 43.019444,43.019444 0 0 1 -43.01953,-43.01953 43.019444,43.019444 0 0 1 43.01953,-43.01953 z M 371.32422,245.5498 a 43.019444,43.019444 0 0 1 43.01953,43.01954 43.019444,43.019444 0 0 1 -43.01953,43.01953 43.019444,43.019444 0 0 1 -43.01953,-43.01953 43.019444,43.019444 0 0 1 43.01953,-43.01954 z m 114.33789,0 a 43.019444,43.019444 0 0 1 43.01953,43.01954 43.019444,43.019444 0 0 1 -43.01953,43.01953 43.019444,43.019444 0 0 1 -43.01953,-43.01953 43.019444,43.019444 0 0 1 43.01953,-43.01954 z m 114.33789,0 A 43.019444,43.019444 0 0 1 643.01953,288.56934 43.019444,43.019444 0 0 1 600,331.58887 43.019444,43.019444 0 0 1 556.98047,288.56934 43.019444,43.019444 0 0 1 600,245.5498 Z m 114.33789,0 a 43.019444,43.019444 0 0 1 43.01953,43.01954 43.019444,43.019444 0 0 1 -43.01953,43.01953 43.019444,43.019444 0 0 1 -43.01953,-43.01953 43.019444,43.019444 0 0 1 43.01953,-43.01954 z m 114.33789,0 a 43.019444,43.019444 0 0 1 43.01953,43.01954 43.019444,43.019444 0 0 1 -43.01953,43.01953 43.019444,43.019444 0 0 1 -43.01953,-43.01953 43.019444,43.019444 0 0 1 43.01953,-43.01954 z M 371.32422,362.59277 a 43.019444,43.019444 0 0 1 43.01953,43.01953 43.019444,43.019444 0 0 1 -43.01953,43.01954 43.019444,43.019444 0 0 1 -43.01953,-43.01954 43.019444,43.019444 0 0 1 43.01953,-43.01953 z m 114.33789,0 a 43.019444,43.019444 0 0 1 43.01953,43.01953 43.019444,43.019444 0 0 1 -43.01953,43.01954 43.019444,43.019444 0 0 1 -43.01953,-43.01954 43.019444,43.019444 0 0 1 43.01953,-43.01953 z m 114.33789,0 A 43.019444,43.019444 0 0 1 643.01953,405.6123 43.019444,43.019444 0 0 1 600,448.63184 43.019444,43.019444 0 0 1 556.98047,405.6123 43.019444,43.019444 0 0 1 600,362.59277 Z m 114.33789,0 a 43.019444,43.019444 0 0 1 43.01953,43.01953 43.019444,43.019444 0 0 1 -43.01953,43.01954 43.019444,43.019444 0 0 1 -43.01953,-43.01954 43.019444,43.019444 0 0 1 43.01953,-43.01953 z m 114.33789,0 a 43.019444,43.019444 0 0 1 43.01953,43.01953 43.019444,43.019444 0 0 1 -43.01953,43.01954 43.019444,43.019444 0 0 1 -43.01953,-43.01954 43.019444,43.019444 0 0 1 43.01953,-43.01953 z M 371.32422,479.6377 a 43.019444,43.019444 0 0 1 43.01953,43.01953 43.019444,43.019444 0 0 1 -43.01953,43.01953 43.019444,43.019444 0 0 1 -43.01953,-43.01953 43.019444,43.019444 0 0 1 43.01953,-43.01953 z m 114.33789,0 a 43.019444,43.019444 0 0 1 43.01953,43.01953 43.019444,43.019444 0 0 1 -43.01953,43.01953 43.019444,43.019444 0 0 1 -43.01953,-43.01953 43.019444,43.019444 0 0 1 43.01953,-43.01953 z m 114.33789,0 A 43.019444,43.019444 0 0 1 643.01953,522.65723 43.019444,43.019444 0 0 1 600,565.67676 43.019444,43.019444 0 0 1 556.98047,522.65723 43.019444,43.019444 0 0 1 600,479.6377 Z m 114.33789,0 a 43.019444,43.019444 0 0 1 43.01953,43.01953 43.019444,43.019444 0 0 1 -43.01953,43.01953 43.019444,43.019444 0 0 1 -43.01953,-43.01953 43.019444,43.019444 0 0 1 43.01953,-43.01953 z m 114.33789,0 a 43.019444,43.019444 0 0 1 43.01953,43.01953 43.019444,43.019444 0 0 1 -43.01953,43.01953 43.019444,43.019444 0 0 1 -43.01953,-43.01953 43.019444,43.019444 0 0 1 43.01953,-43.01953 z M 353.97656,596.78613 h 483.79492 v 17.13477 a 85.543411,85.543411 0 0 0 -49.54296,71.51367 c -126.33246,0.18421 -252.66559,0.0156 -378.99805,-0.18945 a 85.543411,85.543411 0 0 0 -55.25391,-73.73633 z" />
  </g>
</svg>
