<?xml version="1.0" encoding="UTF-8" standalone="no"?>
<!-- Created with Inkscape (http://www.inkscape.org/) -->

<svg
   width="666.00006"
   height="556.55511"
   viewBox="0 0 666.00006 556.55511"
   version="1.1"
   id="svg1"
   xml:space="preserve"
   xmlns="http://www.w3.org/2000/svg"
   xmlns:svg="http://www.w3.org/2000/svg"><defs
     id="defs1" /><g
     id="layer1"
     transform="translate(-268.60582,-122.83071)"><path
       style="fill:#000000"
       d="m 268.60582,678.32765 c 0,-0.87693 2.30726,-0.87355 5.57178,-2.01742 6.25389,-2.19131 27.45146,-9.98062 41.1377,-14.20908 0.71526,-0.48639 1.50188,-4.34564 2.17107,-8.1292 2.73683,-15.47398 11.93939,-27.96075 25.54184,-34.65721 l 6.57761,-3.23815 V 379.89537 c 0,-265.68238 -0.6902,-243.12601 7.66433,-250.47996 2.65379,-2.33596 6.59159,-4.62221 9.23172,-5.35984 3.69495,-1.03235 50.21232,-1.27272 235.60395,-1.21748 209.31772,0.0624 231.33534,0.21873 234.57272,1.66585 5.24512,2.34458 10.98536,7.7668 13.06229,12.33863 1.74481,3.84073 1.82216,13.95316 1.84731,241.50858 l 0.0263,237.5 7.24838,3.72077 c 8.39578,4.30977 15.40676,10.81784 20.25943,18.80619 3.14019,5.16932 5.39712,15.15407 6.48362,19.07615 0.62828,2.26798 1.84842,4.10016 2.98368,5.38681 l 46.01632,15.58953 c 0,0.67675 -666,1.81028 -666,-0.10331 z m 513.81965,-23.9765 c 2.9924,-15.42968 12.26892,-27.59493 27.00276,-35.33734 l 7.17759,-3.77172 v -17.44547 -17.44547 h -215.5 -215.5 v 17.79328 17.79329 l 7.22243,3.4493 c 13.45636,6.42649 23.46161,22.07776 26.36867,32.95066 2.88746,10.7996 2.17003,8.3504 3.97745,8.58777 4.124,0.54162 259.58854,-0.0206 351.35401,-1.57426 6.8196,-0.71217 6.63746,1.495 7.89709,-5.00004 z M 426.38997,553.00013 c 6.68095,-3.43557 12.36534,-9.0961 15.93169,-15.86483 2.56976,-4.87724 2.78021,-6.13121 2.7329,-16.28415 -0.0465,-9.97284 -0.30644,-11.49343 -2.78415,-16.28416 -1.50309,-2.90628 -4.54552,-7.09677 -6.76095,-9.31219 -5.92439,-5.9244 -15.90364,-9.69719 -15.90364,-6.01259 0,0.52461 1.6875,1.50667 3.75,2.18235 5.41853,1.77515 15.29672,12.18617 17.50494,18.44917 5.41248,15.35098 -1.08332,30.97728 -16.25494,39.10289 -2.78477,1.49146 -5.6457,1.87453 -14,1.87453 -11.77571,0 -15.46577,-1.31224 -23.1098,-8.21816 -4.35179,-3.93158 -6.16191,-6.91228 -8.94558,-14.73057 -1.61457,-4.53471 -1.80596,-4.73714 -1.87156,-1.97941 -0.17181,7.22353 6.23322,19.41981 12.58372,23.96154 2.46333,1.76171 7.09604,3.96737 12.34322,5.87668 0.825,0.30019 5.55,0.41314 10.5,0.251 7.4678,-0.24462 9.89959,-0.75741 14.28415,-3.0121 z m 93.99925,-0.12761 c 10.55318,-5.74376 16.45609,-13.41026 18.76045,-24.3654 1.81247,-8.6167 0.51602,-17.38749 -3.75445,-25.39972 -6.00779,-11.27175 -16.0419,-17.16861 -29.2894,-17.21284 -10.18936,-0.034 -17.36624,2.37033 -23.24188,7.78631 -18.44405,17.00112 -15.20221,47.86707 6.18897,58.92603 5.71338,2.95374 9.91754,3.6924 18.73533,3.29172 5.99706,-0.27251 8.76145,-0.93637 12.60098,-3.0261 z m 93.53916,0.808 c 6.77857,-2.55054 14.8065,-10.0379 18.26729,-17.03723 2.53649,-5.12997 2.86654,-6.87821 2.88702,-15.29214 0.0215,-8.84163 -0.21378,-9.97218 -3.3953,-16.31327 -3.77727,-7.52848 -9.54308,-13.27397 -16.91922,-16.8596 -3.7917,-1.84319 -6.35557,-2.26785 -13.72955,-2.27405 -8.22791,-0.007 -9.68188,0.29498 -15.70802,3.26164 -28.56775,14.06386 -24.17631,58.36071 6.57098,66.2821 4.79144,1.23441 16.55809,0.29025 22.0268,-1.76745 z m 96.78568,-0.62314 c 14.54329,-7.19424 22.07747,-21.29494 19.8332,-37.11912 -1.21624,-8.57557 -4.05807,-14.44058 -9.75971,-20.14222 -5.88929,-5.88929 -17.18173,-10.17561 -17.18173,-6.52173 0,0.44281 1.9125,1.54096 4.25,2.44032 6.31529,2.42983 12.91617,8.62352 16.28645,15.28179 2.56669,5.07071 2.95825,6.92603 2.924,13.85473 -0.0622,12.58442 -5.34815,21.25574 -16.5514,27.15178 -4.89908,2.57829 -6.35186,2.84675 -15.40905,2.84745 -9.21345,7.1e-4 -10.42068,-0.23225 -15.34835,-2.96169 -6.82827,-3.78219 -13.25174,-10.92796 -15.92603,-17.71688 -1.91304,-4.85644 -2.10157,-5.04776 -2.16077,-2.19279 -0.15518,7.48394 7.88731,19.39543 16.12146,23.87701 7.03401,3.8284 9.95064,4.44958 19.42193,4.13653 6.40885,-0.21183 9.23829,-0.82701 13.5,-2.93518 z m 95.13379,-0.12752 c 7.25329,-3.43136 14.91733,-11.71597 17.68737,-19.11957 4.37406,-11.69071 1.99615,-26.45231 -5.85872,-36.3699 -3.11416,-3.93194 -13.77194,-10.08924 -17.46365,-10.08924 -3.17765,0 -1.51086,2.53646 2.84341,4.32701 6.13276,2.52188 12.55759,8.4469 16.06754,14.81758 2.62488,4.76425 2.94784,6.29368 2.92575,13.85541 -0.021,7.1832 -0.42911,9.27765 -2.63448,13.5198 -3.80152,7.31243 -11.07093,13.67742 -18.15434,15.89569 -8.59654,2.69212 -19.48145,1.89228 -26.54157,-1.95032 -6.69369,-3.64316 -13.47285,-11.1175 -15.6395,-17.24327 -2.86952,-8.11301 -3.49842,-9.1271 -2.92832,-4.7219 1.19405,9.2265 4.65411,16.11978 11.16942,22.25218 8.94105,8.41558 26.33446,10.59456 38.52709,4.82653 z M 426.38997,464.00013 c 7.00214,-3.60074 12.82178,-9.57726 16.06788,-16.50102 2.3144,-4.93649 2.64661,-6.90767 2.6372,-15.64796 -0.01,-8.88856 -0.30585,-10.55573 -2.66581,-15 -4.48132,-8.43923 -15.75995,-17.5 -21.78359,-17.5 -3.5898,0 -2.19599,1.86753 3.35303,4.49264 10.70155,5.06264 18.57947,16.95712 18.59737,28.07922 0.0148,9.17935 -2.40968,15.00736 -8.91613,21.43308 -12.43614,12.28182 -32.25044,12.81836 -45.16072,1.22287 -4.67463,-4.19857 -9.91338,-12.87795 -9.91338,-16.42416 0,-0.99201 -0.45858,-1.80365 -1.01906,-1.80365 -0.99457,0 -0.81956,1.4387 1.08708,8.93681 2.06276,8.11205 10.64964,16.93742 19.74421,20.2926 7.38569,2.72473 21.10762,1.94943 27.97192,-1.58043 z m 91.71585,0.30234 c 8.16939,-3.03269 16.39949,-11.21968 19.37493,-19.27345 2.21626,-5.99885 2.93447,-15.64949 1.57609,-21.17787 -2.30518,-9.38165 -9.60119,-18.44986 -18.66687,-23.20105 -4.68611,-2.45592 -6.35933,-2.77102 -14.78415,-2.78415 -8.15429,-0.0127 -10.2791,0.35175 -15,2.57287 -13.99214,6.58311 -22.37173,23.56313 -19.06317,38.6287 4.85185,22.09292 25.24914,33.14725 46.56317,25.23495 z m 90.88034,1.53783 c 11.27852,-2.93768 18.62567,-9.0118 23.51854,-19.44352 2.21728,-4.72728 2.59345,-6.87374 2.54914,-14.54563 -0.0629,-10.88519 -2.20739,-16.25059 -9.63389,-24.10301 -7.02545,-7.42838 -12.96523,-9.83999 -24.31413,-9.87178 -7.6378,-0.0214 -9.83937,0.36848 -14.54563,2.5759 -7.91493,3.7124 -12.43748,8.1035 -16.18383,15.71341 -3.03451,6.16398 -3.27054,7.36662 -3.27054,16.66445 0,11.68708 1.84914,16.60994 9.00456,23.97233 4.89359,5.03514 8.34898,7.01234 15.72559,8.9983 6.90101,1.85792 10.1403,1.86539 17.15019,0.0396 z m 95.11966,0.15149 c 10.93111,-2.91995 18.12999,-8.71792 23.14462,-18.64064 2.44943,-4.84684 2.78274,-6.62833 2.80658,-15.00109 0.0237,-8.33698 -0.30443,-10.17484 -2.67842,-15 -3.37921,-6.86828 -9.63325,-13.35705 -16.21708,-16.82572 -4.45113,-2.34506 -6.19174,-2.66282 -14.5557,-2.65718 -11.86135,0.008 -17.65646,2.31279 -24.79586,9.86166 -6.64242,7.02337 -9.53135,14.59342 -9.58734,25.12233 -0.0357,6.71747 0.41313,8.99945 2.79985,14.23431 2.96916,6.51236 9.61064,13.67708 15.50254,16.7239 6.56166,3.39317 15.83526,4.25145 23.58081,2.18243 z m 95.56849,-0.24977 c 13.69897,-4.05841 21.90782,-12.82362 24.9814,-26.6745 3.49188,-15.73593 -6.34938,-33.94325 -21.38799,-39.56991 -20.44131,-7.64808 -41.69443,4.848 -45.67205,26.85354 -3.29733,18.242 5.72731,33.58858 23.01015,39.12922 6.94994,2.22805 12.18839,2.29994 19.06849,0.26165 z M 421.71422,382.55338 c 9.62714,-4.19848 15.68883,-13.82304 14.58356,-23.15533 -1.51527,-12.79402 -11.82583,-21.07731 -26.19196,-21.04208 -14.09617,0.0346 -24.79033,10.1345 -24.87751,23.49518 -0.0649,9.94619 5.96961,18.31575 15.84031,21.96969 5.2322,1.93686 14.61952,1.36056 20.6456,-1.26746 z m 94.56653,-0.17585 c 2.65379,-1.17349 6.11948,-3.34699 7.70154,-4.83 3.28626,-3.08051 7.59926,-11.57965 7.61376,-15.00356 0.0385,-9.09343 -6.29561,-18.35715 -15.15885,-22.17002 -4.39006,-1.88855 -6.47236,-2.17691 -12.78768,-1.77087 -10.66069,0.68543 -17.38943,4.78736 -21.55046,13.13746 -4.88239,9.79769 -2.77978,19.78564 5.69164,27.03687 7.86362,6.73096 18.39911,8.06227 28.49005,3.60012 z m 92.89693,1.33238 c 22.10235,-7.36081 23.89152,-33.93518 2.92814,-43.49142 -5.43931,-2.47953 -16.5887,-2.4644 -22.08082,0.03 -4.99248,2.26745 -11.16082,8.39233 -13.19567,13.10268 -0.83158,1.925 -1.52207,6.03248 -1.53441,9.12774 -0.0631,15.82324 17.35277,26.73606 33.88276,21.23102 z m 95.10058,0.14587 c 9.79253,-2.90807 18.34177,-13.3334 18.31779,-22.33754 -0.0133,-4.99717 -3.98174,-13.13884 -8.09734,-16.61258 -5.45554,-4.60472 -10.67994,-6.50925 -17.89289,-6.52278 -23.22559,-0.0436 -34.74204,25.90571 -17.89645,40.32491 7.08871,6.06767 16.25645,7.91349 25.56889,5.14799 z m 99.03547,-2.08079 c 8.30251,-4.03297 13.29209,-11.73228 13.29209,-20.51073 0,-12.78923 -11.39115,-22.93732 -25.69514,-22.89115 -27.86348,0.0899 -35.09845,35.88525 -9.12225,45.13272 6.72044,2.39246 14.28982,1.78381 21.5253,-1.73084 z M 383.17194,334.10115 c 1.44691,-4.64478 6.59534,-9.70417 13.16722,-12.93949 12.4859,-6.14679 26.66713,-3.94511 36.5301,5.67141 2.0699,2.01818 4.4707,5.03707 5.3351,6.70864 1.1279,2.18111 1.87738,2.73351 2.65446,1.95643 1.40778,-1.40777 -0.38828,-7.59365 -3.56319,-12.27215 l -2.31616,-3.41305 2.80568,-3.86924 c 1.54313,-2.12808 3.56005,-6.26237 4.48206,-9.18731 1.42815,-4.53062 1.49722,-6.11862 0.46645,-10.72457 -3.63672,-16.25058 -18.63542,-27.68001 -34.79064,-26.51145 -17.53083,1.26807 -31.44839,18.26671 -28.89527,35.29212 0.35469,2.36529 2.211,6.90128 4.12511,10.07998 l 3.48022,5.77947 -2.08547,2.21987 c -2.25126,2.39636 -4.94818,10.17368 -4.2338,12.20934 0.68668,1.95671 2.06878,1.46973 2.83813,-1 z m 101.04945,-8.94639 c 7.0097,-6.55273 19.70507,-9.30586 29.62018,-6.42346 6.30238,1.83216 14.03838,7.4668 17.76779,12.94145 1.37305,2.0156 2.83396,3.66781 3.24646,3.67156 1.82085,0.0166 0.53233,-6.93566 -2.03955,-11.00448 l -2.78954,-4.41318 3.21718,-4.78072 c 4.55393,-6.76711 5.81349,-13.67887 3.85742,-21.16743 -2.95018,-11.29433 -9.84399,-18.56805 -21.85491,-23.05926 -6.56795,-2.45594 -17.45603,-1.7976 -24.24538,1.46598 -10.47847,5.03691 -18.39522,17.10219 -18.39522,28.03467 0,5.51362 2.20634,11.89489 5.74222,16.6079 l 2.38325,3.17664 -2.50187,3.82336 c -2.89033,4.41701 -4.11319,8.60513 -3.2042,10.97393 0.4953,1.29073 1.25988,0.68589 3.47342,-2.74777 1.56108,-2.42154 4.13632,-5.61618 5.72275,-7.09919 z m 191,0 c 1.58643,-1.48301 4.90943,-3.59088 7.38443,-4.68415 13.95642,-6.16489 29.63078,-2.14464 38.86344,9.96794 4.22089,5.53751 5.13656,5.88159 5.13656,1.93019 0,-3.5171 -1.28131,-6.45302 -4.23116,-9.69509 l -1.98124,-2.17749 2.57526,-3.37633 c 7.89843,-10.35538 7.56558,-23.78623 -0.85743,-34.59752 -13.05284,-16.7539 -37.44272,-17.55745 -50.72405,-1.67116 -5.31914,6.36242 -7.23351,11.50571 -7.25805,19.5 -0.0199,6.47214 0.38432,8.2355 2.9493,12.86675 1.63477,2.95172 3.52212,5.57774 4.19411,5.8356 0.82997,0.31849 0.31357,1.7226 -1.61028,4.3784 -2.8776,3.97242 -4.67593,10.10791 -3.5138,11.98828 0.35182,0.56926 1.88816,-0.9009 3.41408,-3.26701 1.52592,-2.36611 4.0724,-5.5154 5.65883,-6.99841 z m 89.31075,6.3112 c 5.76346,-8.98157 14.62673,-13.4866 26.57368,-13.50688 6.71568,-0.0114 8.81994,0.41144 13.10744,2.63385 6.48929,3.36371 10.71052,6.91859 13.41865,11.30044 1.17536,1.90178 2.55032,3.45778 3.05547,3.45778 2.69563,0 -0.82199,-10.87984 -4.50621,-13.93747 -1.40062,-1.16241 -1.2489,-1.67031 1.40027,-4.68755 3.90156,-4.44363 6.43525,-13.1494 5.54831,-19.06397 -3.07288,-20.49138 -23.49076,-33.03141 -42.90606,-26.35157 -10.09005,3.47149 -16.52418,9.91099 -19.78811,19.80463 -3.17789,9.63282 -2.23516,16.66812 3.36413,25.10544 2.54256,3.83127 2.72505,4.57037 1.48143,6 -3.18601,3.66259 -6.62726,14.13049 -4.6453,14.13049 0.41882,0 2.17215,-2.19834 3.8963,-4.88519 z m -190.53443,1.13519 c 4.38777,-8.36049 15.17616,-14.54063 25.60811,-14.66963 10.42363,-0.12889 15.5547,1.88208 22.62641,8.86775 3.36953,3.32853 6.35078,6.72688 6.625,7.55188 0.37917,1.14073 0.79227,1.22428 1.72475,0.34883 1.63935,-1.53907 0.52368,-6.33318 -2.51633,-10.81289 l -2.39585,-3.53048 2.90287,-4.30125 c 7.9761,-11.81834 5.93782,-26.67311 -5.13267,-37.40637 -5.77011,-5.59435 -12.65448,-8.5175 -21.33418,-9.05866 -9.90204,-0.61736 -17.12981,2.22866 -24.56674,9.67344 -6.55917,6.56611 -8.93326,12.35901 -8.93326,21.79763 0,7.13105 1.40288,11.25505 5.4692,16.07759 2.49869,2.96339 2.62423,3.45681 1.27212,5 -2.45959,2.80719 -4.74132,7.93845 -4.74132,10.6625 0,3.3402 1.58281,3.24671 3.39189,-0.20034 z M 422.10748,254.88909 c 8.04744,-3.55294 14.49834,-12.29148 14.49834,-19.63981 0,-17.65369 -21.3742,-29.82307 -37.77965,-21.5098 -8.69747,4.40735 -13.38691,11.66977 -13.58646,21.04101 -0.10548,4.95354 0.37243,6.9248 2.59706,10.71227 3.11103,5.2966 10.28267,10.52644 15.66279,11.42193 1.98344,0.33014 4.05626,0.76301 4.60626,0.96194 1.95471,0.70702 9.07418,-0.81206 14.00166,-2.98754 z m 285.73998,0.21364 c 9.16781,-3.84892 15.64735,-14.33767 14.32103,-23.18219 -0.91914,-6.1293 -6.0041,-13.35957 -11.98419,-17.04025 -4.12656,-2.53985 -6.15999,-3.08545 -12.58874,-3.37771 -6.65393,-0.30249 -8.33452,-0.0104 -12.71634,2.21002 -15.61848,7.91448 -19.04352,26.7311 -6.81929,37.46411 8.00132,7.02526 18.96382,8.47012 29.78753,3.92602 z m -193.03637,0.69414 c 6.05132,-2.06189 12.05744,-7.34578 14.67175,-12.90748 2.52018,-5.36145 2.65269,-8.62734 0.59507,-14.66611 -3.60911,-10.59216 -12.78857,-16.84513 -24.75421,-16.86236 -8.10988,-0.0117 -12.82959,1.75988 -18.08709,6.78905 -10.36097,9.91102 -10.25512,24.52679 0.24145,33.33919 2.14605,1.80172 5.41523,3.8235 7.26483,4.49284 4.7799,1.72977 14.71732,1.6381 20.0682,-0.18513 z m 94.80281,0.28922 c 6.44939,-2.27036 10.96823,-5.62814 13.99293,-10.3976 2.48309,-3.91542 2.99899,-5.77292 2.99899,-10.79793 0,-13.94473 -10.50973,-23.56639 -25.68808,-23.51745 -14.93108,0.0481 -25.31192,9.82745 -25.31192,23.84519 0,13.22596 9.62091,21.8804 24.5,22.03884 3.3,0.0351 7.57863,-0.49183 9.50808,-1.17105 z m 191.61979,-0.33327 c 13.94623,-5.75669 19.41886,-19.19583 12.78227,-31.38944 -4.58429,-8.42285 -12.85946,-13.01223 -23.4625,-13.01223 -10.18199,0 -18.13003,4.71151 -22.39876,13.27775 -5.88457,11.80878 -1.32929,24.5212 10.98859,30.66588 5.05233,2.52032 16.51834,2.75806 22.0904,0.45804 z M 387.90402,200.74824 c 6.54491,-7.08244 12.86713,-9.78769 22.828,-9.768 10.13586,0.02 16.69001,3.14317 24.34267,11.59964 l 5.53113,6.11209 v -3.23615 c 0,-3.58794 -1.2627,-6.51909 -4.19946,-9.74842 -1.94473,-2.13847 -1.94101,-2.15492 1.5063,-6.67115 4.82475,-6.32077 6.2486,-12.79689 4.38369,-19.93842 -3.76098,-14.40234 -16.49708,-23.90326 -32.19053,-24.01361 -9.37467,-0.0659 -16.58536,3.29823 -23.3591,10.8982 -9.14751,10.26328 -10.55184,22.13264 -3.85691,32.59851 l 3.44447,5.38458 -2.32998,2.70876 c -1.28149,1.48982 -2.81554,4.51197 -3.40899,6.71589 -1.22857,4.56255 -0.28178,7.49055 1.43815,4.44761 0.58979,-1.04349 3.23155,-4.23378 5.87056,-7.08953 z m 89.61603,6.35291 c 1.72455,-4.48725 8.9629,-11.45078 14.29809,-13.75523 6.76807,-2.92336 17.12152,-3.20182 24.49425,-0.65877 5.22138,1.80099 12.64293,7.95388 17.08444,14.164 l 2.14563,3 0.0317,-4.11046 c 0.0217,-2.82026 -0.78781,-5.31803 -2.57915,-7.95771 -2.26756,-3.34145 -2.44006,-4.11578 -1.31198,-5.88955 0.71436,-1.12326 2.41151,-4.01526 3.77144,-6.42669 7.4263,-13.16829 -2.00074,-32.46604 -18.9102,-38.71037 -7.18091,-2.65177 -18.32944,-2.22499 -25.06058,0.95935 -15.10091,7.14387 -22.6816,23.92262 -16.89044,37.38452 1.20864,2.80957 3.03104,5.86262 4.04978,6.78457 1.79749,1.62671 1.78262,1.78404 -0.50302,5.3213 -2.66682,4.12717 -4.38151,12.14504 -2.59732,12.14504 0.61196,0 1.50178,-1.0125 1.97738,-2.25 z m 153.08577,-2.11046 c 0,-3.02739 -0.78129,-5.51174 -2.55561,-8.12635 -2.53653,-3.73778 -2.54114,-3.78176 -0.61698,-5.88955 4.11087,-4.50317 5.63243,-8.89571 5.58519,-16.12364 -0.0343,-5.24548 -0.61082,-8.09017 -2.30022,-11.34942 -8.96198,-17.28981 -28.27154,-23.34631 -45.96867,-14.41821 -16.05006,8.09716 -21.7095,29.58108 -11.00429,41.77364 1.78092,2.02836 2.51726,3.58814 1.87985,3.98208 -1.73355,1.07139 -5.01927,8.25395 -5.01927,10.97207 0,3.35886 1.59408,3.22546 3.40958,-0.28531 2.07937,-4.02107 9.05728,-10.0441 14.46801,-12.48818 6.57038,-2.96789 17.82894,-2.8945 24.62241,0.16052 5.39892,2.42789 12.77898,8.9759 15.10588,13.40281 0.79501,1.5125 1.65892,2.75 1.9198,2.75 0.26087,0 0.47432,-1.96221 0.47432,-4.36046 z m 133.8232,-0.50664 c 5.41713,-8.80396 14.57438,-13.4947 26.2314,-13.43685 11.56476,0.0574 21.04025,4.9958 26.66305,13.89618 1.53029,2.4223 3.1791,4.405 3.66401,4.40598 1.82962,0.004 -0.35683,-8.50918 -3.23381,-12.59078 -2.28617,-3.24343 -2.6686,-4.37736 -1.61293,-4.78246 0.76107,-0.29205 2.60184,-2.91465 4.09059,-5.82799 6.69989,-13.11103 0.14087,-30.45493 -14.30875,-37.83639 -4.16759,-2.12897 -6.1645,-2.46059 -14.81676,-2.46059 -8.38507,0 -10.74617,0.36763 -14.62041,2.27647 -9.38854,4.62573 -16.74344,14.75115 -17.66248,24.31576 -0.66037,6.87258 0.39807,11.13495 4.14924,16.70917 l 3.29297,4.89334 -2.29541,2.66857 c -3.34396,3.88759 -5.34534,12.63669 -2.89067,12.63669 0.19536,0 1.70285,-2.19019 3.34996,-4.8671 z m -94.97073,0.6171 c 5.76252,-9.29167 14.52714,-14.00625 26.09292,-14.03567 11.17822,-0.0284 20.37467,4.53016 26.18967,12.98197 1.62856,2.36704 3.44865,4.3037 4.04465,4.3037 1.88191,0 0.16532,-7.85885 -2.47179,-11.31628 l -2.47234,-3.24141 2.37166,-2.97116 c 5.78681,-7.24958 6.95336,-18.29616 2.84845,-26.97323 -3.31212,-7.00124 -11.7686,-14.77683 -18.50377,-17.01389 -7.23976,-2.40466 -19.84372,-1.75222 -26.18103,1.35526 -14.5895,7.15389 -21.62837,24.34484 -15.42026,37.66071 1.2821,2.75 3.08906,5.62702 4.01546,6.39338 1.49552,1.23716 1.51764,1.57761 0.19727,3.0366 -3.26942,3.61267 -5.90686,13.07002 -3.64492,13.07002 0.50514,0 1.82545,-1.4625 2.93403,-3.25 z"
       id="path1" /></g></svg>
