<?xml version="1.0" encoding="UTF-8" standalone="no"?>
<!-- Created with Inkscape (http://www.inkscape.org/) -->

<svg
   width="949"
   height="168.20001"
   viewBox="0 0 949 168.20001"
   version="1.1"
   id="svg1"
   xmlns="http://www.w3.org/2000/svg"
   xmlns:svg="http://www.w3.org/2000/svg">
  <defs
     id="defs1" />
  <g
     id="layer1"
     transform="translate(-125.5,-315.89999)">
    <path
       class="st0"
       d="m 293.5,402.7 c 4.9,0 9.5,0 14.2,0 0,9.4 0,18.6 0,28.1 -4.6,0 -9.3,0 -14.1,0 0,17.9 0,35.5 0,53.3 -56.1,0 -112,0 -168.1,0 0,-56.1 0,-112.1 0,-168.2 56,0 111.9,0 168,0 0,28.9 0,57.7 0,86.8 z m -14.1,28.2 c 4.8,0 9.3,0 13.9,0 0,-9.5 0,-18.8 0,-28.2 -4.7,0 -9.3,0 -13.9,0 0,9.5 0,18.8 0,28.2 z"
       id="path1"
       style="fill:#0f0f0f" />
    <g
       id="g13"
       transform="translate(-9.6,-8.3)">
	<path
   d="m 410.3,435.4 c -5.5,0 -10.6,-0.9 -15.3,-2.8 -4.7,-1.9 -8.8,-4.5 -12.3,-7.9 -3.5,-3.4 -6.2,-7.4 -8.2,-12 -2,-4.6 -2.9,-9.5 -2.9,-14.9 0,-5.3 1,-10.3 3,-14.9 2,-4.6 4.8,-8.6 8.5,-12 3.6,-3.4 7.9,-6 12.7,-7.9 4.8,-1.9 10,-2.8 15.4,-2.8 6.5,0 12.4,1.1 17.7,3.4 5.3,2.3 9.5,5.5 12.8,9.5 l -12.3,12.3 c -2.5,-2.9 -5.2,-5.1 -8.1,-6.6 -2.9,-1.5 -6.4,-2.2 -10.3,-2.2 -3.9,0 -7.4,0.9 -10.6,2.6 -3.1,1.7 -5.6,4.2 -7.4,7.4 -1.8,3.2 -2.7,6.9 -2.7,11 0,4.2 0.9,8 2.6,11.2 1.7,3.2 4.1,5.7 7.1,7.4 3,1.7 6.6,2.6 10.5,2.6 4,0 7.3,-0.7 10.1,-2.2 2.8,-1.5 4.9,-3.6 6.3,-6.5 1.4,-2.9 2.2,-6.3 2.2,-10.3 l 12.4,8.1 -33.2,-0.8 V 392 h 39.4 v 2.8 c 0,8.7 -1.6,16 -4.7,22.1 -3.1,6 -7.5,10.6 -13.1,13.7 -5.6,3.2 -12.2,4.8 -19.6,4.8 z"
   id="path2" />

	<path
   d="m 479.7,435.5 c -5.3,0 -10.1,-1.2 -14.4,-3.5 -4.2,-2.3 -7.6,-5.5 -10,-9.5 -2.4,-4 -3.6,-8.5 -3.6,-13.4 0,-5.1 1.2,-9.6 3.6,-13.5 2.4,-3.9 5.8,-7 10,-9.3 4.2,-2.3 9,-3.4 14.3,-3.4 5.5,0 10.3,1.1 14.5,3.4 4.2,2.3 7.5,5.4 10,9.3 2.4,3.9 3.6,8.4 3.6,13.5 0,4.9 -1.2,9.4 -3.6,13.4 -2.4,4 -5.7,7.2 -10,9.5 -4.1,2.3 -8.9,3.5 -14.4,3.5 z m -0.1,-16 c 2,0 3.7,-0.4 5.2,-1.3 1.5,-0.9 2.7,-2.1 3.5,-3.6 0.8,-1.5 1.2,-3.3 1.2,-5.4 0,-2.1 -0.4,-3.8 -1.3,-5.4 -0.9,-1.5 -2,-2.7 -3.5,-3.6 -1.5,-0.9 -3.2,-1.3 -5.2,-1.3 -1.8,0 -3.5,0.4 -5,1.3 -1.5,0.9 -2.6,2.1 -3.5,3.6 -0.9,1.5 -1.3,3.3 -1.3,5.4 0,2 0.4,3.7 1.3,5.3 0.9,1.5 2,2.8 3.5,3.6 1.6,1 3.3,1.4 5.1,1.4 z"
   id="path3" />

	<path
   d="m 539.5,435.5 c -5.3,0 -10.1,-1.2 -14.4,-3.5 -4.2,-2.3 -7.6,-5.5 -10,-9.5 -2.4,-4 -3.6,-8.5 -3.6,-13.4 0,-5.1 1.2,-9.6 3.6,-13.5 2.4,-3.9 5.8,-7 10,-9.3 4.2,-2.3 9,-3.4 14.3,-3.4 5.5,0 10.3,1.1 14.5,3.4 4.2,2.3 7.5,5.4 10,9.3 2.4,3.9 3.6,8.4 3.6,13.5 0,4.9 -1.2,9.4 -3.6,13.4 -2.4,4 -5.7,7.2 -10,9.5 -4.2,2.3 -9,3.5 -14.4,3.5 z m -0.1,-16 c 2,0 3.7,-0.4 5.2,-1.3 1.5,-0.9 2.7,-2.1 3.5,-3.6 0.8,-1.5 1.2,-3.3 1.2,-5.4 0,-2.1 -0.4,-3.8 -1.3,-5.4 -0.9,-1.5 -2,-2.7 -3.5,-3.6 -1.5,-0.9 -3.2,-1.3 -5.2,-1.3 -1.8,0 -3.5,0.4 -5,1.3 -1.5,0.9 -2.6,2.1 -3.5,3.6 -0.9,1.5 -1.3,3.3 -1.3,5.4 0,2 0.4,3.7 1.3,5.3 0.9,1.5 2,2.8 3.5,3.6 1.6,1 3.2,1.4 5.1,1.4 z"
   id="path4" />

	<path
   d="m 595.9,457.1 c -5.6,0 -10.5,-0.9 -14.8,-2.8 -4.2,-1.9 -7.6,-4.5 -10.1,-8 l 10.9,-10.7 c 1.6,1.8 3.5,3.3 5.6,4.4 2.1,1.1 4.6,1.6 7.5,1.6 3.6,0 6.4,-0.9 8.4,-2.7 2.1,-1.8 3.1,-4.3 3.1,-7.5 v -13 l 3,-10.9 -2.6,-10.8 v -12.6 h 17.6 v 46.7 c 0,5.4 -1.2,10.1 -3.7,14 -2.5,3.9 -5.9,6.9 -10.2,9.1 -4.3,2.1 -9.2,3.2 -14.7,3.2 z m -0.8,-24.7 c -4.7,0 -8.8,-1.1 -12.4,-3.2 -3.6,-2.2 -6.5,-5.1 -8.5,-8.9 -2,-3.8 -3,-8 -3,-12.6 0,-4.6 1,-8.8 3,-12.5 2,-3.8 4.8,-6.7 8.5,-8.9 3.6,-2.2 7.7,-3.2 12.3,-3.2 3.2,0 6.1,0.6 8.7,1.7 2.6,1.1 4.7,2.7 6.4,4.7 1.7,2 2.7,4.4 3.1,7 V 419 c -0.4,2.7 -1.5,5 -3.1,7 -1.7,2 -3.8,3.6 -6.4,4.7 -2.6,1.2 -5.4,1.7 -8.6,1.7 z m 3.3,-15.5 c 1.9,0 3.6,-0.4 4.9,-1.3 1.4,-0.9 2.4,-2 3.2,-3.4 0.8,-1.4 1.2,-2.9 1.2,-4.6 0,-1.7 -0.4,-3.2 -1.1,-4.6 -0.8,-1.4 -1.8,-2.5 -3.2,-3.3 -1.4,-0.9 -3,-1.3 -4.9,-1.3 -1.8,0 -3.5,0.4 -4.8,1.3 -1.4,0.9 -2.4,2 -3.2,3.4 -0.8,1.4 -1.2,2.9 -1.2,4.5 0,1.6 0.4,3.1 1.1,4.5 0.8,1.4 1.8,2.6 3.2,3.5 1.4,0.9 3,1.3 4.8,1.3 z"
   id="path5" />

	<path
   d="m 634.8,434.3 v -74.8 h 18 v 74.8 z"
   id="path6" />

	<path
   d="m 688.6,435.5 c -5.7,0 -10.7,-1.1 -15,-3.4 -4.3,-2.3 -7.7,-5.4 -10.1,-9.3 -2.4,-4 -3.6,-8.5 -3.6,-13.5 0,-5.1 1.2,-9.7 3.5,-13.6 2.4,-3.9 5.6,-7 9.8,-9.3 4.2,-2.3 8.9,-3.4 14.1,-3.4 5.1,0 9.6,1.1 13.5,3.2 3.9,2.2 7,5.1 9.2,8.9 2.2,3.8 3.3,8.2 3.3,13.1 0,1 -0.1,2 -0.2,3 -0.1,1.1 -0.3,2.3 -0.6,3.6 l -44.2,0.2 v -11.5 l 37.2,-0.2 -8,4.9 c -0.1,-2.7 -0.5,-5 -1.2,-6.9 -0.8,-1.8 -1.8,-3.2 -3.3,-4.2 -1.4,-0.9 -3.3,-1.4 -5.4,-1.4 -2.2,0 -4.1,0.5 -5.8,1.6 -1.7,1.1 -3,2.6 -3.8,4.6 -0.9,2 -1.3,4.4 -1.3,7.1 0,2.9 0.5,5.4 1.4,7.4 1,2 2.3,3.5 4.1,4.5 1.8,1 4,1.5 6.6,1.5 2.4,0 4.5,-0.4 6.5,-1.2 1.9,-0.8 3.6,-2 5.1,-3.7 l 9.4,9.2 c -2.6,2.9 -5.7,5 -9.2,6.5 -3.7,1.6 -7.6,2.3 -12,2.3 z"
   id="path7" />

	<path
   d="m 740.3,434.3 v -72.8 h 18.4 v 72.8 z M 754.9,377 v -15.5 h 37.6 V 377 Z m 0,30.1 v -15.5 h 36 v 15.5 z"
   id="path8" />

	<path
   d="m 824.2,435.5 c -5.3,0 -10.1,-1.2 -14.4,-3.5 -4.2,-2.3 -7.6,-5.5 -10,-9.5 -2.4,-4 -3.6,-8.5 -3.6,-13.4 0,-5.1 1.2,-9.6 3.6,-13.5 2.4,-3.9 5.8,-7 10,-9.3 4.2,-2.3 9,-3.4 14.3,-3.4 5.5,0 10.3,1.1 14.5,3.4 4.2,2.3 7.5,5.4 10,9.3 2.4,3.9 3.6,8.4 3.6,13.5 0,4.9 -1.2,9.4 -3.6,13.4 -2.4,4 -5.7,7.2 -10,9.5 -4.2,2.3 -9,3.5 -14.4,3.5 z m -0.1,-16 c 2,0 3.7,-0.4 5.2,-1.3 1.5,-0.9 2.7,-2.1 3.5,-3.6 0.8,-1.5 1.2,-3.3 1.2,-5.4 0,-2.1 -0.4,-3.8 -1.3,-5.4 -0.9,-1.5 -2,-2.7 -3.5,-3.6 -1.5,-0.9 -3.2,-1.3 -5.2,-1.3 -1.8,0 -3.5,0.4 -5,1.3 -1.5,0.9 -2.6,2.1 -3.5,3.6 -0.9,1.5 -1.3,3.3 -1.3,5.4 0,2 0.4,3.7 1.3,5.3 0.9,1.5 2,2.8 3.5,3.6 1.6,1 3.2,1.4 5.1,1.4 z"
   id="path9" />

	<path
   d="m 883.9,435.5 c -5.3,0 -10.1,-1.2 -14.4,-3.5 -4.2,-2.3 -7.6,-5.5 -10,-9.5 -2.4,-4 -3.6,-8.5 -3.6,-13.4 0,-5.1 1.2,-9.6 3.6,-13.5 2.4,-3.9 5.8,-7 10,-9.3 4.2,-2.3 9,-3.4 14.3,-3.4 5.5,0 10.3,1.1 14.5,3.4 4.2,2.3 7.5,5.4 10,9.3 2.4,3.9 3.6,8.4 3.6,13.5 0,4.9 -1.2,9.4 -3.6,13.4 -2.4,4 -5.7,7.2 -10,9.5 -4.1,2.3 -9,3.5 -14.4,3.5 z m -0.1,-16 c 2,0 3.7,-0.4 5.2,-1.3 1.5,-0.9 2.7,-2.1 3.5,-3.6 0.8,-1.5 1.2,-3.3 1.2,-5.4 0,-2.1 -0.4,-3.8 -1.3,-5.4 -0.9,-1.5 -2,-2.7 -3.5,-3.6 -1.5,-0.9 -3.2,-1.3 -5.2,-1.3 -1.8,0 -3.5,0.4 -5,1.3 -1.5,0.9 -2.6,2.1 -3.5,3.6 -0.9,1.5 -1.3,3.3 -1.3,5.4 0,2 0.4,3.7 1.3,5.3 0.9,1.5 2,2.8 3.5,3.6 1.6,1 3.3,1.4 5.1,1.4 z"
   id="path10" />

	<path
   d="m 918.9,434.3 v -74.8 h 18 v 36.9 l -2.9,12.2 2.5,12.1 v 13.5 h -17.6 z m 30,1 c -3.1,0 -6.1,-0.6 -8.8,-1.9 -2.7,-1.3 -5,-3 -6.8,-5.1 -1.8,-2.2 -2.9,-4.6 -3.3,-7.2 v -24.5 c 0.4,-2.6 1.5,-4.9 3.3,-7 1.8,-2.1 4.1,-3.6 6.8,-4.8 2.7,-1.1 5.7,-1.7 8.9,-1.7 4.9,0 9.2,1.1 12.9,3.3 3.7,2.2 6.6,5.3 8.7,9.3 2.1,4 3.1,8.5 3.1,13.4 0,5.1 -1,9.6 -3.1,13.5 -2.1,3.9 -5,7 -8.7,9.3 -3.9,2.3 -8.1,3.4 -13,3.4 z m -3.3,-15.9 c 1.9,0 3.6,-0.4 5.1,-1.3 1.5,-0.9 2.7,-2.1 3.4,-3.6 0.8,-1.5 1.2,-3.3 1.2,-5.3 0,-1.9 -0.4,-3.6 -1.2,-5.2 -0.8,-1.5 -1.9,-2.8 -3.4,-3.6 -1.5,-0.9 -3.3,-1.3 -5.2,-1.3 -1.8,0 -3.5,0.4 -5,1.3 -1.5,0.9 -2.6,2.1 -3.4,3.6 -0.8,1.5 -1.2,3.3 -1.2,5.2 0,2.1 0.4,3.8 1.2,5.3 0.8,1.5 2,2.7 3.4,3.6 1.6,0.8 3.3,1.3 5.1,1.3 z"
   id="path11" />

	<path
   d="m 1001.9,435.3 c -4.7,0 -8.9,-1.1 -12.5,-3.4 -3.6,-2.3 -6.4,-5.4 -8.5,-9.3 -2.1,-3.9 -3.1,-8.4 -3.1,-13.5 0,-5 1,-9.5 3.1,-13.4 2.1,-3.9 4.9,-7 8.6,-9.3 3.6,-2.3 7.7,-3.4 12.3,-3.4 3.2,0 6.1,0.6 8.7,1.7 2.6,1.1 4.7,2.7 6.4,4.7 1.7,2 2.7,4.4 3,7 v 25.2 c -0.4,2.7 -1.5,5 -3.1,7.1 -1.7,2.1 -3.8,3.6 -6.4,4.8 -2.6,1.2 -5.5,1.8 -8.5,1.8 z m 3.8,-15.9 c 2.9,0 5.3,-1 7.1,-2.9 1.8,-1.9 2.7,-4.4 2.7,-7.4 0,-1.9 -0.4,-3.6 -1.2,-5.2 -0.8,-1.5 -2,-2.8 -3.4,-3.6 -1.4,-0.9 -3.1,-1.3 -5,-1.3 -1.9,0 -3.6,0.4 -5.1,1.3 -1.5,0.9 -2.6,2.1 -3.5,3.6 -0.9,1.5 -1.3,3.3 -1.3,5.2 0,2 0.4,3.7 1.2,5.3 0.8,1.5 2,2.8 3.5,3.6 1.4,0.9 3.1,1.4 5,1.4 z m 9.1,14.9 v -13.5 l 2.6,-12.1 -2.6,-12.2 v -12.3 h 17.7 v 50.2 h -17.7 z"
   id="path12" />

	<path
   d="m 1042.7,434.3 v -50.2 h 18 v 50.2 z m 18,-27.3 -7.9,-6.8 c 1.9,-5.7 4.5,-10 7.8,-12.8 3.3,-2.9 7.6,-4.3 12.9,-4.3 2.3,0 4.4,0.3 6.1,0.9 1.7,0.6 3.2,1.6 4.5,2.9 l -10.4,14 c -0.6,-0.7 -1.4,-1.2 -2.4,-1.6 -1,-0.4 -2.1,-0.6 -3.4,-0.6 -2.3,0 -4,0.7 -5.3,2.1 -1.3,1.4 -1.9,3.4 -1.9,6.2 z"
   id="path13" />

</g>
  </g>
</svg>
