<?xml version="1.0" encoding="UTF-8" standalone="no"?>
<!-- Created with Inkscape (http://www.inkscape.org/) -->

<svg
   width="583.7027"
   height="595.95129"
   viewBox="0 0 583.7027 595.95129"
   version="1.1"
   id="svg1"
   xml:space="preserve"
   xmlns="http://www.w3.org/2000/svg"
   xmlns:svg="http://www.w3.org/2000/svg"><defs
     id="defs1" /><g
     id="layer1"
     transform="translate(-308.14896,-102.0246)"><path
       id="path3"
       style="fill:#000000"
       d="m 599.86719,102.0957 c -42.85432,0.92458 -84.56787,10.86077 -123.13086,29.48047 -15.09033,7.2862 -31.70502,17.242 -45.10156,27.02344 -57.17421,41.74556 -97.77753,101.99657 -114.86524,170.44922 -14.60349,58.50095 -10.55006,121.83625 11.37695,177.74805 5.57848,14.22459 12.64547,29.15795 19.30079,40.78515 7.87197,13.75275 18.4116,29.05734 28.2832,41.07031 13.15295,16.00616 29.02061,31.67668 45.02148,44.46094 49.95987,39.91654 111.72829,62.69507 175.45703,64.70508 31.50292,0.9936 65.01222,-2.74004 93.76368,-10.44727 41.57875,-11.14573 77.52721,-30.11586 108.74218,-57.38476 4.901,-4.2815 15.31568,-14.56145 20.29688,-20.03321 38.39716,-42.17819 62.55587,-96.66935 70.28906,-158.54492 2.0258,-16.20928 2.55078,-25.25075 2.55078,-44.27734 0.003,-15.86453 -0.17912,-20.51751 -1.26562,-32.2168 -0.8699,-9.36795 -2.62952,-22.40029 -3.82422,-28.32812 l -0.17578,-0.87305 H 746.31641 606.04883 v 57.76758 57.76758 h 80.16015 80.15821 l -0.21485,1.1914 c -0.5558,3.07781 -2.82242,11.69391 -4.14062,15.74024 -12.77659,39.2205 -41.44176,69.59371 -82.10352,86.99609 -19.87949,8.50801 -41.08423,13.06017 -65.92382,14.15234 -40.12694,1.76435 -79.07154,-10.3787 -111.58008,-34.79101 -6.73265,-5.05589 -11.78764,-9.50555 -19.05274,-16.77149 -7.56783,-7.56869 -11.50475,-12.06973 -17.22851,-19.69921 -19.18446,-25.57187 -31.3144,-56.13834 -35.33203,-89.03907 -0.63207,-5.17578 -0.71807,-7.37853 -0.73047,-18.7207 -0.0114,-10.45614 0.0945,-13.80277 0.5664,-17.93359 3.78176,-33.10514 15.88949,-63.91187 35.42578,-90.14258 27.20103,-36.52188 67.67937,-61.66436 111.11329,-69.01367 51.88904,-8.77997 103.60929,5.87687 140.63086,39.85156 l 2.28515,2.09766 42.63867,-42.63868 42.64063,-42.63867 -0.70508,-0.76562 c -0.3874,-0.42043 -3.06101,-2.83813 -5.94141,-5.37305 -44.24225,-38.93491 -97.39355,-62.6828 -155.6875,-69.5625 -14.46379,-1.70698 -28.87538,-2.39999 -43.16015,-2.0918 z m 33.58398,270.55274 62.625,26.01562 v 10.6875 l -62.625,26.01563 v -13.45313 l 43.82813,-17.90625 -43.82813,-17.90625 z m 83.25,0 62.625,26.01562 v 10.6875 l -62.625,26.01563 v -13.45313 l 43.82813,-17.90625 -43.82813,-17.90625 z m 83.25,0 62.625,26.01562 v 10.6875 l -62.625,26.01563 v -13.45313 l 43.82813,-17.90625 -43.82813,-17.90625 z" /></g></svg>
