<?xml version="1.0" encoding="UTF-8" standalone="no"?>
<!-- Created with Inkscape (http://www.inkscape.org/) -->

<svg
   width="486.07999"
   height="532.47998"
   viewBox="0 0 486.07999 532.47998"
   version="1.1"
   id="svg1"
   xml:space="preserve"
   xmlns="http://www.w3.org/2000/svg"
   xmlns:svg="http://www.w3.org/2000/svg"><defs
     id="defs1" /><g
     id="g1"
     transform="translate(853.04001,-133.76001)"><g
       id="g2"
       transform="translate(28.331665,-10.23641)"><path
         id="path3"
         d="m -881.37166,191.27642 c 0,-26.10667 21.2,-47.28 47.36,-47.28 26.16,0 47.36,21.17333 47.36,47.28 0,26.10666 -21.2,47.27999 -47.36,47.27999 -26.16,0 -47.36,-21.17333 -47.36,-47.27999 z"
         style="fill:#000000;fill-opacity:1;fill-rule:evenodd;stroke:none;stroke-width:1.33333" /><path
         id="path4"
         d="m -750.81166,191.27642 c 0,-26.10667 21.17333,-47.28 47.28,-47.28 26.10666,0 47.28,21.17333 47.28,47.28 0,26.10666 -21.17334,47.27999 -47.28,47.27999 -26.10667,0 -47.28,-21.17333 -47.28,-47.27999 z"
         style="fill:#000000;fill-opacity:1;fill-rule:evenodd;stroke:none;stroke-width:1.33333" /><path
         id="path5"
         d="m -881.37166,376.31641 c 0,-26.16 21.2,-47.36 47.36,-47.36 26.16,0 47.36,21.2 47.36,47.36 0,26.16 -21.2,47.36 -47.36,47.36 -26.16,0 -47.36,-21.2 -47.36,-47.36 z"
         style="fill:#000000;fill-opacity:1;fill-rule:evenodd;stroke:none;stroke-width:1.33333" /><path
         id="path6"
         d="m -750.81166,376.31641 c 0,-26.16 21.17333,-47.36 47.28,-47.36 26.10666,0 47.28,21.2 47.28,47.36 0,26.16 -21.17334,47.36 -47.28,47.36 -26.10667,0 -47.28,-21.2 -47.28,-47.36 z"
         style="fill:#000000;fill-opacity:1;fill-rule:evenodd;stroke:none;stroke-width:1.33333" /><path
         id="path7"
         d="m -620.41167,376.31641 c 0,-26.16 21.2,-47.36 47.36,-47.36 26.16,0 47.36,21.2 47.36,47.36 0,26.16 -21.2,47.36 -47.36,47.36 -26.16,0 -47.36,-21.2 -47.36,-47.36 z"
         style="fill:#000000;fill-opacity:1;fill-rule:evenodd;stroke:none;stroke-width:1.33333" /><path
         id="path8"
         d="m -490.01167,376.31641 c 0,-26.16 21.2,-47.36 47.36,-47.36 26.16,0 47.36,21.2 47.36,47.36 0,26.16 -21.2,47.36 -47.36,47.36 -26.16,0 -47.36,-21.2 -47.36,-47.36 z"
         style="fill:#000000;fill-opacity:1;fill-rule:evenodd;stroke:none;stroke-width:1.33333" /><path
         id="path9"
         d="m -881.37166,502.71641 c 0,-26.16 21.2,-47.36 47.36,-47.36 26.16,0 47.36,21.2 47.36,47.36 0,26.16 -21.2,47.36 -47.36,47.36 -26.16,0 -47.36,-21.2 -47.36,-47.36 z"
         style="fill:#000000;fill-opacity:1;fill-rule:evenodd;stroke:none;stroke-width:1.33333" /><path
         id="path10"
         d="m -750.81166,502.71641 c 0,-26.16 21.17333,-47.36 47.28,-47.36 26.10666,0 47.28,21.2 47.28,47.36 0,26.16 -21.17334,47.36 -47.28,47.36 -26.10667,0 -47.28,-21.2 -47.28,-47.36 z"
         style="fill:#000000;fill-opacity:1;fill-rule:evenodd;stroke:none;stroke-width:1.33333" /><path
         id="path11"
         d="m -620.41167,502.71641 c 0,-26.16 21.2,-47.36 47.36,-47.36 26.16,0 47.36,21.2 47.36,47.36 0,26.16 -21.2,47.36 -47.36,47.36 -26.16,0 -47.36,-21.2 -47.36,-47.36 z"
         style="fill:#000000;fill-opacity:1;fill-rule:evenodd;stroke:none;stroke-width:1.33333" /><path
         id="path12"
         d="m -490.01167,502.71641 c 0,-26.16 21.2,-47.36 47.36,-47.36 26.16,0 47.36,21.2 47.36,47.36 0,26.16 -21.2,47.36 -47.36,47.36 -26.16,0 -47.36,-21.2 -47.36,-47.36 z"
         style="fill:#000000;fill-opacity:1;fill-rule:evenodd;stroke:none;stroke-width:1.33333" /><path
         id="path13"
         d="m -881.37166,629.1964 c 0,-26.10666 21.2,-47.27999 47.36,-47.27999 26.16,0 47.36,21.17333 47.36,47.27999 0,26.112 -21.2,47.28 -47.36,47.28 -26.16,0 -47.36,-21.168 -47.36,-47.28 z"
         style="fill:#000000;fill-opacity:1;fill-rule:evenodd;stroke:none;stroke-width:1.33333" /><path
         id="path14"
         d="m -750.81166,629.1964 c 0,-26.10666 21.17333,-47.27999 47.28,-47.27999 26.10666,0 47.28,21.17333 47.28,47.27999 0,26.112 -21.17334,47.28 -47.28,47.28 -26.10667,0 -47.28,-21.168 -47.28,-47.28 z"
         style="fill:#000000;fill-opacity:1;fill-rule:evenodd;stroke:none;stroke-width:1.33333" /><path
         id="path15"
         d="m -620.41167,629.1964 c 0,-26.10666 21.2,-47.27999 47.36,-47.27999 26.16,0 47.36,21.17333 47.36,47.27999 0,26.112 -21.2,47.28 -47.36,47.28 -26.16,0 -47.36,-21.168 -47.36,-47.28 z"
         style="fill:#000000;fill-opacity:1;fill-rule:evenodd;stroke:none;stroke-width:1.33333" /><path
         id="path16"
         d="m -490.01167,629.1964 c 0,-26.10666 21.2,-47.27999 47.36,-47.27999 26.16,0 47.36,21.17333 47.36,47.27999 0,26.112 -21.2,47.28 -47.36,47.28 -26.16,0 -47.36,-21.168 -47.36,-47.28 z"
         style="fill:#000000;fill-opacity:1;fill-rule:evenodd;stroke:none;stroke-width:1.33333" /><path
         id="path17"
         d="m -620.89167,239.67641 h 94.72 v -16.48 h -94.72 z"
         style="fill:#000000;fill-opacity:1;fill-rule:evenodd;stroke:none;stroke-width:1.33333" /><path
         id="path18"
         d="m -490.01167,239.67641 h 94.72 v -16.48 h -94.72 z"
         style="fill:#000000;fill-opacity:1;fill-rule:evenodd;stroke:none;stroke-width:1.33333" /></g></g></svg>
