<svg xmlns="http://www.w3.org/2000/svg" xmlns:xlink="http://www.w3.org/1999/xlink" version="1.1" width="213.38pt" height="77.501pt" viewBox="0 0 213.38 77.501">
<text xml:space="preserve" transform="matrix(1 0 -0 1 -.00000047683718 77.501)" font-size="9.9626" font-family="CMR10"><tspan y="-28.62" x="6.155">4</tspan></text>
<text xml:space="preserve" transform="matrix(1 0 -0 1 -.00000047683718 77.501)" font-size="9.9626" font-family="CMMI10" font-style="italic"><tspan y="-28.62" x="11.136">k</tspan></text>
<text xml:space="preserve" transform="matrix(1 0 -0 1 -.00000047683718 77.501)" font-size="9.9626" font-family="CMR10"><tspan y="-28.62" x="17.786999 26.683602">+3</tspan></text>
<text xml:space="preserve" transform="matrix(1 0 -0 1 0 77.501)" font-size="9.9626" font-family="CMR10"><tspan y="-46.243" x="50.045">4</tspan></text>
<text xml:space="preserve" transform="matrix(1 0 -0 1 0 77.501)" font-size="9.9626" font-family="CMMI10" font-style="italic"><tspan y="-46.243" x="55.025999">k</tspan></text>
<text xml:space="preserve" transform="matrix(1 0 -0 1 0 77.501)" font-size="9.9626" font-family="CMR10"><tspan y="-46.243" x="61.676 70.5726">+2</tspan></text>
<text xml:space="preserve" transform="matrix(1 0 -0 1 .0000076293949 77.501)" font-size="9.9626" font-family="CMR10"><tspan y="-46.243" x="93.934">2</tspan></text>
<text xml:space="preserve" transform="matrix(1 0 -0 1 .0000076293949 77.501)" font-size="9.9626" font-family="CMMI10" font-style="italic"><tspan y="-46.243" x="98.916">k</tspan></text>
<text xml:space="preserve" transform="matrix(1 0 -0 1 .0000076293949 77.501)" font-size="9.9626" font-family="CMR10"><tspan y="-46.243" x="105.566 114.4626">+1</tspan></text>
<text xml:space="preserve" transform="matrix(1 0 -0 1 0 77.501)" font-size="9.9626" font-family="CMR10"><tspan y="-60.484" x="145.339">2</tspan></text>
<text xml:space="preserve" transform="matrix(1 0 -0 1 0 77.501)" font-size="9.9626" font-family="CMMI10" font-style="italic"><tspan y="-60.484" x="150.32">k</tspan></text>
<text xml:space="preserve" transform="matrix(1 0 -0 1 0 77.501)" font-size="9.9626" font-family="CMMI10" font-style="italic"><tspan y="-60.484" x="191.719">k</tspan></text>
<text xml:space="preserve" transform="matrix(1 0 -0 1 0 77.501)" font-size="9.9626" font-family="CMR10"><tspan y="-31.171" x="137.824">2</tspan></text>
<text xml:space="preserve" transform="matrix(1 0 -0 1 0 77.501)" font-size="9.9626" font-family="CMMI10" font-style="italic"><tspan y="-31.171" x="142.80501">k</tspan></text>
<text xml:space="preserve" transform="matrix(1 0 -0 1 0 77.501)" font-size="9.9626" font-family="CMR10"><tspan y="-31.171" x="149.455 158.35161">+2</tspan></text>
<text xml:space="preserve" transform="matrix(1 0 -0 1 -.000015258789 77.501)" font-size="9.9626" font-family="CMMI10" font-style="italic"><tspan y="-31.171" x="183.065">k</tspan></text>
<text xml:space="preserve" transform="matrix(1 0 -0 1 -.000015258789 77.501)" font-size="9.9626" font-family="CMR10"><tspan y="-31.171" x="190.854 200.8963">+1</tspan></text>
<text xml:space="preserve" transform="matrix(1 0 -0 1 0 77.501)" font-size="9.9626" font-family="CMR10"><tspan y="-9.58" x="50.045">4</tspan></text>
<text xml:space="preserve" transform="matrix(1 0 -0 1 0 77.501)" font-size="9.9626" font-family="CMMI10" font-style="italic"><tspan y="-9.58" x="55.025999">k</tspan></text>
<text xml:space="preserve" transform="matrix(1 0 -0 1 0 77.501)" font-size="9.9626" font-family="CMR10"><tspan y="-9.58" x="61.676 70.5726">+4</tspan></text>
<text xml:space="preserve" transform="matrix(1 0 -0 1 .0000076293949 77.501)" font-size="9.9626" font-family="CMR10"><tspan y="-9.58" x="93.934">2</tspan></text>
<text xml:space="preserve" transform="matrix(1 0 -0 1 .0000076293949 77.501)" font-size="9.9626" font-family="CMMI10" font-style="italic"><tspan y="-9.58" x="98.916">k</tspan></text>
<text xml:space="preserve" transform="matrix(1 0 -0 1 .0000076293949 77.501)" font-size="9.9626" font-family="CMR10"><tspan y="-9.58" x="105.566 114.4626">+2</tspan></text>
<text xml:space="preserve" transform="matrix(1 0 -0 1 0 77.501)" font-size="9.9626" font-family="CMMI10" font-style="italic"><tspan y="-9.58" x="139.176">k</tspan></text>
<text xml:space="preserve" transform="matrix(1 0 -0 1 0 77.501)" font-size="9.9626" font-family="CMR10"><tspan y="-9.58" x="146.965 157.0073">+1</tspan></text>
<text fill="#ff0000" xml:space="preserve" transform="matrix(1 0 -0 1 -.000015258789 77.501)" font-size="9.9626" font-family="CMMI10" font-style="italic"><tspan y="-9.165" x="181.714">k</tspan></text>
<path transform="matrix(1,0,0,-1,18.911,45.836999)" stroke-width=".3985" stroke-linecap="butt" stroke-miterlimit="10" stroke-linejoin="miter" fill="none" stroke="#ff0000" d="M117.63956-28.63034H171.49834V-8.787661H117.63956Z"/>
<path transform="matrix(1,0,0,-1,18.911,45.836999)" stroke-width=".3985" stroke-linecap="butt" stroke-miterlimit="10" stroke-linejoin="miter" fill="none" stroke="#ff0000" d="M161.5768-5.38573H189.92359V42.803739H161.5768Z"/>
<path transform="matrix(1,0,0,-1,18.911,45.836999)" stroke-width=".3985" stroke-linecap="butt" stroke-miterlimit="10" stroke-linejoin="miter" fill="none" stroke="#000000" d="M16.27579 6.53578 27.18912 10.92017"/>
<path transform="matrix(.9279,-.37274,-.37274,-.9279,46.10012,34.916849)" stroke-width=".31879" stroke-linecap="round" stroke-linejoin="round" fill="none" stroke="#000000" d="M-1.19551 1.59401C-1.09587 .99626 0 .09961 .29886 0 0-.09961-1.09587-.99626-1.19551-1.59401"/>
<path transform="matrix(1,0,0,-1,18.911,45.836999)" stroke-width=".3985" stroke-linecap="butt" stroke-miterlimit="10" stroke-linejoin="miter" fill="none" stroke="#000000" d="M60.16594 17.62329H71.0462"/>
<path transform="matrix(1,0,0,-1,89.9572,28.213709)" stroke-width=".31879" stroke-linecap="round" stroke-linejoin="round" fill="none" stroke="#000000" d="M-1.19551 1.59401C-1.09587 .99626 0 .09961 .29886 0 0-.09961-1.09587-.99626-1.19551-1.59401"/>
<path transform="matrix(1,0,0,-1,18.911,45.836999)" stroke-width=".3985" stroke-linecap="butt" stroke-miterlimit="10" stroke-linejoin="miter" fill="none" stroke="#000000" d="M104.05609 23.0589 114.95999 26.7021"/>
<path transform="matrix(.94843,-.31686,-.31686,-.94843,133.87099,19.134898)" stroke-width=".31879" stroke-linecap="round" stroke-linejoin="round" fill="none" stroke="#000000" d="M-1.19551 1.59401C-1.09587 .99626 0 .09961 .29886 0 0-.09961-1.09587-.99626-1.19551-1.59401"/>
<path transform="matrix(1,0,0,-1,18.911,45.836999)" stroke-width=".3985" stroke-linecap="butt" stroke-miterlimit="10" stroke-linejoin="miter" fill="none" stroke="#000000" d="M147.94625 32.27994H158.8265"/>
<path transform="matrix(1,0,0,-1,177.7375,13.557056)" stroke-width=".31879" stroke-linecap="round" stroke-linejoin="round" fill="none" stroke="#000000" d="M-1.19551 1.59401C-1.09587 .99626 0 .09961 .29886 0 0-.09961-1.09587-.99626-1.19551-1.59401"/>
<path transform="matrix(1,0,0,-1,18.911,45.836999)" stroke-width=".3985" stroke-linecap="butt" stroke-miterlimit="10" stroke-linejoin="miter" fill="none" stroke="#000000" d="M104.05609 12.03395 114.96124 8.28705"/>
<path transform="matrix(.94572,.32495,.32495,-.94572,133.87223,37.54994)" stroke-width=".31879" stroke-linecap="round" stroke-linejoin="round" fill="none" stroke="#000000" d="M-1.19551 1.59401C-1.09587 .99626 0 .09961 .29886 0 0-.09961-1.09587-.99626-1.19551-1.59401"/>
<path transform="matrix(1,0,0,-1,18.911,45.836999)" stroke-width=".3985" stroke-linecap="butt" stroke-miterlimit="10" stroke-linejoin="miter" fill="none" stroke="#000000" d="M147.94625 2.55154H158.8265"/>
<path transform="matrix(1,0,0,-1,177.7375,43.285459)" stroke-width=".31879" stroke-linecap="round" stroke-linejoin="round" fill="none" stroke="#000000" d="M-1.19551 1.59401C-1.09587 .99626 0 .09961 .29886 0 0-.09961-1.09587-.99626-1.19551-1.59401"/>
<path transform="matrix(1,0,0,-1,18.911,45.836999)" stroke-width=".3985" stroke-linecap="butt" stroke-miterlimit="10" stroke-linejoin="miter" fill="none" stroke="#000000" d="M16.27579-7.0613 27.19398-11.80026"/>
<path transform="matrix(.91727,.39812,.39812,-.91727,46.10497,57.63725)" stroke-width=".31879" stroke-linecap="round" stroke-linejoin="round" fill="none" stroke="#000000" d="M-1.19551 1.59401C-1.09587 .99626 0 .09961 .29886 0 0-.09961-1.09587-.99626-1.19551-1.59401"/>
<path transform="matrix(1,0,0,-1,18.911,45.836999)" stroke-width=".3985" stroke-linecap="butt" stroke-miterlimit="10" stroke-linejoin="miter" fill="none" stroke="#000000" d="M147.94625 2.55154H158.8265"/>
<path transform="matrix(1,0,0,-1,177.7375,43.285459)" stroke-width=".31879" stroke-linecap="round" stroke-linejoin="round" fill="none" stroke="#000000" d="M-1.19551 1.59401C-1.09587 .99626 0 .09961 .29886 0 0-.09961-1.09587-.99626-1.19551-1.59401"/>
<path transform="matrix(1,0,0,-1,18.911,45.836999)" stroke-width=".3985" stroke-linecap="butt" stroke-miterlimit="10" stroke-linejoin="miter" fill="none" stroke="#000000" d="M60.16594-19.04028H71.0462"/>
<path transform="matrix(1,0,0,-1,89.9572,64.87727)" stroke-width=".31879" stroke-linecap="round" stroke-linejoin="round" fill="none" stroke="#000000" d="M-1.19551 1.59401C-1.09587 .99626 0 .09961 .29886 0 0-.09961-1.09587-.99626-1.19551-1.59401"/>
<path transform="matrix(1,0,0,-1,18.911,45.836999)" stroke-width=".3985" stroke-linecap="butt" stroke-miterlimit="10" stroke-linejoin="miter" fill="none" stroke="#000000" d="M104.05609-19.04028H114.93636"/>
<path transform="matrix(1,0,0,-1,133.84737,64.87727)" stroke-width=".31879" stroke-linecap="round" stroke-linejoin="round" fill="none" stroke="#000000" d="M-1.19551 1.59401C-1.09587 .99626 0 .09961 .29886 0 0-.09961-1.09587-.99626-1.19551-1.59401"/>
<path transform="matrix(1,0,0,-1,18.911,45.836999)" stroke-width=".3985" stroke-linecap="butt" stroke-miterlimit="10" stroke-linejoin="miter" fill="none" stroke="#ff0000" d="M147.94625-19.04028H158.8265"/>
<path transform="matrix(1,0,0,-1,177.7375,64.87727)" stroke-width=".31879" stroke-linecap="round" stroke-linejoin="round" fill="none" stroke="#ff0000" d="M-1.19551 1.59401C-1.09587 .99626 0 .09961 .29886 0 0-.09961-1.09587-.99626-1.19551-1.59401"/>
</svg>
